%TF.GenerationSoftware,KiCad,Pcbnew,8.0.3*%
%TF.CreationDate,2024-09-22T18:07:20+10:00*%
%TF.ProjectId,ChatterBox,43686174-7465-4724-926f-782e6b696361,rev?*%
%TF.SameCoordinates,Original*%
%TF.FileFunction,Legend,Bot*%
%TF.FilePolarity,Positive*%
%FSLAX46Y46*%
G04 Gerber Fmt 4.6, Leading zero omitted, Abs format (unit mm)*
G04 Created by KiCad (PCBNEW 8.0.3) date 2024-09-22 18:07:20*
%MOMM*%
%LPD*%
G01*
G04 APERTURE LIST*
%ADD10C,0.150000*%
%ADD11C,0.300000*%
%ADD12C,0.600000*%
G04 APERTURE END LIST*
D10*
%TO.C,REF\u002A\u002A*%
X5300309Y5697586D02*
G75*
G02*
X4188675Y5697586I-555817J0D01*
G01*
X4188675Y5697586D02*
G75*
G02*
X5300309Y5697586I555817J0D01*
G01*
X4185725Y5721627D02*
G75*
G02*
X3122173Y5721627I-531776J0D01*
G01*
X3122173Y5721627D02*
G75*
G02*
X4185725Y5721627I531776J0D01*
G01*
X2308559Y9097406D02*
G75*
G02*
X2957969Y8544983I-614364J-1380150D01*
G01*
X-1453855Y7091485D02*
G75*
G02*
X-2474416Y7091486I-510280J883832D01*
G01*
X-5046559Y3463075D02*
G75*
G02*
X-5474934Y5007587I2570192J1544512D01*
G01*
X-5474934Y6076130D02*
X-5474934Y5007587D01*
X-5474934Y6076130D02*
G75*
G02*
X-5097003Y6307846I260000J0D01*
G01*
X-3620825Y6454123D02*
G75*
G02*
X-5097003Y6307846I-852308J1079525D01*
G01*
X-5136468Y3353957D02*
G75*
G02*
X-6361157Y4456176I751052J2065996D01*
G01*
X-3833951Y4754866D02*
G75*
G02*
X-5372324Y4229877I-1180481J942720D01*
G01*
X2102842Y8245964D02*
G75*
G02*
X2216784Y8188640I39232J-63921D01*
G01*
X3259373Y7462875D02*
G75*
G02*
X2216783Y8188639I-218002J798575D01*
G01*
X-1423765Y6307326D02*
G75*
G02*
X-1703477Y5732330I-1206068J231170D01*
G01*
X-1561300Y6545544D02*
G75*
G02*
X-1423765Y6307325I-68977J-198636D01*
G01*
X-2366970Y6545544D02*
G75*
G02*
X-1561301Y6545544I402835J-1160070D01*
G01*
X-2504505Y6307326D02*
G75*
G02*
X-2366969Y6545544I206512J39582D01*
G01*
X-2224793Y5732330D02*
G75*
G02*
X-2504505Y6307326I926356J806166D01*
G01*
X-1703477Y5732330D02*
G75*
G02*
X-2224793Y5732330I-260658J226839D01*
G01*
X2102842Y8245964D02*
G75*
G02*
X285441Y8445199I-780255J1271285D01*
G01*
X6254063Y6183062D02*
X5273620Y5867753D01*
X-783653Y6774536D02*
G75*
G02*
X-1423938Y6306424I-1180482J942720D01*
G01*
X-2504332Y6306425D02*
G75*
G02*
X-3144617Y6774536I540197J1410831D01*
G01*
X-5046559Y3463075D02*
G75*
G02*
X-5136467Y3353956I-64285J-38632D01*
G01*
X2874677Y6774536D02*
G75*
G02*
X513713Y6774536I-1180482J942720D01*
G01*
X5924974Y4754866D02*
G75*
G02*
X3564010Y4754866I-1180482J942720D01*
G01*
X43095Y3826534D02*
X-713085Y3826534D01*
X567328Y2544861D02*
X43095Y3826534D01*
X-129486Y2544861D02*
X567328Y2544861D01*
X375185Y1474793D02*
X-129486Y2544861D01*
X-743670Y2769414D02*
X375185Y1474793D01*
X-123561Y2769414D02*
X-743670Y2769414D01*
X-713085Y3826534D02*
X-123561Y2769414D01*
X-7259Y3751534D02*
X-585385Y3751534D01*
X455620Y2619861D02*
X-7259Y3751534D01*
X-247781Y2619861D02*
X455620Y2619861D01*
X73573Y1938487D02*
X-247781Y2619861D01*
X-579725Y2694414D02*
X73573Y1938487D01*
X4138Y2694414D02*
X-579725Y2694414D01*
X-585385Y3751534D02*
X4138Y2694414D01*
X-57614Y3676534D02*
X-457686Y3676534D01*
X343912Y2694861D02*
X-57614Y3676534D01*
X89762Y2694861D02*
X343912Y2694861D01*
X-457686Y3676534D02*
X89762Y2694861D01*
X-107968Y3601534D02*
X-329987Y3601534D01*
X232204Y2769861D02*
X-107968Y3601534D01*
X133811Y2769861D02*
X232204Y2769861D01*
X-329987Y3601534D02*
X133811Y2769861D01*
X-158323Y3526534D02*
X-202288Y3526534D01*
X-37348Y3230767D02*
X-158323Y3526534D01*
X-202288Y3526534D02*
X-37348Y3230767D01*
X-330492Y2619414D02*
X-415780Y2619414D01*
X-228040Y2402182D02*
X-330492Y2619414D01*
X-415780Y2619414D02*
X-228040Y2402182D01*
X5925333Y-3208430D02*
X5419149Y-3208430D01*
X5925333Y-2419430D02*
X5925333Y-3208430D01*
X5419149Y-2419430D02*
X5925333Y-2419430D01*
X5562812Y-2774480D02*
X5925333Y-2774480D01*
X3573603Y-2419430D02*
X4200949Y-2419430D01*
X3887276Y-3208430D02*
X3887276Y-2419430D01*
X4527994Y-2529919D02*
G75*
G02*
X4571253Y-2479770I125325J-64374D01*
G01*
X4571253Y-2479770D02*
G75*
G02*
X4946848Y-2479769I187798J-262072D01*
G01*
X4946848Y-2479770D02*
G75*
G02*
X4946849Y-2708815I-82065J-114523D01*
G01*
X4946848Y-2708816D02*
G75*
G02*
X4816931Y-2763918I-187797J262072D01*
G01*
X4688308Y-2787390D02*
X4816931Y-2763918D01*
X4529520Y-2854737D02*
G75*
G02*
X4688308Y-2787389I229531J-320310D01*
G01*
X4529520Y-3134681D02*
G75*
G02*
X4529521Y-2854736I100303J139972D01*
G01*
X4988581Y-3134681D02*
G75*
G02*
X4529521Y-3134681I-229530J320310D01*
G01*
X5041453Y-3073388D02*
G75*
G02*
X4988581Y-3134682I-153175J78679D01*
G01*
X3385888Y-3116247D02*
X3385888Y-3208430D01*
X-3439354Y-3208430D02*
X-4016335Y-3208430D01*
X-3579438Y-2928909D02*
G75*
G02*
X-3439354Y-3208430I-208834J-279521D01*
G01*
X-3683543Y-2867047D02*
G75*
G02*
X-3579438Y-2928908I-240062J-522526D01*
G01*
X-3863524Y-2784359D02*
X-3683543Y-2867047D01*
X-3863524Y-2784359D02*
G75*
G02*
X-3928705Y-2744535I135680J295323D01*
G01*
X-3928705Y-2744535D02*
G75*
G02*
X-3928705Y-2489037I100430J127749D01*
G01*
X-3928705Y-2489036D02*
G75*
G02*
X-3526983Y-2489036I200861J-255499D01*
G01*
X-3526984Y-2489036D02*
G75*
G02*
X-3464914Y-2616785I-100430J-127750D01*
G01*
X-5681297Y-2540814D02*
G75*
G02*
X-5231087Y-2540814I225105J-148035D01*
G01*
X-5231088Y-2540814D02*
G75*
G02*
X-5231088Y-3087047I-415306J-273116D01*
G01*
X-5231088Y-3087046D02*
G75*
G02*
X-5681296Y-3087047I-225104J148034D01*
G01*
X-5681297Y-3087046D02*
G75*
G02*
X-5681297Y-2540813I415306J273116D01*
G01*
X-6066951Y-2679221D02*
G75*
G02*
X-6586533Y-2679221I-259791J0D01*
G01*
X-6586533Y-2679221D02*
G75*
G02*
X-6066951Y-2679221I259791J0D01*
G01*
X-6101637Y-3087046D02*
G75*
G02*
X-6551846Y-3087048I-225105J148034D01*
G01*
X-6551846Y-3087046D02*
G75*
G02*
X-6551846Y-2540814I415305J273116D01*
G01*
X-6551846Y-2540814D02*
G75*
G02*
X-6326742Y-2419431I225104J-148035D01*
G01*
X-4794934Y-2540814D02*
G75*
G02*
X-4344726Y-2540815I225104J-148035D01*
G01*
X-4344725Y-2540814D02*
G75*
G02*
X-4344725Y-3087047I-415306J-273116D01*
G01*
X-4344725Y-3087046D02*
G75*
G02*
X-4794934Y-3087048I-225105J148034D01*
G01*
X-4794934Y-3087046D02*
G75*
G02*
X-4794934Y-2540814I415305J273116D01*
G01*
D11*
X3002232Y8613654D02*
G75*
G02*
X3801508Y7981241I404884J-309576D01*
G01*
X-6402983Y4372474D02*
G75*
G02*
X-6465123Y6337889I2017567J1047479D01*
G01*
X-134970Y4977670D02*
G75*
G02*
X472984Y6705754I4841216J-732196D01*
G01*
X472985Y6705755D02*
G75*
G02*
X2329571Y9170110I1221210J1011501D01*
G01*
X2329571Y9170111D02*
G75*
G02*
X3985232Y7752351I1123159J-363995D01*
G01*
X3985231Y7752352D02*
G75*
G02*
X3801508Y7981242I-67652J133877D01*
G01*
X3002232Y8613654D02*
G75*
G02*
X2915406Y6705755I-1308037J-896398D01*
G01*
X2915406Y6705755D02*
G75*
G02*
X3202464Y6127014I-4233261J-2460281D01*
G01*
X3224888Y6150677D02*
G75*
G02*
X5965702Y4686085I1519604J-453091D01*
G01*
X6471460Y5523558D02*
G75*
G02*
X6043731Y4546637I-1726968J174028D01*
G01*
X-6465123Y6337888D02*
G75*
G02*
X-3793221Y4686085I1450691J-640302D01*
G01*
X-3185345Y6705755D02*
G75*
G02*
X-742925Y6705755I1221210J1011501D01*
G01*
X-742925Y6705755D02*
G75*
G02*
X-134970Y4977671I-4233261J-2460281D01*
G01*
X-3481774Y6104342D02*
G75*
G02*
X-3185345Y6705755I4529690J-1858868D01*
G01*
X-2312220Y2768599D02*
G75*
G02*
X-3177847Y2907134I348085J4948657D01*
G01*
X-3793222Y4686085D02*
G75*
G02*
X-3272884Y1052441I-4233261J-2460281D01*
G01*
X-6755980Y1052441D02*
G75*
G02*
X-6456570Y4258950I4753598J1173363D01*
G01*
X-3272884Y1052441D02*
G75*
G02*
X-6755980Y1052441I-1741548J4645145D01*
G01*
X2907907Y2907134D02*
G75*
G02*
X2042280Y2768599I-1213712J4810122D01*
G01*
X3523282Y4686085D02*
G75*
G02*
X3206397Y5311902I1221210J1011501D01*
G01*
X3206397Y5311902D02*
G75*
G02*
X3224888Y6150677I447552J409725D01*
G01*
X6486040Y1052441D02*
G75*
G02*
X3002944Y1052441I-1741548J4645145D01*
G01*
X5965703Y4686085D02*
G75*
G02*
X6486041Y1052441I-4233261J-2460281D01*
G01*
X3002944Y1052441D02*
G75*
G02*
X3523282Y4686085I4753599J1173363D01*
G01*
X-6456570Y4258950D02*
G75*
G02*
X-6936828Y5656534I13543141J5435195D01*
G01*
X6617380Y5488387D02*
G75*
G02*
X6186631Y4258950I-13973890J4205758D01*
G01*
X4188258Y767985D02*
G75*
G02*
X4025720Y561630I-11544768J8926160D01*
G01*
X-4295660Y561629D02*
G75*
G02*
X-4458198Y767984I11382231J9132516D01*
G01*
D12*
X8221186Y9694145D02*
G75*
G02*
X5951956Y9694145I-1134615J0D01*
G01*
X5951956Y9694145D02*
G75*
G02*
X8221186Y9694145I1134615J0D01*
G01*
X-6221895Y9694145D02*
G75*
G02*
X-8491125Y9694145I-1134615J0D01*
G01*
X-8491125Y9694145D02*
G75*
G02*
X-6221895Y9694145I1134615J0D01*
G01*
X999645Y-2813930D02*
G75*
G02*
X-1269585Y-2813930I-1134615J0D01*
G01*
X-1269585Y-2813930D02*
G75*
G02*
X999645Y-2813930I1134615J0D01*
G01*
X2042280Y4220146D02*
X2042280Y1088146D01*
X1431030Y4831396D02*
G75*
G02*
X2042280Y4220146I0J-611250D01*
G01*
X-1700970Y4831396D02*
X1431030Y4831396D01*
X-2312220Y4220146D02*
G75*
G02*
X-1700970Y4831396I611250J0D01*
G01*
X-2312220Y1088146D02*
X-2312220Y4220146D01*
X2042280Y1088146D02*
G75*
G02*
X1431030Y476896I-611250J0D01*
G01*
X-1700970Y476896D02*
X1431030Y476896D01*
X-1700970Y476896D02*
G75*
G02*
X-2312220Y1088146I0J611250D01*
G01*
X-6792684Y5698036D02*
G75*
G02*
X-7311944Y8560406I13879255J3996109D01*
G01*
X-6352380Y10222419D02*
G75*
G02*
X6082441Y10222419I6217410J-13036349D01*
G01*
X7028777Y8515812D02*
G75*
G02*
X6471461Y5523558I-14398515J1133739D01*
G01*
X3908724Y655501D02*
G75*
G02*
X824594Y-2208465I-11265234J9038644D01*
G01*
X-1094534Y-2208465D02*
G75*
G02*
X-4178664Y655501I8181105J11902610D01*
G01*
%TD*%
M02*
