%TF.GenerationSoftware,KiCad,Pcbnew,8.0.3*%
%TF.CreationDate,2024-09-22T18:07:20+10:00*%
%TF.ProjectId,ChatterBox,43686174-7465-4724-926f-782e6b696361,rev?*%
%TF.SameCoordinates,Original*%
%TF.FileFunction,Profile,NP*%
%FSLAX46Y46*%
G04 Gerber Fmt 4.6, Leading zero omitted, Abs format (unit mm)*
G04 Created by KiCad (PCBNEW 8.0.3) date 2024-09-22 18:07:20*
%MOMM*%
%LPD*%
G01*
G04 APERTURE LIST*
%TA.AperFunction,Profile*%
%ADD10C,0.300000*%
%TD*%
G04 APERTURE END LIST*
D10*
X15000000Y27000000D02*
X-15000001Y27000000D01*
X18714286Y-11510438D02*
G75*
G02*
X19999999Y-14848214I-3714286J-3347262D01*
G01*
X20000000Y-3142290D02*
X20000000Y22000000D01*
X18714286Y-11510438D02*
G75*
G02*
X18714286Y-6489563I2785714J2510438D01*
G01*
X20000000Y-20000000D02*
G75*
G02*
X-20000000Y-20000000I-20000000J0D01*
G01*
X-18714286Y-6489563D02*
G75*
G02*
X-20000000Y-3142313I3714287J3347250D01*
G01*
X-20000000Y-14857689D02*
G75*
G02*
X-18714286Y-11510438I5000001J1D01*
G01*
X20000000Y-3142290D02*
G75*
G02*
X18714288Y-6489565I-5000070J0D01*
G01*
X-20000000Y22000000D02*
X-20000000Y-3142313D01*
X15000000Y27000000D02*
G75*
G02*
X20000000Y22000000I0J-5000000D01*
G01*
X20000000Y-20000000D02*
X20000000Y-14848214D01*
X-20000000Y22000000D02*
G75*
G02*
X-15000001Y27000000I5000000J0D01*
G01*
X-20000000Y-14857689D02*
X-20000000Y-20000000D01*
X-18714286Y-6489563D02*
G75*
G02*
X-18714286Y-11510438I-2785713J-2510437D01*
G01*
%TO.C,SW1*%
X-7549835Y-27000000D02*
X7549830Y-27000000D01*
X-3000001Y-7000000D02*
X3000000Y-7000000D01*
X3000000Y-33000000D02*
X-3000001Y-33000000D01*
X7549830Y-13000000D02*
X-7549834Y-13000000D01*
X-8236183Y-11272727D02*
G75*
G02*
X-4615385Y-8923077I8236181J-8727271D01*
G01*
X-8236183Y-28727273D02*
G75*
G02*
X-7549835Y-27000000I686349J727273D01*
G01*
X-7549834Y-13000000D02*
G75*
G02*
X-8236183Y-11272727I0J1000000D01*
G01*
X-4615385Y-31076923D02*
G75*
G02*
X-8236183Y-28727273I4615383J11076921D01*
G01*
X-4615385Y-31076923D02*
G75*
G02*
X-4000000Y-32000000I-384617J-923078D01*
G01*
X-4000000Y-8000000D02*
G75*
G02*
X-4615385Y-8923077I-1000002J1D01*
G01*
X-4000000Y-8000000D02*
G75*
G02*
X-3000001Y-7000000I999999J1D01*
G01*
X-3000001Y-33000000D02*
G75*
G02*
X-4000000Y-32000000I0J999999D01*
G01*
X3000000Y-7000000D02*
G75*
G02*
X4000000Y-8000000I0J-1000000D01*
G01*
X4000000Y-32000000D02*
G75*
G02*
X3000000Y-33000000I-1000000J0D01*
G01*
X4000000Y-32000000D02*
G75*
G02*
X4615385Y-31076923I1000000J0D01*
G01*
X4615385Y-8923077D02*
G75*
G02*
X4000000Y-8000000I384615J923077D01*
G01*
X4615385Y-8923077D02*
G75*
G02*
X8236183Y-11272727I-4615385J-11076923D01*
G01*
X7549830Y-27000000D02*
G75*
G02*
X8236181Y-28727271I0J-1000000D01*
G01*
X8236183Y-11272727D02*
G75*
G02*
X7549830Y-13000003I-686353J-727273D01*
G01*
X8236183Y-28727273D02*
G75*
G02*
X4615385Y-31076923I-8236183J8727273D01*
G01*
%TD*%
M02*
