%TF.GenerationSoftware,KiCad,Pcbnew,8.0.3*%
%TF.CreationDate,2024-09-22T18:07:19+10:00*%
%TF.ProjectId,ChatterBox,43686174-7465-4724-926f-782e6b696361,rev?*%
%TF.SameCoordinates,Original*%
%TF.FileFunction,Copper,L1,Top*%
%TF.FilePolarity,Positive*%
%FSLAX46Y46*%
G04 Gerber Fmt 4.6, Leading zero omitted, Abs format (unit mm)*
G04 Created by KiCad (PCBNEW 8.0.3) date 2024-09-22 18:07:19*
%MOMM*%
%LPD*%
G01*
G04 APERTURE LIST*
G04 Aperture macros list*
%AMHorizOval*
0 Thick line with rounded ends*
0 $1 width*
0 $2 $3 position (X,Y) of the first rounded end (center of the circle)*
0 $4 $5 position (X,Y) of the second rounded end (center of the circle)*
0 Add line between two ends*
20,1,$1,$2,$3,$4,$5,0*
0 Add two circle primitives to create the rounded ends*
1,1,$1,$2,$3*
1,1,$1,$4,$5*%
G04 Aperture macros list end*
%TA.AperFunction,ComponentPad*%
%ADD10C,1.800000*%
%TD*%
%TA.AperFunction,ComponentPad*%
%ADD11C,2.000000*%
%TD*%
%TA.AperFunction,ComponentPad*%
%ADD12R,2.000000X2.000000*%
%TD*%
%TA.AperFunction,ComponentPad*%
%ADD13O,2.400000X1.600000*%
%TD*%
%TA.AperFunction,ComponentPad*%
%ADD14HorizOval,2.000000X0.299385X-0.450610X-0.299385X0.450610X0*%
%TD*%
%TA.AperFunction,ComponentPad*%
%ADD15HorizOval,2.300000X0.893481X-0.239408X-0.893481X0.239408X0*%
%TD*%
%TA.AperFunction,ComponentPad*%
%ADD16C,2.300000*%
%TD*%
%TA.AperFunction,ViaPad*%
%ADD17C,0.800000*%
%TD*%
%TA.AperFunction,Conductor*%
%ADD18C,0.200000*%
%TD*%
%TA.AperFunction,Conductor*%
%ADD19C,0.500000*%
%TD*%
G04 APERTURE END LIST*
D10*
%TO.P,J1,1,Pin_1*%
%TO.N,3V*%
X-13230000Y-24130000D03*
%TO.P,J1,2,Pin_2*%
%TO.N,5V*%
X-15770000Y-24130000D03*
%TO.P,J1,3,Pin_3*%
%TO.N,unconnected-(J1-Pin_3-Pad3)*%
X-13230000Y-21590000D03*
%TO.P,J1,4,Pin_4*%
%TO.N,5V*%
X-15770000Y-21590000D03*
%TO.P,J1,5,Pin_5*%
%TO.N,unconnected-(J1-Pin_5-Pad5)*%
X-13230000Y-19050000D03*
%TO.P,J1,6,Pin_6*%
%TO.N,GND*%
X-15770000Y-19050000D03*
%TO.P,J1,7,Pin_7*%
%TO.N,unconnected-(J1-Pin_7-Pad7)*%
X-13230000Y-16510000D03*
%TO.P,J1,8,Pin_8*%
%TO.N,unconnected-(J1-Pin_8-Pad8)*%
X-15770000Y-16510000D03*
%TO.P,J1,9,Pin_9*%
%TO.N,unconnected-(J1-Pin_9-Pad9)*%
X-13230000Y-13970000D03*
%TO.P,J1,10,Pin_10*%
%TO.N,unconnected-(J1-Pin_10-Pad10)*%
X-15770000Y-13970000D03*
%TO.P,J1,11,Pin_11*%
%TO.N,GPIO22*%
X-13230000Y-11430000D03*
%TO.P,J1,12,Pin_12*%
%TO.N,BCLK*%
X-15770000Y-11430000D03*
%TO.P,J1,13,Pin_13*%
%TO.N,GPIO27*%
X-13230000Y-8890000D03*
%TO.P,J1,14,Pin_14*%
%TO.N,unconnected-(J1-Pin_14-Pad14)*%
X-15770000Y-8890000D03*
%TO.P,J1,15,Pin_15*%
%TO.N,GPIO17*%
X-13230000Y-6350000D03*
%TO.P,J1,16,Pin_16*%
%TO.N,unconnected-(J1-Pin_16-Pad16)*%
X-15770000Y-6350000D03*
%TO.P,J1,17,Pin_17*%
%TO.N,unconnected-(J1-Pin_17-Pad17)*%
X-13230000Y-3810000D03*
%TO.P,J1,18,Pin_18*%
%TO.N,unconnected-(J1-Pin_18-Pad18)*%
X-15770000Y-3810000D03*
%TO.P,J1,19,Pin_19*%
%TO.N,unconnected-(J1-Pin_19-Pad19)*%
X-13230000Y-1270000D03*
%TO.P,J1,20,Pin_20*%
%TO.N,GND*%
X-15770000Y-1270000D03*
%TO.P,J1,21,Pin_21*%
%TO.N,unconnected-(J1-Pin_21-Pad21)*%
X-13230000Y1270000D03*
%TO.P,J1,22,Pin_22*%
%TO.N,unconnected-(J1-Pin_22-Pad22)*%
X-15770000Y1270000D03*
%TO.P,J1,23,Pin_23*%
%TO.N,unconnected-(J1-Pin_23-Pad23)*%
X-13230000Y3810000D03*
%TO.P,J1,24,Pin_24*%
%TO.N,unconnected-(J1-Pin_24-Pad24)*%
X-15770000Y3810000D03*
%TO.P,J1,25,Pin_25*%
%TO.N,unconnected-(J1-Pin_25-Pad25)*%
X-13230000Y6350000D03*
%TO.P,J1,26,Pin_26*%
%TO.N,unconnected-(J1-Pin_26-Pad26)*%
X-15770000Y6350000D03*
%TO.P,J1,27,Pin_27*%
%TO.N,unconnected-(J1-Pin_27-Pad27)*%
X-13230000Y8890000D03*
%TO.P,J1,28,Pin_28*%
%TO.N,unconnected-(J1-Pin_28-Pad28)*%
X-15770000Y8890000D03*
%TO.P,J1,29,Pin_29*%
%TO.N,unconnected-(J1-Pin_29-Pad29)*%
X-13230000Y11430000D03*
%TO.P,J1,30,Pin_30*%
%TO.N,unconnected-(J1-Pin_30-Pad30)*%
X-15770000Y11430000D03*
%TO.P,J1,31,Pin_31*%
%TO.N,unconnected-(J1-Pin_31-Pad31)*%
X-13230000Y13970000D03*
%TO.P,J1,32,Pin_32*%
%TO.N,unconnected-(J1-Pin_32-Pad32)*%
X-15770000Y13970000D03*
%TO.P,J1,33,Pin_33*%
%TO.N,unconnected-(J1-Pin_33-Pad33)*%
X-13230000Y16510000D03*
%TO.P,J1,34,Pin_34*%
%TO.N,unconnected-(J1-Pin_34-Pad34)*%
X-15770000Y16510000D03*
%TO.P,J1,35,Pin_35*%
%TO.N,LRC*%
X-13230000Y19050000D03*
%TO.P,J1,36,Pin_36*%
%TO.N,unconnected-(J1-Pin_36-Pad36)*%
X-15770000Y19050000D03*
%TO.P,J1,37,Pin_37*%
%TO.N,PTT*%
X-13230000Y21590000D03*
%TO.P,J1,38,Pin_38*%
%TO.N,GPIO20*%
X-15770000Y21590000D03*
%TO.P,J1,39,Pin_39*%
%TO.N,GND*%
X-13230000Y24130000D03*
%TO.P,J1,40,Pin_40*%
%TO.N,GPIO21*%
X-15770000Y24130000D03*
%TD*%
D11*
%TO.P,R2,1*%
%TO.N,GPIO27*%
X5000000Y15175000D03*
%TO.P,R2,2*%
%TO.N,Net-(D2-A)*%
X5000000Y22795000D03*
%TD*%
%TO.P,R3,1*%
%TO.N,GPIO22*%
X15000000Y15175000D03*
%TO.P,R3,2*%
%TO.N,Net-(D3-A)*%
X15000000Y22795000D03*
%TD*%
D10*
%TO.P,J2,1,Pin_1*%
%TO.N,LRC*%
X-3015000Y-3620000D03*
%TO.P,J2,2,Pin_2*%
%TO.N,BCLK*%
X-3015000Y-1080000D03*
%TO.P,J2,3,Pin_3*%
%TO.N,GPIO21*%
X-3015000Y1460000D03*
%TO.P,J2,4,Pin_4*%
%TO.N,unconnected-(J2-Pin_4-Pad4)*%
X-3015000Y4000000D03*
%TO.P,J2,5,Pin_5*%
%TO.N,unconnected-(J2-Pin_5-Pad5)*%
X-3015000Y6540000D03*
%TO.P,J2,6,Pin_6*%
%TO.N,GND*%
X-3015000Y9080000D03*
%TO.P,J2,7,Pin_7*%
%TO.N,5V*%
X-3015000Y11620000D03*
%TD*%
D12*
%TO.P,D1,1,K*%
%TO.N,GND*%
X-10000000Y17725000D03*
D11*
%TO.P,D1,2,A*%
%TO.N,Net-(D1-A)*%
X-10000000Y20265000D03*
%TD*%
%TO.P,R1,1*%
%TO.N,GPIO17*%
X-5000000Y15175000D03*
%TO.P,R1,2*%
%TO.N,Net-(D1-A)*%
X-5000000Y22795000D03*
%TD*%
D12*
%TO.P,D3,1,K*%
%TO.N,GND*%
X10000000Y17725000D03*
D11*
%TO.P,D3,2,A*%
%TO.N,Net-(D3-A)*%
X10000000Y20265000D03*
%TD*%
D10*
%TO.P,J3,1,Pin_1*%
%TO.N,GND*%
X13810000Y6540000D03*
%TO.P,J3,2,Pin_2*%
X6190000Y6540000D03*
%TO.P,J3,3,Pin_3*%
%TO.N,3V*%
X13810000Y4000000D03*
%TO.P,J3,4,Pin_4*%
%TO.N,LRC*%
X6190000Y4000000D03*
%TO.P,J3,5,Pin_5*%
%TO.N,GPIO20*%
X13810000Y1460000D03*
%TO.P,J3,6,Pin_6*%
%TO.N,BCLK*%
X6190000Y1460000D03*
%TD*%
D12*
%TO.P,D2,1,K*%
%TO.N,GND*%
X0Y17725000D03*
D11*
%TO.P,D2,2,A*%
%TO.N,Net-(D2-A)*%
X0Y20265000D03*
%TD*%
D13*
%TO.P,SW1,*%
%TO.N,*%
X5150000Y-14850000D03*
D14*
%TO.P,SW1,1,1*%
%TO.N,PTT*%
X-4700000Y-24250000D03*
D15*
X-3361037Y-24860004D03*
D11*
%TO.P,SW1,2,2*%
%TO.N,GND*%
X0Y-25900000D03*
X2600000Y-25750000D03*
D16*
X3810000Y-22540000D03*
%TD*%
D17*
%TO.N,GND*%
X-6625000Y3875000D03*
X-5375000Y5125000D03*
X-1000000Y10750000D03*
X250000Y12000000D03*
%TO.N,5V*%
X1750000Y15000000D03*
X250000Y13500000D03*
%TD*%
D18*
%TO.N,GPIO21*%
X-14430000Y22790000D02*
X-15770000Y24130000D01*
X-6500000Y19750000D02*
X-9540000Y22790000D01*
X-9540000Y22790000D02*
X-14430000Y22790000D01*
X-6500000Y19750000D02*
X-6500000Y4945000D01*
X-6500000Y4945000D02*
X-3015000Y1460000D01*
D19*
%TO.N,5V*%
X250000Y13500000D02*
X1750000Y15000000D01*
D18*
%TO.N,BCLK*%
X-7085000Y-5150000D02*
X-13727057Y-5150000D01*
X-14500000Y-10160000D02*
X-15770000Y-11430000D01*
X-13727057Y-5150000D02*
X-14500000Y-5922943D01*
X-14500000Y-5922943D02*
X-14500000Y-10160000D01*
X-3015000Y-1080000D02*
X-7085000Y-5150000D01*
%TO.N,3V*%
X-12000000Y-22900000D02*
X-13230000Y-24130000D01*
X4955635Y-17000000D02*
X-8300610Y-17000000D01*
X15010000Y-6945635D02*
X4955635Y-17000000D01*
X-12000000Y-20699390D02*
X-12000000Y-22900000D01*
X15010000Y2800000D02*
X15010000Y-6945635D01*
X13810000Y4000000D02*
X15010000Y2800000D01*
X-8300610Y-17000000D02*
X-12000000Y-20699390D01*
%TO.N,Net-(D2-A)*%
X0Y20265000D02*
X2470000Y20265000D01*
X2470000Y20265000D02*
X5000000Y22795000D01*
%TO.N,Net-(D3-A)*%
X10000000Y20265000D02*
X12470000Y20265000D01*
X12470000Y20265000D02*
X15000000Y22795000D01*
%TO.N,GPIO22*%
X1000000Y5000000D02*
X1000000Y-5000000D01*
X15000000Y15175000D02*
X11175000Y15175000D01*
X1000000Y-5000000D02*
X-389424Y-6389424D01*
X11175000Y15175000D02*
X1000000Y5000000D01*
X-389424Y-6389424D02*
X-8189424Y-6389424D01*
X-8189424Y-6389424D02*
X-13230000Y-11430000D01*
%TO.N,GPIO17*%
X200000Y10750000D02*
X200000Y-4668628D01*
X200000Y-4668628D02*
X-698529Y-5567157D01*
X-4225000Y15175000D02*
X200000Y10750000D01*
X-698529Y-5567157D02*
X-12447157Y-5567157D01*
X-12447157Y-5567157D02*
X-13230000Y-6350000D01*
X-5000000Y15175000D02*
X-4225000Y15175000D01*
%TO.N,GPIO27*%
X-532843Y-5967157D02*
X-10307157Y-5967157D01*
X600000Y-4834314D02*
X-532843Y-5967157D01*
X5000000Y15175000D02*
X600000Y10775000D01*
X600000Y10775000D02*
X600000Y-4834314D01*
X-10307157Y-5967157D02*
X-13230000Y-8890000D01*
%TD*%
%TA.AperFunction,Conductor*%
%TO.N,GND*%
G36*
X15002703Y26499382D02*
G01*
X15386750Y26482614D01*
X15397526Y26481671D01*
X15775957Y26431849D01*
X15786610Y26429971D01*
X16159272Y26347354D01*
X16169721Y26344554D01*
X16533755Y26229775D01*
X16543921Y26226075D01*
X16896572Y26080002D01*
X16906376Y26075430D01*
X17244942Y25899183D01*
X17254310Y25893775D01*
X17576244Y25688681D01*
X17585105Y25682476D01*
X17887930Y25450110D01*
X17896217Y25443156D01*
X18177635Y25185284D01*
X18185284Y25177635D01*
X18443156Y24896217D01*
X18450110Y24887930D01*
X18682476Y24585105D01*
X18688681Y24576244D01*
X18893775Y24254310D01*
X18899183Y24244942D01*
X19075430Y23906376D01*
X19080002Y23896572D01*
X19226075Y23543921D01*
X19229775Y23533755D01*
X19344554Y23169721D01*
X19347354Y23159272D01*
X19429971Y22786610D01*
X19431849Y22775957D01*
X19481671Y22397526D01*
X19482614Y22386750D01*
X19499382Y22002702D01*
X19499500Y21997293D01*
X19499500Y-3139765D01*
X19499397Y-3144816D01*
X19484772Y-3503523D01*
X19483950Y-3513593D01*
X19440479Y-3867429D01*
X19438839Y-3877397D01*
X19366714Y-4226492D01*
X19364269Y-4236295D01*
X19263958Y-4578382D01*
X19260723Y-4587952D01*
X19132900Y-4920732D01*
X19128896Y-4930008D01*
X18974405Y-5251280D01*
X18969660Y-5260198D01*
X18789535Y-5567819D01*
X18784079Y-5576322D01*
X18579505Y-5868265D01*
X18573375Y-5876296D01*
X18344127Y-6152526D01*
X18340824Y-6156345D01*
X18293396Y-6208976D01*
X18293176Y-6209252D01*
X18211992Y-6299396D01*
X17978559Y-6611757D01*
X17978551Y-6611769D01*
X17774691Y-6944194D01*
X17774689Y-6944197D01*
X17602121Y-7293895D01*
X17602111Y-7293919D01*
X17462291Y-7657927D01*
X17462282Y-7657953D01*
X17356370Y-8033259D01*
X17285265Y-8416681D01*
X17269761Y-8585316D01*
X17249561Y-8805016D01*
X17249561Y-9194985D01*
X17263473Y-9346300D01*
X17285265Y-9583319D01*
X17356370Y-9966741D01*
X17462283Y-10342047D01*
X17462292Y-10342073D01*
X17602114Y-10706088D01*
X17602118Y-10706099D01*
X17774689Y-11055799D01*
X17774699Y-11055818D01*
X17978551Y-11388231D01*
X17978551Y-11388232D01*
X18212001Y-11700614D01*
X18246757Y-11739205D01*
X18291874Y-11789301D01*
X18292922Y-11790464D01*
X18293143Y-11790744D01*
X18340766Y-11843588D01*
X18344064Y-11847400D01*
X18572809Y-12122962D01*
X18578925Y-12130971D01*
X18783065Y-12422095D01*
X18788510Y-12430574D01*
X18968330Y-12737299D01*
X18973069Y-12746191D01*
X19127401Y-13066525D01*
X19131402Y-13075774D01*
X19259207Y-13407562D01*
X19262444Y-13417104D01*
X19362889Y-13758179D01*
X19365341Y-13767953D01*
X19437761Y-14116064D01*
X19439411Y-14126005D01*
X19483327Y-14478848D01*
X19484164Y-14488889D01*
X19492759Y-14690802D01*
X19498818Y-14833153D01*
X19499388Y-14846531D01*
X19499500Y-14851805D01*
X19499500Y-19998599D01*
X19499469Y-20001381D01*
X19479927Y-20872067D01*
X19479677Y-20877626D01*
X19421188Y-21745147D01*
X19420689Y-21750690D01*
X19323336Y-22614718D01*
X19322589Y-22620232D01*
X19186572Y-23479009D01*
X19185579Y-23484484D01*
X19011161Y-24336337D01*
X19009922Y-24341762D01*
X18797475Y-25184878D01*
X18795995Y-25190242D01*
X18545932Y-26022995D01*
X18544212Y-26028288D01*
X18257022Y-26849026D01*
X18255067Y-26854235D01*
X17931368Y-27661206D01*
X17929181Y-27666323D01*
X17569598Y-28457970D01*
X17567184Y-28462984D01*
X17172434Y-29237725D01*
X17169797Y-29242625D01*
X16740696Y-29998856D01*
X16737842Y-30003633D01*
X16275236Y-30739867D01*
X16272170Y-30744511D01*
X15777010Y-31459232D01*
X15773739Y-31463734D01*
X15247017Y-32155513D01*
X15243548Y-32159864D01*
X14686297Y-32827343D01*
X14682636Y-32831533D01*
X14096009Y-33473328D01*
X14092163Y-33477350D01*
X13477350Y-34092163D01*
X13473328Y-34096009D01*
X12831533Y-34682636D01*
X12827343Y-34686297D01*
X12159864Y-35243548D01*
X12155513Y-35247017D01*
X11463734Y-35773739D01*
X11459232Y-35777010D01*
X10744511Y-36272170D01*
X10739867Y-36275236D01*
X10003633Y-36737842D01*
X9998856Y-36740696D01*
X9242625Y-37169797D01*
X9237725Y-37172434D01*
X8462984Y-37567184D01*
X8457970Y-37569598D01*
X7666323Y-37929181D01*
X7661206Y-37931368D01*
X6854235Y-38255067D01*
X6849026Y-38257022D01*
X6028288Y-38544212D01*
X6022995Y-38545932D01*
X5190242Y-38795995D01*
X5184878Y-38797475D01*
X4341762Y-39009922D01*
X4336337Y-39011161D01*
X3484484Y-39185579D01*
X3479009Y-39186572D01*
X2620232Y-39322589D01*
X2614718Y-39323336D01*
X1750690Y-39420689D01*
X1745147Y-39421188D01*
X877626Y-39479677D01*
X872067Y-39479927D01*
X2782Y-39499437D01*
X-2782Y-39499437D01*
X-872067Y-39479927D01*
X-877626Y-39479677D01*
X-1745147Y-39421188D01*
X-1750690Y-39420689D01*
X-2614718Y-39323336D01*
X-2620232Y-39322589D01*
X-3479009Y-39186572D01*
X-3484484Y-39185579D01*
X-4336337Y-39011161D01*
X-4341762Y-39009922D01*
X-5184878Y-38797475D01*
X-5190242Y-38795995D01*
X-6022995Y-38545932D01*
X-6028288Y-38544212D01*
X-6849026Y-38257022D01*
X-6854235Y-38255067D01*
X-7661206Y-37931368D01*
X-7666323Y-37929181D01*
X-8457970Y-37569598D01*
X-8462984Y-37567184D01*
X-9237725Y-37172434D01*
X-9242625Y-37169797D01*
X-9998856Y-36740696D01*
X-10003633Y-36737842D01*
X-10739867Y-36275236D01*
X-10744511Y-36272170D01*
X-11459232Y-35777010D01*
X-11463734Y-35773739D01*
X-12155513Y-35247017D01*
X-12159864Y-35243548D01*
X-12827343Y-34686297D01*
X-12831533Y-34682636D01*
X-13473328Y-34096009D01*
X-13477350Y-34092163D01*
X-14092163Y-33477350D01*
X-14096009Y-33473328D01*
X-14682636Y-32831533D01*
X-14686297Y-32827343D01*
X-15243548Y-32159864D01*
X-15247017Y-32155513D01*
X-15773739Y-31463734D01*
X-15777010Y-31459232D01*
X-16272170Y-30744511D01*
X-16275236Y-30739867D01*
X-16737842Y-30003633D01*
X-16740696Y-29998856D01*
X-17169797Y-29242625D01*
X-17172434Y-29237725D01*
X-17567184Y-28462984D01*
X-17569598Y-28457970D01*
X-17781411Y-27991648D01*
X-9054518Y-27991648D01*
X-9039070Y-28215216D01*
X-8990590Y-28434010D01*
X-8910153Y-28643176D01*
X-8799542Y-28838077D01*
X-8661211Y-29014388D01*
X-8579700Y-29091273D01*
X-8579701Y-29091273D01*
X-8531779Y-29136498D01*
X-8531775Y-29136499D01*
X-8525197Y-29142708D01*
X-8525134Y-29142759D01*
X-8344773Y-29312944D01*
X-7852685Y-29731470D01*
X-7339640Y-30124024D01*
X-6807006Y-30489559D01*
X-6256205Y-30827099D01*
X-5688708Y-31135743D01*
X-5106028Y-31414668D01*
X-4877165Y-31510048D01*
X-4877092Y-31510086D01*
X-4868711Y-31513577D01*
X-4868709Y-31513580D01*
X-4814615Y-31536118D01*
X-4801532Y-31542496D01*
X-4718491Y-31589208D01*
X-4694986Y-31606345D01*
X-4630510Y-31666121D01*
X-4611645Y-31688266D01*
X-4562878Y-31761418D01*
X-4549695Y-31787342D01*
X-4519312Y-31869860D01*
X-4512536Y-31898136D01*
X-4501355Y-31992770D01*
X-4500500Y-32007301D01*
X-4500500Y-32107317D01*
X-4469955Y-32319768D01*
X-4409485Y-32525710D01*
X-4409483Y-32525713D01*
X-4409483Y-32525715D01*
X-4320328Y-32720938D01*
X-4320325Y-32720942D01*
X-4320322Y-32720950D01*
X-4204281Y-32901513D01*
X-4063725Y-33063724D01*
X-3901514Y-33204280D01*
X-3720951Y-33320321D01*
X-3720943Y-33320324D01*
X-3720939Y-33320327D01*
X-3525716Y-33409482D01*
X-3525714Y-33409482D01*
X-3525711Y-33409484D01*
X-3319770Y-33469954D01*
X-3319766Y-33469954D01*
X-3319765Y-33469955D01*
X-3277852Y-33475980D01*
X-3107319Y-33500500D01*
X-3107318Y-33500500D01*
X3107317Y-33500500D01*
X3107318Y-33500500D01*
X3277851Y-33475980D01*
X3319764Y-33469955D01*
X3319765Y-33469954D01*
X3319769Y-33469954D01*
X3525710Y-33409484D01*
X3525713Y-33409482D01*
X3525715Y-33409482D01*
X3720938Y-33320327D01*
X3720944Y-33320323D01*
X3720950Y-33320321D01*
X3901513Y-33204281D01*
X4063724Y-33063724D01*
X4204281Y-32901513D01*
X4320321Y-32720950D01*
X4320323Y-32720944D01*
X4320327Y-32720938D01*
X4409482Y-32525715D01*
X4409482Y-32525713D01*
X4409484Y-32525710D01*
X4469954Y-32319769D01*
X4469956Y-32319760D01*
X4475980Y-32277851D01*
X4500500Y-32107318D01*
X4500500Y-32007301D01*
X4501356Y-31992753D01*
X4512533Y-31898138D01*
X4519313Y-31869850D01*
X4549692Y-31787346D01*
X4562874Y-31761421D01*
X4611647Y-31688262D01*
X4630504Y-31666125D01*
X4694991Y-31606338D01*
X4718483Y-31589211D01*
X4801544Y-31542489D01*
X4814608Y-31536121D01*
X4868708Y-31513580D01*
X4868709Y-31513578D01*
X4876900Y-31510166D01*
X4876971Y-31510129D01*
X5106028Y-31414668D01*
X5688708Y-31135743D01*
X6256205Y-30827099D01*
X6807006Y-30489559D01*
X7339640Y-30124024D01*
X7852685Y-29731470D01*
X8344774Y-29312944D01*
X8525143Y-29142750D01*
X8525214Y-29142693D01*
X8531778Y-29136497D01*
X8531780Y-29136497D01*
X8579702Y-29091272D01*
X8579701Y-29091271D01*
X8589042Y-29082455D01*
X8661210Y-29014385D01*
X8799540Y-28838074D01*
X8910150Y-28643173D01*
X8990587Y-28434006D01*
X9039067Y-28215212D01*
X9054514Y-27991645D01*
X9036585Y-27768263D01*
X9011613Y-27661206D01*
X8985680Y-27550025D01*
X8985678Y-27550018D01*
X8938754Y-27431930D01*
X8902924Y-27341760D01*
X8790156Y-27148100D01*
X8790149Y-27148091D01*
X8790147Y-27148088D01*
X8649879Y-26973338D01*
X8649877Y-26973335D01*
X8485197Y-26821343D01*
X8485193Y-26821340D01*
X8299771Y-26695495D01*
X8097710Y-26598582D01*
X7883498Y-26532755D01*
X7883495Y-26532754D01*
X7709453Y-26506615D01*
X7661881Y-26499471D01*
X7661880Y-26499471D01*
X7549830Y-26499500D01*
X4098995Y-26499500D01*
X4031956Y-26479815D01*
X3986201Y-26427011D01*
X3976257Y-26357853D01*
X3985439Y-26325691D01*
X4023586Y-26238720D01*
X4023587Y-26238718D01*
X4084612Y-25997738D01*
X4084614Y-25997729D01*
X4105141Y-25750005D01*
X4105141Y-25749994D01*
X4084614Y-25502270D01*
X4084612Y-25502261D01*
X4023587Y-25261282D01*
X3923731Y-25033630D01*
X3823434Y-24880116D01*
X3164611Y-25538938D01*
X3159111Y-25518409D01*
X3080119Y-25381592D01*
X2968408Y-25269881D01*
X2831591Y-25190889D01*
X2811060Y-25185387D01*
X3470057Y-24526390D01*
X3470056Y-24526389D01*
X3423229Y-24489943D01*
X3204614Y-24371635D01*
X3204603Y-24371630D01*
X2969493Y-24290916D01*
X2724293Y-24250000D01*
X2475707Y-24250000D01*
X2230506Y-24290916D01*
X1995396Y-24371630D01*
X1995390Y-24371632D01*
X1776761Y-24489949D01*
X1729942Y-24526388D01*
X1729942Y-24526390D01*
X2388940Y-25185387D01*
X2368409Y-25190889D01*
X2231592Y-25269881D01*
X2119881Y-25381592D01*
X2040889Y-25518409D01*
X2035387Y-25538940D01*
X1376564Y-24880116D01*
X1376563Y-24880116D01*
X1316433Y-24972152D01*
X1263287Y-25017509D01*
X1230847Y-25022703D01*
X564612Y-25688939D01*
X559111Y-25668409D01*
X480119Y-25531592D01*
X368408Y-25419881D01*
X231591Y-25340889D01*
X211059Y-25335387D01*
X870057Y-24676389D01*
X823229Y-24639943D01*
X604614Y-24521635D01*
X604603Y-24521630D01*
X369493Y-24440916D01*
X124293Y-24400000D01*
X-124293Y-24400000D01*
X-369493Y-24440916D01*
X-604603Y-24521630D01*
X-604614Y-24521635D01*
X-742747Y-24596388D01*
X-811075Y-24610983D01*
X-876447Y-24586320D01*
X-917528Y-24531771D01*
X-973231Y-24386657D01*
X-973234Y-24386652D01*
X-1103127Y-24161670D01*
X-1103132Y-24161663D01*
X-1266624Y-23959768D01*
X-1459685Y-23785935D01*
X-1459690Y-23785930D01*
X-1677566Y-23644441D01*
X-1914905Y-23538770D01*
X-1914904Y-23538770D01*
X-3641164Y-23076219D01*
X-3700824Y-23039854D01*
X-3712352Y-23025065D01*
X-3814936Y-22870666D01*
X-3974805Y-22696810D01*
X-3974809Y-22696806D01*
X-4159898Y-22550107D01*
X-4159899Y-22550106D01*
X-4159901Y-22550105D01*
X-4365668Y-22434162D01*
X-4587039Y-22351835D01*
X-4587039Y-22351834D01*
X-4587040Y-22351834D01*
X-4818561Y-22305152D01*
X-5054534Y-22295261D01*
X-5054546Y-22295261D01*
X-5289158Y-22322406D01*
X-5516639Y-22385920D01*
X-5731386Y-22484239D01*
X-5731388Y-22484240D01*
X-5815313Y-22540000D01*
X-5928111Y-22614943D01*
X-6101965Y-22774810D01*
X-6248670Y-22959906D01*
X-6364613Y-23165673D01*
X-6446940Y-23387044D01*
X-6493623Y-23618568D01*
X-6503514Y-23854545D01*
X-6476368Y-24089164D01*
X-6412853Y-24316647D01*
X-6314534Y-24531394D01*
X-5585061Y-25629337D01*
X-5425194Y-25803191D01*
X-5282543Y-25916252D01*
X-5276614Y-25921262D01*
X-5262386Y-25934075D01*
X-5254399Y-25939261D01*
X-5244910Y-25946080D01*
X-5240098Y-25949895D01*
X-5227804Y-25956821D01*
X-5221200Y-25960820D01*
X-5044505Y-26075569D01*
X-4807170Y-26181236D01*
X-4529172Y-26255725D01*
X-4469513Y-26292090D01*
X-4438984Y-26354937D01*
X-4447279Y-26424313D01*
X-4491764Y-26478191D01*
X-4558316Y-26499465D01*
X-4561267Y-26499500D01*
X-7549836Y-26499500D01*
X-7661886Y-26499471D01*
X-7661887Y-26499471D01*
X-7883508Y-26532755D01*
X-8097713Y-26598582D01*
X-8097721Y-26598585D01*
X-8299771Y-26695493D01*
X-8299775Y-26695495D01*
X-8299776Y-26695496D01*
X-8485203Y-26821345D01*
X-8649883Y-26973337D01*
X-8729851Y-27072965D01*
X-8790161Y-27148100D01*
X-8790162Y-27148102D01*
X-8902929Y-27341763D01*
X-8966005Y-27500500D01*
X-8985683Y-27550021D01*
X-8985685Y-27550028D01*
X-9033690Y-27755835D01*
X-9036590Y-27768266D01*
X-9054518Y-27991648D01*
X-17781411Y-27991648D01*
X-17929181Y-27666323D01*
X-17931368Y-27661206D01*
X-18255067Y-26854235D01*
X-18257022Y-26849026D01*
X-18544212Y-26028288D01*
X-18545932Y-26022995D01*
X-18795995Y-25190242D01*
X-18797475Y-25184878D01*
X-19009922Y-24341762D01*
X-19011161Y-24336337D01*
X-19185579Y-23484484D01*
X-19186572Y-23479009D01*
X-19322589Y-22620232D01*
X-19323336Y-22614718D01*
X-19420689Y-21750690D01*
X-19421188Y-21745147D01*
X-19479677Y-20877626D01*
X-19479927Y-20872067D01*
X-19499469Y-20001381D01*
X-19499500Y-19998599D01*
X-19499500Y-14860213D01*
X-19499397Y-14855162D01*
X-19484772Y-14496457D01*
X-19483950Y-14486387D01*
X-19440479Y-14132554D01*
X-19438839Y-14122586D01*
X-19366714Y-13773493D01*
X-19364269Y-13763690D01*
X-19263955Y-13421597D01*
X-19260720Y-13412027D01*
X-19132896Y-13079249D01*
X-19128901Y-13069993D01*
X-18974406Y-12748715D01*
X-18969660Y-12739796D01*
X-18789532Y-12432175D01*
X-18784076Y-12423672D01*
X-18579506Y-12131738D01*
X-18573377Y-12123708D01*
X-18344096Y-11847438D01*
X-18340790Y-11843616D01*
X-18293135Y-11790736D01*
X-18292902Y-11790440D01*
X-18287810Y-11784787D01*
X-18212000Y-11700611D01*
X-18211998Y-11700609D01*
X-18094024Y-11542747D01*
X-17978555Y-11388235D01*
X-17878060Y-11224361D01*
X-17774700Y-11055817D01*
X-17774690Y-11055798D01*
X-17602119Y-10706098D01*
X-17602115Y-10706087D01*
X-17462293Y-10342073D01*
X-17462284Y-10342047D01*
X-17356371Y-9966741D01*
X-17285266Y-9583319D01*
X-17278998Y-9515145D01*
X-17253258Y-9450189D01*
X-17196487Y-9409461D01*
X-17126709Y-9405891D01*
X-17066077Y-9440613D01*
X-17041963Y-9476686D01*
X-17005924Y-9558849D01*
X-16878979Y-9753153D01*
X-16721784Y-9923913D01*
X-16544181Y-10062146D01*
X-16503368Y-10118857D01*
X-16499693Y-10188630D01*
X-16534324Y-10249313D01*
X-16544176Y-10257850D01*
X-16721784Y-10396087D01*
X-16878979Y-10566847D01*
X-16878980Y-10566849D01*
X-16878983Y-10566852D01*
X-17005924Y-10761151D01*
X-17099157Y-10973699D01*
X-17156133Y-11198691D01*
X-17156135Y-11198702D01*
X-17175300Y-11429993D01*
X-17175300Y-11430006D01*
X-17157556Y-11644144D01*
X-17156134Y-11661305D01*
X-17099157Y-11886300D01*
X-17005924Y-12098849D01*
X-16878979Y-12293153D01*
X-16721784Y-12463913D01*
X-16544181Y-12602146D01*
X-16503368Y-12658857D01*
X-16499693Y-12728630D01*
X-16534324Y-12789313D01*
X-16544176Y-12797850D01*
X-16721784Y-12936087D01*
X-16878979Y-13106847D01*
X-16878980Y-13106849D01*
X-16878983Y-13106852D01*
X-17005924Y-13301151D01*
X-17099157Y-13513699D01*
X-17156133Y-13738691D01*
X-17156135Y-13738702D01*
X-17175300Y-13969993D01*
X-17175300Y-13970006D01*
X-17156327Y-14198976D01*
X-17156134Y-14201305D01*
X-17099157Y-14426300D01*
X-17005924Y-14638849D01*
X-16878979Y-14833153D01*
X-16721784Y-15003913D01*
X-16544181Y-15142146D01*
X-16503368Y-15198857D01*
X-16499693Y-15268630D01*
X-16534324Y-15329313D01*
X-16544176Y-15337850D01*
X-16721784Y-15476087D01*
X-16878979Y-15646847D01*
X-16878980Y-15646849D01*
X-16878983Y-15646852D01*
X-17005924Y-15841151D01*
X-17099157Y-16053699D01*
X-17156133Y-16278691D01*
X-17156135Y-16278702D01*
X-17175300Y-16509993D01*
X-17175300Y-16510006D01*
X-17156135Y-16741297D01*
X-17156134Y-16741305D01*
X-17099157Y-16966300D01*
X-17005924Y-17178849D01*
X-16878979Y-17373153D01*
X-16721784Y-17543913D01*
X-16543772Y-17682464D01*
X-16502961Y-17739172D01*
X-16499286Y-17808945D01*
X-16533917Y-17869629D01*
X-16543773Y-17878169D01*
X-16568797Y-17897646D01*
X-16568797Y-17897647D01*
X-15816447Y-18650000D01*
X-15822661Y-18650000D01*
X-15924394Y-18677259D01*
X-16015606Y-18729920D01*
X-16090080Y-18804394D01*
X-16142741Y-18895606D01*
X-16170000Y-18997339D01*
X-16170000Y-19003551D01*
X-16921186Y-18252365D01*
X-17005484Y-18381393D01*
X-17098682Y-18593864D01*
X-17155638Y-18818781D01*
X-17174798Y-19049994D01*
X-17174798Y-19050005D01*
X-17155638Y-19281218D01*
X-17098682Y-19506135D01*
X-17005482Y-19718611D01*
X-16921186Y-19847633D01*
X-16170000Y-19096447D01*
X-16170000Y-19102661D01*
X-16142741Y-19204394D01*
X-16090080Y-19295606D01*
X-16015606Y-19370080D01*
X-15924394Y-19422741D01*
X-15822661Y-19450000D01*
X-15816448Y-19450000D01*
X-16568798Y-20202350D01*
X-16568797Y-20202352D01*
X-16543772Y-20221831D01*
X-16502960Y-20278541D01*
X-16499287Y-20348314D01*
X-16533919Y-20408997D01*
X-16543772Y-20417535D01*
X-16721784Y-20556087D01*
X-16878979Y-20726847D01*
X-16878980Y-20726849D01*
X-16878983Y-20726852D01*
X-17005924Y-20921151D01*
X-17099157Y-21133699D01*
X-17156133Y-21358691D01*
X-17156135Y-21358702D01*
X-17175300Y-21589993D01*
X-17175300Y-21590006D01*
X-17156340Y-21818822D01*
X-17156134Y-21821305D01*
X-17099157Y-22046300D01*
X-17005924Y-22258849D01*
X-16878979Y-22453153D01*
X-16721784Y-22623913D01*
X-16544181Y-22762146D01*
X-16503368Y-22818857D01*
X-16499693Y-22888630D01*
X-16534324Y-22949313D01*
X-16544176Y-22957850D01*
X-16721784Y-23096087D01*
X-16878979Y-23266847D01*
X-16878980Y-23266849D01*
X-16878983Y-23266852D01*
X-17005924Y-23461151D01*
X-17099157Y-23673699D01*
X-17156133Y-23898691D01*
X-17156135Y-23898702D01*
X-17175300Y-24129993D01*
X-17175300Y-24130006D01*
X-17156135Y-24361297D01*
X-17156134Y-24361305D01*
X-17099157Y-24586300D01*
X-17005924Y-24798849D01*
X-16878979Y-24993153D01*
X-16721784Y-25163913D01*
X-16538626Y-25306470D01*
X-16334503Y-25416936D01*
X-16114981Y-25492298D01*
X-15886049Y-25530500D01*
X-15886048Y-25530500D01*
X-15653952Y-25530500D01*
X-15653951Y-25530500D01*
X-15425019Y-25492298D01*
X-15425017Y-25492297D01*
X-15425015Y-25492297D01*
X-15319487Y-25456068D01*
X-15205497Y-25416936D01*
X-15001374Y-25306470D01*
X-15001371Y-25306468D01*
X-15001365Y-25306464D01*
X-14818222Y-25163918D01*
X-14818219Y-25163915D01*
X-14818216Y-25163913D01*
X-14661021Y-24993153D01*
X-14661019Y-24993151D01*
X-14661016Y-24993147D01*
X-14603809Y-24905583D01*
X-14550663Y-24860226D01*
X-14481432Y-24850802D01*
X-14418096Y-24880304D01*
X-14396192Y-24905581D01*
X-14338979Y-24993153D01*
X-14181784Y-25163913D01*
X-13998626Y-25306470D01*
X-13794503Y-25416936D01*
X-13574981Y-25492298D01*
X-13346049Y-25530500D01*
X-13346048Y-25530500D01*
X-13113952Y-25530500D01*
X-13113951Y-25530500D01*
X-12885019Y-25492298D01*
X-12885017Y-25492297D01*
X-12885015Y-25492297D01*
X-12779487Y-25456068D01*
X-12665497Y-25416936D01*
X-12461374Y-25306470D01*
X-12461371Y-25306468D01*
X-12461365Y-25306464D01*
X-12278222Y-25163918D01*
X-12278219Y-25163915D01*
X-12278216Y-25163913D01*
X-12121021Y-24993153D01*
X-12121019Y-24993151D01*
X-12121016Y-24993147D01*
X-11994075Y-24798848D01*
X-11900842Y-24586300D01*
X-11843866Y-24361308D01*
X-11843864Y-24361297D01*
X-11824700Y-24130006D01*
X-11824700Y-24129993D01*
X-11843864Y-23898702D01*
X-11843866Y-23898691D01*
X-11888320Y-23723151D01*
X-11885695Y-23653331D01*
X-11855795Y-23605030D01*
X-11711915Y-23461151D01*
X-11519480Y-23268716D01*
X-11519479Y-23268714D01*
X-11519475Y-23268709D01*
X-11440426Y-23131790D01*
X-11440423Y-23131785D01*
X-11409960Y-23018097D01*
X-11399499Y-22979057D01*
X-11399499Y-22820942D01*
X-11399499Y-22813347D01*
X-11399500Y-22813329D01*
X-11399500Y-20999487D01*
X-11379815Y-20932448D01*
X-11363181Y-20911806D01*
X-10759467Y-20308093D01*
X-10698144Y-20274608D01*
X-10628452Y-20279592D01*
X-10572519Y-20321464D01*
X-10553855Y-20357455D01*
X-10501557Y-20518412D01*
X-10405051Y-20707816D01*
X-10405048Y-20707820D01*
X-10280109Y-20879786D01*
X-10280106Y-20879788D01*
X-10280104Y-20879792D01*
X-10129792Y-21030104D01*
X-10129788Y-21030106D01*
X-10129786Y-21030109D01*
X-10036635Y-21097786D01*
X-9957816Y-21155051D01*
X-9768412Y-21251557D01*
X-9566243Y-21317246D01*
X-9356287Y-21350500D01*
X-9356286Y-21350500D01*
X-9143714Y-21350500D01*
X-9143713Y-21350500D01*
X-8933757Y-21317246D01*
X-8731588Y-21251557D01*
X-8542184Y-21155051D01*
X-8542181Y-21155049D01*
X-8542179Y-21155048D01*
X-8370213Y-21030109D01*
X-8219890Y-20879786D01*
X-8094951Y-20707820D01*
X-7998444Y-20518414D01*
X-7979936Y-20461455D01*
X-7932754Y-20316243D01*
X-7930666Y-20303064D01*
X-7899500Y-20106286D01*
X-7899500Y-19911421D01*
X-6625500Y-19911421D01*
X-6625500Y-20088579D01*
X-6597786Y-20263555D01*
X-6543042Y-20432042D01*
X-6462614Y-20589890D01*
X-6358483Y-20733214D01*
X-6233214Y-20858483D01*
X-6089890Y-20962614D01*
X-5932042Y-21043042D01*
X-5763555Y-21097786D01*
X-5588579Y-21125500D01*
X-5588578Y-21125500D01*
X-4991422Y-21125500D01*
X-4991421Y-21125500D01*
X-4816445Y-21097786D01*
X-4716431Y-21065290D01*
X-4647960Y-21043043D01*
X-4647957Y-21043042D01*
X-4561199Y-20998836D01*
X-4490110Y-20962614D01*
X-4346786Y-20858483D01*
X-4221517Y-20733214D01*
X-4117386Y-20589890D01*
X-4080967Y-20518414D01*
X-4036957Y-20432042D01*
X-4036956Y-20432039D01*
X-3982214Y-20263556D01*
X-3968357Y-20176067D01*
X-3954500Y-20088579D01*
X-3954500Y-19911421D01*
X-3964603Y-19847633D01*
X-3982214Y-19736443D01*
X-4036956Y-19567960D01*
X-4036957Y-19567957D01*
X-4117386Y-19410109D01*
X-4200578Y-19295606D01*
X-4221517Y-19266786D01*
X-4221519Y-19266784D01*
X-4221519Y-19266783D01*
X-4346783Y-19141519D01*
X-4490109Y-19037386D01*
X-4647957Y-18956957D01*
X-4647960Y-18956956D01*
X-4816443Y-18902214D01*
X-4933095Y-18883738D01*
X-4991421Y-18874500D01*
X-5588579Y-18874500D01*
X-5676067Y-18888357D01*
X-5763556Y-18902214D01*
X-5932039Y-18956956D01*
X-5932042Y-18956957D01*
X-6089890Y-19037386D01*
X-6233214Y-19141517D01*
X-6358483Y-19266786D01*
X-6462614Y-19410110D01*
X-6499034Y-19481588D01*
X-6543042Y-19567957D01*
X-6543042Y-19567958D01*
X-6597786Y-19736445D01*
X-6625500Y-19911421D01*
X-7899500Y-19911421D01*
X-7899500Y-19893713D01*
X-7932753Y-19683760D01*
X-7998444Y-19481585D01*
X-8094951Y-19292179D01*
X-8219890Y-19120213D01*
X-8370213Y-18969890D01*
X-8542179Y-18844951D01*
X-8731585Y-18748444D01*
X-8892544Y-18696145D01*
X-8950220Y-18656707D01*
X-8977418Y-18592349D01*
X-8965503Y-18523502D01*
X-8941907Y-18490533D01*
X-8088193Y-17636819D01*
X-8026870Y-17603334D01*
X-8000512Y-17600500D01*
X-1756953Y-17600500D01*
X-1689914Y-17620185D01*
X-1644159Y-17672989D01*
X-1634215Y-17742147D01*
X-1663240Y-17805703D01*
X-1679638Y-17821445D01*
X-1835674Y-17945880D01*
X-2054120Y-18164326D01*
X-2246735Y-18405857D01*
X-2411095Y-18667435D01*
X-2545135Y-18945771D01*
X-2553575Y-18969890D01*
X-2647164Y-19237352D01*
X-2647168Y-19237364D01*
X-2715910Y-19538544D01*
X-2715913Y-19538562D01*
X-2736199Y-19718611D01*
X-2750500Y-19845535D01*
X-2750500Y-20154465D01*
X-2733757Y-20303064D01*
X-2720824Y-20417854D01*
X-2715911Y-20461452D01*
X-2647168Y-20762636D01*
X-2545135Y-21054229D01*
X-2411095Y-21332565D01*
X-2246735Y-21594143D01*
X-2054120Y-21835674D01*
X-1835674Y-22054120D01*
X-1594143Y-22246735D01*
X-1332565Y-22411095D01*
X-1054229Y-22545135D01*
X-762636Y-22647168D01*
X-461452Y-22715911D01*
X-461442Y-22715912D01*
X-461437Y-22715913D01*
X-311356Y-22732822D01*
X-154469Y-22750499D01*
X-154468Y-22750500D01*
X-154465Y-22750500D01*
X154468Y-22750500D01*
X154469Y-22750499D01*
X311356Y-22732822D01*
X461437Y-22715913D01*
X461442Y-22715912D01*
X461452Y-22715911D01*
X762636Y-22647168D01*
X1054229Y-22545135D01*
X1332565Y-22411095D01*
X1594143Y-22246735D01*
X1835674Y-22054120D01*
X2054120Y-21835674D01*
X2054132Y-21835658D01*
X2055561Y-21834061D01*
X2056015Y-21833778D01*
X2056580Y-21833214D01*
X2056711Y-21833345D01*
X2114911Y-21797192D01*
X2184773Y-21798262D01*
X2242965Y-21836933D01*
X2271013Y-21900926D01*
X2262580Y-21964142D01*
X2235907Y-22028537D01*
X2235901Y-22028554D01*
X2175274Y-22281087D01*
X2154898Y-22540000D01*
X2175274Y-22798912D01*
X2235901Y-23051445D01*
X2235906Y-23051462D01*
X2335290Y-23291397D01*
X2335292Y-23291400D01*
X2470992Y-23512842D01*
X2470993Y-23512843D01*
X2476801Y-23519644D01*
X3132421Y-22864024D01*
X3145359Y-22895258D01*
X3227437Y-23018097D01*
X3331903Y-23122563D01*
X3454742Y-23204641D01*
X3485974Y-23217577D01*
X2830354Y-23873197D01*
X2837157Y-23879007D01*
X3058599Y-24014707D01*
X3058602Y-24014709D01*
X3298537Y-24114093D01*
X3298554Y-24114098D01*
X3551088Y-24174725D01*
X3551087Y-24174725D01*
X3810000Y-24195101D01*
X4068912Y-24174725D01*
X4321445Y-24114098D01*
X4321462Y-24114093D01*
X4561397Y-24014709D01*
X4561400Y-24014707D01*
X4782844Y-23879005D01*
X4789644Y-23873197D01*
X4134025Y-23217578D01*
X4165258Y-23204641D01*
X4288097Y-23122563D01*
X4392563Y-23018097D01*
X4474641Y-22895258D01*
X4487578Y-22864025D01*
X5143197Y-23519644D01*
X5149005Y-23512844D01*
X5284707Y-23291400D01*
X5284709Y-23291397D01*
X5384093Y-23051462D01*
X5384098Y-23051445D01*
X5444725Y-22798912D01*
X5465101Y-22540000D01*
X5444725Y-22281087D01*
X5384098Y-22028554D01*
X5384093Y-22028537D01*
X5284709Y-21788602D01*
X5284707Y-21788599D01*
X5149007Y-21567157D01*
X5143197Y-21560354D01*
X4487577Y-22215973D01*
X4474641Y-22184742D01*
X4392563Y-22061903D01*
X4288097Y-21957437D01*
X4165258Y-21875359D01*
X4134025Y-21862421D01*
X4804017Y-21192428D01*
X4808134Y-21176053D01*
X4859099Y-21128258D01*
X4927814Y-21115604D01*
X4934359Y-21116462D01*
X4991421Y-21125500D01*
X4991424Y-21125500D01*
X5588578Y-21125500D01*
X5588579Y-21125500D01*
X5763555Y-21097786D01*
X5932042Y-21043042D01*
X6089890Y-20962614D01*
X6233214Y-20858483D01*
X6358483Y-20733214D01*
X6462614Y-20589890D01*
X6543042Y-20432042D01*
X6597786Y-20263555D01*
X6625500Y-20088579D01*
X6625500Y-19911421D01*
X6622695Y-19893713D01*
X7899500Y-19893713D01*
X7899500Y-20106286D01*
X7930666Y-20303064D01*
X7932754Y-20316243D01*
X7979936Y-20461455D01*
X7998444Y-20518414D01*
X8094951Y-20707820D01*
X8219890Y-20879786D01*
X8370213Y-21030109D01*
X8542179Y-21155048D01*
X8542181Y-21155049D01*
X8542184Y-21155051D01*
X8731588Y-21251557D01*
X8933757Y-21317246D01*
X9143713Y-21350500D01*
X9143714Y-21350500D01*
X9356286Y-21350500D01*
X9356287Y-21350500D01*
X9566243Y-21317246D01*
X9768412Y-21251557D01*
X9957816Y-21155051D01*
X10036635Y-21097786D01*
X10129786Y-21030109D01*
X10129788Y-21030106D01*
X10129792Y-21030104D01*
X10280104Y-20879792D01*
X10280106Y-20879788D01*
X10280109Y-20879786D01*
X10405048Y-20707820D01*
X10405047Y-20707820D01*
X10405051Y-20707816D01*
X10501557Y-20518412D01*
X10567246Y-20316243D01*
X10600500Y-20106287D01*
X10600500Y-19893713D01*
X10567246Y-19683757D01*
X10501557Y-19481588D01*
X10405051Y-19292184D01*
X10405049Y-19292181D01*
X10405048Y-19292179D01*
X10280109Y-19120213D01*
X10129786Y-18969890D01*
X9957820Y-18844951D01*
X9768414Y-18748444D01*
X9768413Y-18748443D01*
X9768412Y-18748443D01*
X9566243Y-18682754D01*
X9566241Y-18682753D01*
X9566240Y-18682753D01*
X9393266Y-18655357D01*
X9356287Y-18649500D01*
X9143713Y-18649500D01*
X9106734Y-18655357D01*
X8933760Y-18682753D01*
X8731585Y-18748444D01*
X8542179Y-18844951D01*
X8370213Y-18969890D01*
X8219890Y-19120213D01*
X8094951Y-19292179D01*
X7998444Y-19481585D01*
X7932753Y-19683760D01*
X7899500Y-19893713D01*
X6622695Y-19893713D01*
X6597786Y-19736445D01*
X6543042Y-19567958D01*
X6543042Y-19567957D01*
X6499034Y-19481588D01*
X6462614Y-19410110D01*
X6358483Y-19266786D01*
X6233214Y-19141517D01*
X6089890Y-19037386D01*
X5932042Y-18956957D01*
X5932039Y-18956956D01*
X5763556Y-18902214D01*
X5676067Y-18888357D01*
X5588579Y-18874500D01*
X4991421Y-18874500D01*
X4933095Y-18883738D01*
X4816443Y-18902214D01*
X4647960Y-18956956D01*
X4647957Y-18956957D01*
X4490109Y-19037386D01*
X4408338Y-19096796D01*
X4346786Y-19141517D01*
X4346784Y-19141519D01*
X4346783Y-19141519D01*
X4221519Y-19266783D01*
X4221519Y-19266784D01*
X4221517Y-19266786D01*
X4200578Y-19295606D01*
X4117386Y-19410109D01*
X4036957Y-19567957D01*
X4036956Y-19567960D01*
X3982214Y-19736443D01*
X3964603Y-19847633D01*
X3954500Y-19911421D01*
X3954500Y-20088579D01*
X3968357Y-20176067D01*
X3982214Y-20263556D01*
X4036956Y-20432039D01*
X4036957Y-20432042D01*
X4080967Y-20518414D01*
X4117386Y-20589890D01*
X4207616Y-20714081D01*
X4231096Y-20779887D01*
X4215271Y-20847941D01*
X4165165Y-20896635D01*
X4096687Y-20910511D01*
X4078356Y-20907541D01*
X4068916Y-20905275D01*
X4068912Y-20905274D01*
X3810000Y-20884898D01*
X3551087Y-20905274D01*
X3298554Y-20965901D01*
X3298537Y-20965906D01*
X3058602Y-21065290D01*
X3058599Y-21065292D01*
X2837155Y-21200993D01*
X2830353Y-21206800D01*
X3485974Y-21862421D01*
X3454742Y-21875359D01*
X3331903Y-21957437D01*
X3227437Y-22061903D01*
X3145359Y-22184742D01*
X3132421Y-22215974D01*
X2468701Y-21552254D01*
X2429896Y-21542500D01*
X2382100Y-21491535D01*
X2369445Y-21422821D01*
X2387789Y-21369656D01*
X2394679Y-21358691D01*
X2411095Y-21332565D01*
X2545135Y-21054229D01*
X2647168Y-20762636D01*
X2715911Y-20461452D01*
X2720824Y-20417854D01*
X2733757Y-20303064D01*
X2750500Y-20154465D01*
X2750500Y-19845535D01*
X2736199Y-19718611D01*
X2715913Y-19538562D01*
X2715910Y-19538544D01*
X2647168Y-19237364D01*
X2647164Y-19237352D01*
X2553575Y-18969890D01*
X2545135Y-18945771D01*
X2411095Y-18667435D01*
X2246735Y-18405857D01*
X2054120Y-18164326D01*
X1835674Y-17945880D01*
X1679639Y-17821446D01*
X1639500Y-17764259D01*
X1636650Y-17694447D01*
X1671995Y-17634177D01*
X1734314Y-17602584D01*
X1756953Y-17600500D01*
X4868966Y-17600500D01*
X4868982Y-17600501D01*
X4876578Y-17600501D01*
X5034689Y-17600501D01*
X5034692Y-17600501D01*
X5187420Y-17559577D01*
X5237539Y-17530639D01*
X5324351Y-17480520D01*
X5436155Y-17368716D01*
X5436155Y-17368714D01*
X5446363Y-17358507D01*
X5446365Y-17358504D01*
X15368506Y-7436363D01*
X15368511Y-7436359D01*
X15378714Y-7426155D01*
X15378716Y-7426155D01*
X15490520Y-7314351D01*
X15569577Y-7177419D01*
X15610500Y-7024692D01*
X15610500Y2879057D01*
X15587181Y2966087D01*
X15569577Y3031785D01*
X15540639Y3081904D01*
X15490520Y3168716D01*
X15378716Y3280520D01*
X15378714Y3280520D01*
X15368507Y3290728D01*
X15368504Y3290730D01*
X15184202Y3475031D01*
X15150719Y3536352D01*
X15151680Y3593151D01*
X15196131Y3768682D01*
X15196135Y3768702D01*
X15215300Y3999993D01*
X15215300Y4000006D01*
X15196135Y4231297D01*
X15196133Y4231308D01*
X15139157Y4456300D01*
X15045924Y4668848D01*
X15045924Y4668849D01*
X14918979Y4863153D01*
X14761784Y5033913D01*
X14583772Y5172464D01*
X14542961Y5229172D01*
X14539286Y5298945D01*
X14573917Y5359629D01*
X14583773Y5368169D01*
X14608797Y5387646D01*
X14608797Y5387647D01*
X13856448Y6140000D01*
X13862661Y6140000D01*
X13964394Y6167259D01*
X14055606Y6219920D01*
X14130080Y6294394D01*
X14182741Y6385606D01*
X14210000Y6487339D01*
X14210000Y6493551D01*
X14961186Y5742365D01*
X15045484Y5871393D01*
X15138682Y6083864D01*
X15195638Y6308781D01*
X15214798Y6539994D01*
X15214798Y6540005D01*
X15195638Y6771218D01*
X15138682Y6996135D01*
X15045482Y7208611D01*
X14961186Y7337633D01*
X14210000Y6586447D01*
X14210000Y6592661D01*
X14182741Y6694394D01*
X14130080Y6785606D01*
X14055606Y6860080D01*
X13964394Y6912741D01*
X13862661Y6940000D01*
X13856448Y6940000D01*
X14608798Y7692350D01*
X14608797Y7692351D01*
X14578355Y7716047D01*
X14374301Y7826476D01*
X14374293Y7826479D01*
X14154860Y7901811D01*
X13926007Y7940000D01*
X13693993Y7940000D01*
X13465139Y7901811D01*
X13245706Y7826479D01*
X13245697Y7826476D01*
X13041649Y7716050D01*
X13011201Y7692351D01*
X13763553Y6940000D01*
X13757339Y6940000D01*
X13655606Y6912741D01*
X13564394Y6860080D01*
X13489920Y6785606D01*
X13437259Y6694394D01*
X13410000Y6592661D01*
X13410000Y6586445D01*
X12658812Y7337633D01*
X12574515Y7208606D01*
X12481317Y6996135D01*
X12424361Y6771218D01*
X12405202Y6540005D01*
X12405202Y6539994D01*
X12424361Y6308781D01*
X12481317Y6083864D01*
X12574516Y5871390D01*
X12658811Y5742365D01*
X13410000Y6493554D01*
X13410000Y6487339D01*
X13437259Y6385606D01*
X13489920Y6294394D01*
X13564394Y6219920D01*
X13655606Y6167259D01*
X13757339Y6140000D01*
X13763552Y6140000D01*
X13011200Y5387648D01*
X13011201Y5387646D01*
X13036225Y5368170D01*
X13077038Y5311460D01*
X13080713Y5241687D01*
X13046082Y5181003D01*
X13036229Y5172465D01*
X12858216Y5033913D01*
X12701021Y4863153D01*
X12701019Y4863151D01*
X12701016Y4863147D01*
X12574075Y4668848D01*
X12480842Y4456300D01*
X12423866Y4231308D01*
X12423864Y4231297D01*
X12404700Y4000006D01*
X12404700Y3999993D01*
X12423864Y3768702D01*
X12423866Y3768691D01*
X12480842Y3543699D01*
X12574075Y3331151D01*
X12701016Y3136852D01*
X12858219Y2966084D01*
X12858222Y2966081D01*
X13035818Y2827853D01*
X13076631Y2771143D01*
X13080306Y2701370D01*
X13045674Y2640687D01*
X13035818Y2632147D01*
X12864568Y2498857D01*
X12858216Y2493913D01*
X12701021Y2323153D01*
X12701019Y2323151D01*
X12701016Y2323147D01*
X12574075Y2128848D01*
X12480842Y1916300D01*
X12423866Y1691308D01*
X12423864Y1691297D01*
X12404700Y1460006D01*
X12404700Y1459993D01*
X12423864Y1228702D01*
X12423866Y1228691D01*
X12480842Y1003699D01*
X12574075Y791151D01*
X12701016Y596852D01*
X12858219Y426084D01*
X12858222Y426081D01*
X13041365Y283535D01*
X13041371Y283531D01*
X13245495Y173064D01*
X13245504Y173061D01*
X13465015Y97702D01*
X13648164Y67140D01*
X13693951Y59500D01*
X13693952Y59500D01*
X13926048Y59500D01*
X13926049Y59500D01*
X13964204Y65867D01*
X14154986Y97702D01*
X14245238Y128686D01*
X14315036Y131836D01*
X14375457Y96749D01*
X14407318Y34567D01*
X14409500Y11405D01*
X14409500Y-6645537D01*
X14389815Y-6712576D01*
X14373181Y-6733218D01*
X9249752Y-11856646D01*
X9188429Y-11890131D01*
X9118737Y-11885147D01*
X9062804Y-11843275D01*
X9040397Y-11789228D01*
X9040070Y-11789301D01*
X9039659Y-11787447D01*
X9039344Y-11786687D01*
X9039070Y-11784794D01*
X9039070Y-11784787D01*
X8990590Y-11565993D01*
X8990590Y-11565992D01*
X8910154Y-11356827D01*
X8862316Y-11272536D01*
X8799543Y-11161925D01*
X8661212Y-10985613D01*
X8661204Y-10985606D01*
X8661203Y-10985604D01*
X8579702Y-10908728D01*
X8531780Y-10863503D01*
X8531777Y-10863501D01*
X8526096Y-10858140D01*
X8526025Y-10858081D01*
X8423299Y-10761151D01*
X8344774Y-10687056D01*
X8344771Y-10687053D01*
X8344761Y-10687044D01*
X7916047Y-10322420D01*
X7852685Y-10268530D01*
X7852664Y-10268514D01*
X7852653Y-10268505D01*
X7339661Y-9875991D01*
X7339639Y-9875975D01*
X6807010Y-9510443D01*
X6347085Y-9228594D01*
X6256205Y-9172901D01*
X5688708Y-8864257D01*
X5564952Y-8805016D01*
X5262297Y-8660137D01*
X5106028Y-8585332D01*
X5105990Y-8585316D01*
X4875860Y-8489405D01*
X4875791Y-8489371D01*
X4814632Y-8463888D01*
X4801532Y-8457502D01*
X4718493Y-8410792D01*
X4694982Y-8393650D01*
X4630515Y-8333883D01*
X4611644Y-8311732D01*
X4562881Y-8238586D01*
X4562876Y-8238578D01*
X4549692Y-8212649D01*
X4519313Y-8130147D01*
X4512534Y-8101854D01*
X4512533Y-8101849D01*
X4501356Y-8007237D01*
X4500500Y-7992689D01*
X4500500Y-7892683D01*
X4500500Y-7892682D01*
X4479062Y-7743584D01*
X4469955Y-7680235D01*
X4469952Y-7680225D01*
X4469176Y-7677580D01*
X4409484Y-7474290D01*
X4409483Y-7474288D01*
X4409482Y-7474284D01*
X4320327Y-7279061D01*
X4320320Y-7279048D01*
X4255007Y-7177419D01*
X4204281Y-7098487D01*
X4140336Y-7024691D01*
X4063724Y-6936275D01*
X3901514Y-6795720D01*
X3901513Y-6795719D01*
X3804259Y-6733218D01*
X3720951Y-6679679D01*
X3720938Y-6679672D01*
X3525715Y-6590517D01*
X3319774Y-6530047D01*
X3319764Y-6530044D01*
X3128754Y-6502582D01*
X3107318Y-6499500D01*
X3107317Y-6499500D01*
X649097Y-6499500D01*
X582058Y-6479815D01*
X536303Y-6427011D01*
X526359Y-6357853D01*
X555384Y-6294297D01*
X561416Y-6287819D01*
X730544Y-6118691D01*
X1358506Y-5490727D01*
X1358511Y-5490724D01*
X1368714Y-5480520D01*
X1368716Y-5480520D01*
X1480520Y-5368716D01*
X1545689Y-5255839D01*
X1559577Y-5231785D01*
X1600500Y-5079058D01*
X1600500Y-4920943D01*
X1600500Y4000006D01*
X4784700Y4000006D01*
X4784700Y3999993D01*
X4803864Y3768702D01*
X4803866Y3768691D01*
X4860842Y3543699D01*
X4954075Y3331151D01*
X5081016Y3136852D01*
X5238219Y2966084D01*
X5238222Y2966081D01*
X5415818Y2827853D01*
X5456631Y2771143D01*
X5460306Y2701370D01*
X5425674Y2640687D01*
X5415818Y2632147D01*
X5244568Y2498857D01*
X5238216Y2493913D01*
X5081021Y2323153D01*
X5081019Y2323151D01*
X5081016Y2323147D01*
X4954075Y2128848D01*
X4860842Y1916300D01*
X4803866Y1691308D01*
X4803864Y1691297D01*
X4784700Y1460006D01*
X4784700Y1459993D01*
X4803864Y1228702D01*
X4803866Y1228691D01*
X4860842Y1003699D01*
X4954075Y791151D01*
X5081016Y596852D01*
X5238219Y426084D01*
X5238222Y426081D01*
X5421365Y283535D01*
X5421371Y283531D01*
X5625495Y173064D01*
X5625504Y173061D01*
X5845015Y97702D01*
X6028164Y67140D01*
X6073951Y59500D01*
X6073952Y59500D01*
X6306048Y59500D01*
X6306049Y59500D01*
X6363282Y69050D01*
X6534984Y97702D01*
X6754495Y173061D01*
X6754504Y173064D01*
X6958628Y283531D01*
X6958634Y283535D01*
X7141777Y426081D01*
X7141780Y426084D01*
X7141784Y426087D01*
X7298979Y596847D01*
X7298980Y596849D01*
X7298983Y596852D01*
X7425924Y791151D01*
X7519157Y1003699D01*
X7576133Y1228691D01*
X7576135Y1228702D01*
X7595300Y1459993D01*
X7595300Y1460006D01*
X7576135Y1691297D01*
X7576133Y1691308D01*
X7519157Y1916300D01*
X7425924Y2128848D01*
X7425924Y2128849D01*
X7298979Y2323153D01*
X7141784Y2493913D01*
X6964180Y2632147D01*
X6923368Y2688857D01*
X6919693Y2758630D01*
X6954324Y2819313D01*
X6964181Y2827854D01*
X7029967Y2879057D01*
X7141784Y2966087D01*
X7298979Y3136847D01*
X7298980Y3136849D01*
X7298983Y3136852D01*
X7425924Y3331151D01*
X7519157Y3543699D01*
X7576133Y3768691D01*
X7576135Y3768702D01*
X7595300Y3999993D01*
X7595300Y4000006D01*
X7576135Y4231297D01*
X7576133Y4231308D01*
X7519157Y4456300D01*
X7425924Y4668848D01*
X7425924Y4668849D01*
X7298979Y4863153D01*
X7141784Y5033913D01*
X6963772Y5172464D01*
X6922961Y5229172D01*
X6919286Y5298945D01*
X6953917Y5359629D01*
X6963773Y5368169D01*
X6988797Y5387646D01*
X6988797Y5387647D01*
X6236448Y6140000D01*
X6242661Y6140000D01*
X6344394Y6167259D01*
X6435606Y6219920D01*
X6510080Y6294394D01*
X6562741Y6385606D01*
X6590000Y6487339D01*
X6590000Y6493551D01*
X7341186Y5742365D01*
X7425484Y5871393D01*
X7518682Y6083864D01*
X7575638Y6308781D01*
X7594798Y6539994D01*
X7594798Y6540005D01*
X7575638Y6771218D01*
X7518682Y6996135D01*
X7425482Y7208611D01*
X7341186Y7337633D01*
X6590000Y6586447D01*
X6590000Y6592661D01*
X6562741Y6694394D01*
X6510080Y6785606D01*
X6435606Y6860080D01*
X6344394Y6912741D01*
X6242661Y6940000D01*
X6236448Y6940000D01*
X6988798Y7692350D01*
X6988797Y7692351D01*
X6958355Y7716047D01*
X6754301Y7826476D01*
X6754293Y7826479D01*
X6534860Y7901811D01*
X6306007Y7940000D01*
X6073993Y7940000D01*
X5845139Y7901811D01*
X5625706Y7826479D01*
X5625697Y7826476D01*
X5421649Y7716050D01*
X5391201Y7692351D01*
X6143553Y6940000D01*
X6137339Y6940000D01*
X6035606Y6912741D01*
X5944394Y6860080D01*
X5869920Y6785606D01*
X5817259Y6694394D01*
X5790000Y6592661D01*
X5790000Y6586445D01*
X5038812Y7337633D01*
X4954515Y7208606D01*
X4861317Y6996135D01*
X4804361Y6771218D01*
X4785202Y6540005D01*
X4785202Y6539994D01*
X4804361Y6308781D01*
X4861317Y6083864D01*
X4954516Y5871390D01*
X5038811Y5742365D01*
X5790000Y6493554D01*
X5790000Y6487339D01*
X5817259Y6385606D01*
X5869920Y6294394D01*
X5944394Y6219920D01*
X6035606Y6167259D01*
X6137339Y6140000D01*
X6143552Y6140000D01*
X5391200Y5387648D01*
X5391201Y5387646D01*
X5416225Y5368170D01*
X5457038Y5311460D01*
X5460713Y5241687D01*
X5426082Y5181003D01*
X5416229Y5172465D01*
X5238216Y5033913D01*
X5081021Y4863153D01*
X5081019Y4863151D01*
X5081016Y4863147D01*
X4954075Y4668848D01*
X4860842Y4456300D01*
X4803866Y4231308D01*
X4803864Y4231297D01*
X4784700Y4000006D01*
X1600500Y4000006D01*
X1600500Y4699903D01*
X1620185Y4766942D01*
X1636819Y4787584D01*
X11387416Y14538181D01*
X11448739Y14571666D01*
X11475097Y14574500D01*
X13543884Y14574500D01*
X13610923Y14554815D01*
X13656678Y14502011D01*
X13657440Y14500311D01*
X13675827Y14458391D01*
X13811833Y14250217D01*
X13980257Y14067261D01*
X14176493Y13914524D01*
X14395188Y13796172D01*
X14395197Y13796169D01*
X14630383Y13715429D01*
X14875665Y13674500D01*
X15124335Y13674500D01*
X15369616Y13715429D01*
X15604802Y13796169D01*
X15604811Y13796172D01*
X15823506Y13914524D01*
X15823509Y13914526D01*
X16019744Y14067262D01*
X16188164Y14250215D01*
X16188166Y14250217D01*
X16324173Y14458393D01*
X16424063Y14686118D01*
X16485107Y14927175D01*
X16485109Y14927187D01*
X16505643Y15174994D01*
X16505643Y15175005D01*
X16485109Y15422812D01*
X16485108Y15422815D01*
X16485108Y15422821D01*
X16424063Y15663881D01*
X16324173Y15891607D01*
X16188164Y16099785D01*
X16019744Y16282738D01*
X15823509Y16435474D01*
X15604810Y16553828D01*
X15369614Y16634571D01*
X15124335Y16675500D01*
X14875665Y16675500D01*
X14630386Y16634571D01*
X14395190Y16553828D01*
X14176491Y16435474D01*
X13980256Y16282738D01*
X13844245Y16134991D01*
X13811833Y16099782D01*
X13675827Y15891608D01*
X13657440Y15849689D01*
X13612483Y15796204D01*
X13545747Y15775514D01*
X13543884Y15775500D01*
X11261669Y15775500D01*
X11261653Y15775501D01*
X11254057Y15775501D01*
X11095943Y15775501D01*
X10943215Y15734577D01*
X10931151Y15727611D01*
X10893097Y15705641D01*
X10893095Y15705639D01*
X10806284Y15655520D01*
X10694480Y15543716D01*
X10690149Y15539385D01*
X10690139Y15539374D01*
X1412181Y6261416D01*
X1350858Y6227931D01*
X1281166Y6232915D01*
X1225233Y6274787D01*
X1200816Y6340251D01*
X1200500Y6349097D01*
X1200500Y10474902D01*
X1220185Y10541941D01*
X1236819Y10562583D01*
X4396450Y13722214D01*
X4457773Y13755699D01*
X4524392Y13751815D01*
X4630386Y13715428D01*
X4875665Y13674500D01*
X5124335Y13674500D01*
X5369616Y13715429D01*
X5604802Y13796169D01*
X5604811Y13796172D01*
X5823506Y13914524D01*
X5823509Y13914526D01*
X6019744Y14067262D01*
X6188164Y14250215D01*
X6188166Y14250217D01*
X6324173Y14458393D01*
X6424063Y14686118D01*
X6485107Y14927175D01*
X6485109Y14927187D01*
X6505643Y15174994D01*
X6505643Y15175005D01*
X6485109Y15422812D01*
X6485108Y15422815D01*
X6485108Y15422821D01*
X6424063Y15663881D01*
X6324173Y15891607D01*
X6188164Y16099785D01*
X6019744Y16282738D01*
X5823509Y16435474D01*
X5604810Y16553828D01*
X5369614Y16634571D01*
X5124335Y16675500D01*
X4875665Y16675500D01*
X4630386Y16634571D01*
X4395190Y16553828D01*
X4176491Y16435474D01*
X3980256Y16282738D01*
X3844245Y16134991D01*
X3811833Y16099782D01*
X3675826Y15891606D01*
X3575936Y15663881D01*
X3514892Y15422824D01*
X3514890Y15422812D01*
X3494357Y15175005D01*
X3494357Y15174994D01*
X3514890Y14927187D01*
X3514892Y14927174D01*
X3576007Y14685839D01*
X3573382Y14616019D01*
X3543482Y14567718D01*
X475180Y11499416D01*
X413857Y11465931D01*
X344165Y11470915D01*
X299818Y11499416D01*
X-1579602Y13378836D01*
X-1700766Y13500000D01*
X-655460Y13500000D01*
X-635674Y13311744D01*
X-577179Y13131716D01*
X-482533Y12967784D01*
X-427745Y12906936D01*
X-355870Y12827111D01*
X-202734Y12715851D01*
X-202729Y12715848D01*
X-29807Y12638857D01*
X-29802Y12638855D01*
X102723Y12610687D01*
X155354Y12599500D01*
X155355Y12599500D01*
X344645Y12599500D01*
X344646Y12599500D01*
X397277Y12610687D01*
X529802Y12638855D01*
X529807Y12638857D01*
X702729Y12715848D01*
X702734Y12715851D01*
X855870Y12827111D01*
X927745Y12906936D01*
X982533Y12967784D01*
X1077179Y13131716D01*
X1086284Y13159736D01*
X1115351Y13249197D01*
X1132521Y13302041D01*
X1162770Y13351402D01*
X1902769Y14091402D01*
X1964092Y14124887D01*
X1964669Y14125011D01*
X2029802Y14138855D01*
X2029807Y14138857D01*
X2202729Y14215848D01*
X2202734Y14215851D01*
X2355870Y14327111D01*
X2386512Y14361142D01*
X2482533Y14467784D01*
X2577179Y14631716D01*
X2635674Y14811744D01*
X2655460Y15000000D01*
X2635674Y15188256D01*
X2577179Y15368284D01*
X2482533Y15532216D01*
X2355871Y15672888D01*
X2202730Y15784151D01*
X2029803Y15861144D01*
X1844646Y15900500D01*
X1655354Y15900500D01*
X1613511Y15891606D01*
X1470197Y15861144D01*
X1470192Y15861142D01*
X1297270Y15784151D01*
X1297265Y15784148D01*
X1229034Y15734575D01*
X1144129Y15672888D01*
X1017467Y15532216D01*
X1017466Y15532214D01*
X922821Y15368284D01*
X922818Y15368277D01*
X867478Y15197958D01*
X837228Y15148595D01*
X97230Y14408597D01*
X35907Y14375112D01*
X35329Y14374988D01*
X10663Y14369745D01*
X-29803Y14361144D01*
X-29806Y14361142D01*
X-29808Y14361142D01*
X-88058Y14335206D01*
X-202730Y14284151D01*
X-355871Y14172888D01*
X-482533Y14032216D01*
X-577179Y13868284D01*
X-635674Y13688256D01*
X-655460Y13500000D01*
X-1700766Y13500000D01*
X-3472929Y15272164D01*
X-3506414Y15333487D01*
X-3508824Y15349604D01*
X-3514890Y15422813D01*
X-3514892Y15422824D01*
X-3575936Y15663881D01*
X-3675826Y15891606D01*
X-3811833Y16099782D01*
X-3844245Y16134991D01*
X-3980256Y16282738D01*
X-4176491Y16435474D01*
X-4395190Y16553828D01*
X-4630386Y16634571D01*
X-4875665Y16675500D01*
X-5124335Y16675500D01*
X-5369614Y16634571D01*
X-5604810Y16553828D01*
X-5604817Y16553824D01*
X-5604820Y16553823D01*
X-5716482Y16493394D01*
X-5784810Y16478798D01*
X-5850182Y16503460D01*
X-5891844Y16559551D01*
X-5899500Y16602448D01*
X-5899500Y19829056D01*
X-5940423Y19981785D01*
X-5960858Y20017179D01*
X-5999387Y20083913D01*
X-5999390Y20083918D01*
X-6019477Y20118712D01*
X-6019481Y20118717D01*
X-6138349Y20237585D01*
X-6138355Y20237590D01*
X-6165770Y20265005D01*
X-1505643Y20265005D01*
X-1505643Y20264994D01*
X-1485109Y20017187D01*
X-1485107Y20017175D01*
X-1424063Y19776118D01*
X-1405745Y19734358D01*
X-1324173Y19548393D01*
X-1192980Y19347587D01*
X-1172793Y19280698D01*
X-1191973Y19213512D01*
X-1237366Y19170932D01*
X-1242092Y19168351D01*
X-1357187Y19082190D01*
X-1357190Y19082187D01*
X-1443350Y18967093D01*
X-1443354Y18967086D01*
X-1493596Y18832379D01*
X-1493598Y18832372D01*
X-1499999Y18772844D01*
X-1500000Y18772827D01*
X-1500000Y17975000D01*
X-375278Y17975000D01*
X-419333Y17898694D01*
X-450000Y17784244D01*
X-450000Y17665756D01*
X-419333Y17551306D01*
X-375278Y17475000D01*
X-1500000Y17475000D01*
X-1500000Y16677172D01*
X-1499999Y16677155D01*
X-1493598Y16617627D01*
X-1493596Y16617620D01*
X-1443354Y16482913D01*
X-1443350Y16482906D01*
X-1357190Y16367812D01*
X-1357187Y16367809D01*
X-1242093Y16281649D01*
X-1242086Y16281645D01*
X-1107379Y16231403D01*
X-1107372Y16231401D01*
X-1047844Y16225000D01*
X-250000Y16225000D01*
X-250000Y17349722D01*
X-173694Y17305667D01*
X-59244Y17275000D01*
X59244Y17275000D01*
X173694Y17305667D01*
X250000Y17349722D01*
X250000Y16225000D01*
X1047844Y16225000D01*
X1107372Y16231401D01*
X1107379Y16231403D01*
X1242086Y16281645D01*
X1242093Y16281649D01*
X1357187Y16367809D01*
X1357190Y16367812D01*
X1443350Y16482906D01*
X1443354Y16482913D01*
X1493596Y16617620D01*
X1493598Y16617627D01*
X1499999Y16677155D01*
X1500000Y16677172D01*
X1500000Y17475000D01*
X375278Y17475000D01*
X419333Y17551306D01*
X450000Y17665756D01*
X450000Y17784244D01*
X419333Y17898694D01*
X375278Y17975000D01*
X1500000Y17975000D01*
X1500000Y18772827D01*
X1499999Y18772844D01*
X1493598Y18832372D01*
X1493596Y18832379D01*
X1443354Y18967086D01*
X1443350Y18967093D01*
X1357190Y19082187D01*
X1357187Y19082190D01*
X1242092Y19168351D01*
X1237366Y19170932D01*
X1187959Y19220336D01*
X1173105Y19288608D01*
X1192980Y19347587D01*
X1324173Y19548393D01*
X1342560Y19590311D01*
X1387517Y19643796D01*
X1454253Y19664486D01*
X1456116Y19664500D01*
X2383331Y19664500D01*
X2383347Y19664499D01*
X2390943Y19664499D01*
X2549054Y19664499D01*
X2549057Y19664499D01*
X2701785Y19705423D01*
X2751900Y19734358D01*
X2751904Y19734359D01*
X2751904Y19734360D01*
X2838716Y19784480D01*
X2950520Y19896284D01*
X2957588Y19903352D01*
X2957590Y19903355D01*
X3319240Y20265005D01*
X8494357Y20265005D01*
X8494357Y20264994D01*
X8514890Y20017187D01*
X8514892Y20017175D01*
X8575936Y19776118D01*
X8675826Y19548393D01*
X8807019Y19347587D01*
X8827207Y19280698D01*
X8808026Y19213512D01*
X8762637Y19170934D01*
X8757908Y19168352D01*
X8642812Y19082190D01*
X8642809Y19082187D01*
X8556649Y18967093D01*
X8556645Y18967086D01*
X8506403Y18832379D01*
X8506401Y18832372D01*
X8500000Y18772844D01*
X8500000Y17975000D01*
X9624722Y17975000D01*
X9580667Y17898694D01*
X9550000Y17784244D01*
X9550000Y17665756D01*
X9580667Y17551306D01*
X9624722Y17475000D01*
X8500000Y17475000D01*
X8500000Y16677155D01*
X8506401Y16617627D01*
X8506403Y16617620D01*
X8556645Y16482913D01*
X8556649Y16482906D01*
X8642809Y16367812D01*
X8642812Y16367809D01*
X8757906Y16281649D01*
X8757913Y16281645D01*
X8892620Y16231403D01*
X8892627Y16231401D01*
X8952155Y16225000D01*
X9750000Y16225000D01*
X9750000Y17349722D01*
X9826306Y17305667D01*
X9940756Y17275000D01*
X10059244Y17275000D01*
X10173694Y17305667D01*
X10250000Y17349722D01*
X10250000Y16225000D01*
X11047844Y16225000D01*
X11107372Y16231401D01*
X11107379Y16231403D01*
X11242086Y16281645D01*
X11242093Y16281649D01*
X11357187Y16367809D01*
X11357190Y16367812D01*
X11443350Y16482906D01*
X11443354Y16482913D01*
X11493596Y16617620D01*
X11493598Y16617627D01*
X11499999Y16677155D01*
X11500000Y16677172D01*
X11500000Y17475000D01*
X10375278Y17475000D01*
X10419333Y17551306D01*
X10450000Y17665756D01*
X10450000Y17784244D01*
X10419333Y17898694D01*
X10375278Y17975000D01*
X11500000Y17975000D01*
X11500000Y18772827D01*
X11499999Y18772844D01*
X11493598Y18832372D01*
X11493596Y18832379D01*
X11443354Y18967086D01*
X11443350Y18967093D01*
X11357190Y19082187D01*
X11357187Y19082190D01*
X11242092Y19168351D01*
X11237366Y19170932D01*
X11187959Y19220336D01*
X11173105Y19288608D01*
X11192980Y19347587D01*
X11324173Y19548393D01*
X11342560Y19590311D01*
X11387517Y19643796D01*
X11454253Y19664486D01*
X11456116Y19664500D01*
X12383331Y19664500D01*
X12383347Y19664499D01*
X12390943Y19664499D01*
X12549054Y19664499D01*
X12549057Y19664499D01*
X12701785Y19705423D01*
X12751900Y19734358D01*
X12751904Y19734359D01*
X12751904Y19734360D01*
X12838716Y19784480D01*
X12950520Y19896284D01*
X12957588Y19903352D01*
X12957590Y19903355D01*
X14396450Y21342215D01*
X14457773Y21375700D01*
X14524393Y21371815D01*
X14630381Y21335429D01*
X14875665Y21294500D01*
X15124335Y21294500D01*
X15369616Y21335429D01*
X15604802Y21416169D01*
X15604811Y21416172D01*
X15823506Y21534524D01*
X15823509Y21534526D01*
X16019744Y21687262D01*
X16188164Y21870215D01*
X16188166Y21870217D01*
X16324173Y22078393D01*
X16424063Y22306118D01*
X16485107Y22547175D01*
X16485109Y22547187D01*
X16505643Y22794994D01*
X16505643Y22795005D01*
X16485109Y23042812D01*
X16485108Y23042815D01*
X16485108Y23042821D01*
X16424063Y23283881D01*
X16324173Y23511607D01*
X16188164Y23719785D01*
X16019744Y23902738D01*
X15823509Y24055474D01*
X15604810Y24173828D01*
X15369614Y24254571D01*
X15124335Y24295500D01*
X14875665Y24295500D01*
X14630386Y24254571D01*
X14395190Y24173828D01*
X14176491Y24055474D01*
X13980256Y23902738D01*
X13894811Y23809920D01*
X13811833Y23719782D01*
X13675826Y23511606D01*
X13575936Y23283881D01*
X13514892Y23042824D01*
X13514890Y23042812D01*
X13494357Y22795005D01*
X13494357Y22794994D01*
X13514890Y22547187D01*
X13514892Y22547174D01*
X13576007Y22305838D01*
X13573382Y22236018D01*
X13543482Y22187717D01*
X12257584Y20901819D01*
X12196261Y20868334D01*
X12169903Y20865500D01*
X11456116Y20865500D01*
X11389077Y20885185D01*
X11343322Y20937989D01*
X11342560Y20939689D01*
X11324173Y20981606D01*
X11324173Y20981607D01*
X11188164Y21189785D01*
X11019744Y21372738D01*
X10823509Y21525474D01*
X10604810Y21643828D01*
X10369614Y21724571D01*
X10124335Y21765500D01*
X9875665Y21765500D01*
X9630386Y21724571D01*
X9395190Y21643828D01*
X9176491Y21525474D01*
X8980256Y21372738D01*
X8952158Y21342215D01*
X8811833Y21189782D01*
X8675826Y20981606D01*
X8575936Y20753881D01*
X8514892Y20512824D01*
X8514890Y20512812D01*
X8494357Y20265005D01*
X3319240Y20265005D01*
X4396450Y21342215D01*
X4457773Y21375700D01*
X4524393Y21371815D01*
X4630381Y21335429D01*
X4875665Y21294500D01*
X5124335Y21294500D01*
X5369616Y21335429D01*
X5604802Y21416169D01*
X5604811Y21416172D01*
X5823506Y21534524D01*
X5823509Y21534526D01*
X6019744Y21687262D01*
X6188164Y21870215D01*
X6188166Y21870217D01*
X6324173Y22078393D01*
X6424063Y22306118D01*
X6485107Y22547175D01*
X6485109Y22547187D01*
X6505643Y22794994D01*
X6505643Y22795005D01*
X6485109Y23042812D01*
X6485108Y23042815D01*
X6485108Y23042821D01*
X6424063Y23283881D01*
X6324173Y23511607D01*
X6188164Y23719785D01*
X6019744Y23902738D01*
X5823509Y24055474D01*
X5604810Y24173828D01*
X5369614Y24254571D01*
X5124335Y24295500D01*
X4875665Y24295500D01*
X4630386Y24254571D01*
X4395190Y24173828D01*
X4176491Y24055474D01*
X3980256Y23902738D01*
X3894811Y23809920D01*
X3811833Y23719782D01*
X3675826Y23511606D01*
X3575936Y23283881D01*
X3514892Y23042824D01*
X3514890Y23042812D01*
X3494357Y22795005D01*
X3494357Y22794994D01*
X3514890Y22547187D01*
X3514892Y22547174D01*
X3576007Y22305838D01*
X3573382Y22236018D01*
X3543482Y22187717D01*
X2257584Y20901819D01*
X2196261Y20868334D01*
X2169903Y20865500D01*
X1456116Y20865500D01*
X1389077Y20885185D01*
X1343322Y20937989D01*
X1342560Y20939689D01*
X1324173Y20981606D01*
X1324173Y20981607D01*
X1188164Y21189785D01*
X1019744Y21372738D01*
X823509Y21525474D01*
X604810Y21643828D01*
X369614Y21724571D01*
X124335Y21765500D01*
X-124335Y21765500D01*
X-369614Y21724571D01*
X-604810Y21643828D01*
X-823509Y21525474D01*
X-1019744Y21372738D01*
X-1188164Y21189785D01*
X-1324173Y20981607D01*
X-1424063Y20753881D01*
X-1485108Y20512821D01*
X-1485108Y20512815D01*
X-1485109Y20512812D01*
X-1505643Y20265005D01*
X-6165770Y20265005D01*
X-8695770Y22795005D01*
X-6505643Y22795005D01*
X-6505643Y22794994D01*
X-6485109Y22547187D01*
X-6485107Y22547175D01*
X-6424063Y22306118D01*
X-6324173Y22078393D01*
X-6188166Y21870217D01*
X-6188164Y21870215D01*
X-6019744Y21687262D01*
X-5823509Y21534526D01*
X-5823506Y21534524D01*
X-5604811Y21416172D01*
X-5604802Y21416169D01*
X-5369616Y21335429D01*
X-5124335Y21294500D01*
X-4875665Y21294500D01*
X-4630383Y21335429D01*
X-4395197Y21416169D01*
X-4395188Y21416172D01*
X-4176493Y21534524D01*
X-3980257Y21687261D01*
X-3811833Y21870217D01*
X-3675826Y22078393D01*
X-3575936Y22306118D01*
X-3514892Y22547175D01*
X-3514890Y22547187D01*
X-3494357Y22794994D01*
X-3494357Y22795005D01*
X-3514890Y23042812D01*
X-3514892Y23042824D01*
X-3575936Y23283881D01*
X-3675826Y23511606D01*
X-3811833Y23719782D01*
X-3894811Y23809920D01*
X-3980256Y23902738D01*
X-4176491Y24055474D01*
X-4395190Y24173828D01*
X-4630386Y24254571D01*
X-4875665Y24295500D01*
X-5124335Y24295500D01*
X-5369614Y24254571D01*
X-5604810Y24173828D01*
X-5823509Y24055474D01*
X-6019744Y23902738D01*
X-6188164Y23719785D01*
X-6324173Y23511607D01*
X-6424063Y23283881D01*
X-6485108Y23042821D01*
X-6485108Y23042815D01*
X-6485109Y23042812D01*
X-6505643Y22795005D01*
X-8695770Y22795005D01*
X-9055139Y23154374D01*
X-9055149Y23154385D01*
X-9070487Y23169723D01*
X-9171284Y23270520D01*
X-9277749Y23331987D01*
X-9308215Y23349577D01*
X-9460943Y23390501D01*
X-9619057Y23390501D01*
X-9626653Y23390501D01*
X-9626669Y23390500D01*
X-11835816Y23390500D01*
X-11902855Y23410185D01*
X-11948610Y23462989D01*
X-11958554Y23532147D01*
X-11949372Y23564310D01*
X-11901317Y23673864D01*
X-11844361Y23898781D01*
X-11825202Y24129994D01*
X-11825202Y24130005D01*
X-11844361Y24361218D01*
X-11901317Y24586135D01*
X-11994515Y24798606D01*
X-12078812Y24927632D01*
X-12830000Y24176444D01*
X-12830000Y24182661D01*
X-12857259Y24284394D01*
X-12909920Y24375606D01*
X-12984394Y24450080D01*
X-13075606Y24502741D01*
X-13177339Y24530000D01*
X-13183553Y24530000D01*
X-12431201Y25282351D01*
X-12461649Y25306050D01*
X-12665697Y25416476D01*
X-12665706Y25416479D01*
X-12885139Y25491811D01*
X-13113993Y25530000D01*
X-13346007Y25530000D01*
X-13574860Y25491811D01*
X-13794293Y25416479D01*
X-13794301Y25416476D01*
X-13998355Y25306047D01*
X-14028797Y25282351D01*
X-14028798Y25282350D01*
X-13276448Y24530000D01*
X-13282661Y24530000D01*
X-13384394Y24502741D01*
X-13475606Y24450080D01*
X-13550080Y24375606D01*
X-13602741Y24284394D01*
X-13630000Y24182661D01*
X-13630000Y24176447D01*
X-14381185Y24927632D01*
X-14395891Y24905125D01*
X-14449037Y24859768D01*
X-14518268Y24850344D01*
X-14581604Y24879846D01*
X-14603509Y24905124D01*
X-14661018Y24993149D01*
X-14661019Y24993150D01*
X-14661021Y24993153D01*
X-14818216Y25163913D01*
X-14840975Y25181627D01*
X-15001365Y25306464D01*
X-15001371Y25306468D01*
X-15001372Y25306468D01*
X-15001374Y25306470D01*
X-15204647Y25416476D01*
X-15205495Y25416935D01*
X-15205497Y25416936D01*
X-15319487Y25456068D01*
X-15425015Y25492297D01*
X-15425017Y25492297D01*
X-15425019Y25492298D01*
X-15653951Y25530500D01*
X-15886049Y25530500D01*
X-16114981Y25492298D01*
X-16334503Y25416936D01*
X-16538626Y25306470D01*
X-16538631Y25306465D01*
X-16538634Y25306464D01*
X-16569614Y25282351D01*
X-16721784Y25163913D01*
X-16878979Y24993153D01*
X-17005924Y24798849D01*
X-17099157Y24586300D01*
X-17141810Y24417866D01*
X-17156133Y24361308D01*
X-17156135Y24361297D01*
X-17175300Y24130006D01*
X-17175300Y24129993D01*
X-17156135Y23898702D01*
X-17156133Y23898691D01*
X-17099157Y23673699D01*
X-17005924Y23461151D01*
X-16878983Y23266852D01*
X-16878980Y23266849D01*
X-16878979Y23266847D01*
X-16721784Y23096087D01*
X-16544181Y22957854D01*
X-16503368Y22901143D01*
X-16499693Y22831370D01*
X-16534324Y22770687D01*
X-16544176Y22762149D01*
X-16721784Y22623913D01*
X-16878979Y22453153D01*
X-17005924Y22258849D01*
X-17099157Y22046300D01*
X-17143747Y21870217D01*
X-17156133Y21821308D01*
X-17156135Y21821297D01*
X-17175300Y21590006D01*
X-17175300Y21589993D01*
X-17156135Y21358702D01*
X-17156133Y21358691D01*
X-17099157Y21133699D01*
X-17005924Y20921151D01*
X-16878983Y20726852D01*
X-16878980Y20726849D01*
X-16878979Y20726847D01*
X-16721784Y20556087D01*
X-16544181Y20417854D01*
X-16503368Y20361143D01*
X-16499693Y20291370D01*
X-16534324Y20230687D01*
X-16544176Y20222149D01*
X-16721784Y20083913D01*
X-16878979Y19913153D01*
X-17005924Y19718849D01*
X-17099157Y19506300D01*
X-17154284Y19288608D01*
X-17156133Y19281308D01*
X-17156135Y19281297D01*
X-17175300Y19050006D01*
X-17175300Y19049993D01*
X-17156135Y18818702D01*
X-17156133Y18818691D01*
X-17099157Y18593699D01*
X-17005924Y18381151D01*
X-16878983Y18186852D01*
X-16878980Y18186849D01*
X-16878979Y18186847D01*
X-16721784Y18016087D01*
X-16544181Y17877854D01*
X-16503368Y17821143D01*
X-16499693Y17751370D01*
X-16534324Y17690687D01*
X-16544176Y17682149D01*
X-16721784Y17543913D01*
X-16878979Y17373153D01*
X-17005924Y17178849D01*
X-17005924Y17178848D01*
X-17099157Y16966300D01*
X-17156133Y16741308D01*
X-17156135Y16741297D01*
X-17175300Y16510006D01*
X-17175300Y16509993D01*
X-17156135Y16278702D01*
X-17156133Y16278691D01*
X-17099157Y16053699D01*
X-17005924Y15841151D01*
X-16878983Y15646852D01*
X-16878980Y15646849D01*
X-16878979Y15646847D01*
X-16721784Y15476087D01*
X-16544181Y15337854D01*
X-16503368Y15281143D01*
X-16499693Y15211370D01*
X-16534324Y15150687D01*
X-16544176Y15142149D01*
X-16721784Y15003913D01*
X-16878979Y14833153D01*
X-17005924Y14638849D01*
X-17099157Y14426300D01*
X-17143747Y14250217D01*
X-17156133Y14201308D01*
X-17156135Y14201297D01*
X-17175300Y13970006D01*
X-17175300Y13969993D01*
X-17156135Y13738702D01*
X-17156133Y13738691D01*
X-17099157Y13513699D01*
X-17005924Y13301151D01*
X-16878983Y13106852D01*
X-16878980Y13106849D01*
X-16878979Y13106847D01*
X-16721784Y12936087D01*
X-16684329Y12906935D01*
X-16544181Y12797854D01*
X-16503368Y12741143D01*
X-16499693Y12671370D01*
X-16534324Y12610687D01*
X-16544176Y12602149D01*
X-16721784Y12463913D01*
X-16878979Y12293153D01*
X-17005924Y12098849D01*
X-17005924Y12098848D01*
X-17099157Y11886300D01*
X-17156133Y11661308D01*
X-17156135Y11661297D01*
X-17175300Y11430006D01*
X-17175300Y11429993D01*
X-17156135Y11198702D01*
X-17156133Y11198691D01*
X-17099157Y10973699D01*
X-17005924Y10761151D01*
X-16878983Y10566852D01*
X-16878980Y10566849D01*
X-16878979Y10566847D01*
X-16721784Y10396087D01*
X-16547414Y10260370D01*
X-16544181Y10257854D01*
X-16503368Y10201143D01*
X-16499693Y10131370D01*
X-16534324Y10070687D01*
X-16544176Y10062149D01*
X-16721784Y9923913D01*
X-16878979Y9753153D01*
X-17005924Y9558849D01*
X-17052467Y9452741D01*
X-17099157Y9346300D01*
X-17156133Y9121308D01*
X-17156135Y9121297D01*
X-17175300Y8890006D01*
X-17175300Y8889993D01*
X-17156135Y8658702D01*
X-17156133Y8658691D01*
X-17099157Y8433699D01*
X-17005924Y8221151D01*
X-16878983Y8026852D01*
X-16878980Y8026849D01*
X-16878979Y8026847D01*
X-16721784Y7856087D01*
X-16626193Y7781686D01*
X-16544181Y7717854D01*
X-16503368Y7661143D01*
X-16499693Y7591370D01*
X-16534324Y7530687D01*
X-16544176Y7522149D01*
X-16721784Y7383913D01*
X-16878979Y7213153D01*
X-17005924Y7018849D01*
X-17052467Y6912741D01*
X-17099157Y6806300D01*
X-17156133Y6581308D01*
X-17156135Y6581297D01*
X-17175300Y6350006D01*
X-17175300Y6349993D01*
X-17156135Y6118702D01*
X-17156133Y6118691D01*
X-17099157Y5893699D01*
X-17005924Y5681151D01*
X-16878983Y5486852D01*
X-16878980Y5486849D01*
X-16878979Y5486847D01*
X-16721784Y5316087D01*
X-16564585Y5193735D01*
X-16544181Y5177854D01*
X-16503368Y5121143D01*
X-16499693Y5051370D01*
X-16534324Y4990687D01*
X-16544176Y4982149D01*
X-16721784Y4843913D01*
X-16878979Y4673153D01*
X-17005924Y4478849D01*
X-17014131Y4460139D01*
X-17099157Y4266300D01*
X-17156133Y4041308D01*
X-17156135Y4041297D01*
X-17175300Y3810006D01*
X-17175300Y3809993D01*
X-17156135Y3578702D01*
X-17156133Y3578691D01*
X-17099157Y3353699D01*
X-17005924Y3141151D01*
X-16878983Y2946852D01*
X-16878980Y2946849D01*
X-16878979Y2946847D01*
X-16721784Y2776087D01*
X-16662571Y2730000D01*
X-16544181Y2637854D01*
X-16503368Y2581143D01*
X-16499693Y2511370D01*
X-16534324Y2450687D01*
X-16544176Y2442149D01*
X-16721784Y2303913D01*
X-16878979Y2133153D01*
X-17005924Y1938849D01*
X-17015815Y1916300D01*
X-17099157Y1726300D01*
X-17156133Y1501308D01*
X-17156135Y1501297D01*
X-17175300Y1270006D01*
X-17175300Y1269993D01*
X-17156135Y1038702D01*
X-17156133Y1038691D01*
X-17099157Y813699D01*
X-17005924Y601151D01*
X-16878983Y406852D01*
X-16878980Y406849D01*
X-16878979Y406847D01*
X-16721784Y236087D01*
X-16543772Y97535D01*
X-16502961Y40828D01*
X-16499286Y-28945D01*
X-16533917Y-89629D01*
X-16543773Y-98169D01*
X-16568797Y-117646D01*
X-16568797Y-117647D01*
X-15816447Y-870000D01*
X-15822661Y-870000D01*
X-15924394Y-897259D01*
X-16015606Y-949920D01*
X-16090080Y-1024394D01*
X-16142741Y-1115606D01*
X-16170000Y-1217339D01*
X-16170000Y-1223551D01*
X-16921186Y-472365D01*
X-17005484Y-601393D01*
X-17098682Y-813864D01*
X-17155638Y-1038781D01*
X-17174798Y-1269994D01*
X-17174798Y-1270005D01*
X-17155638Y-1501218D01*
X-17098682Y-1726135D01*
X-17005482Y-1938611D01*
X-16921186Y-2067633D01*
X-16170000Y-1316447D01*
X-16170000Y-1322661D01*
X-16142741Y-1424394D01*
X-16090080Y-1515606D01*
X-16015606Y-1590080D01*
X-15924394Y-1642741D01*
X-15822661Y-1670000D01*
X-15816448Y-1670000D01*
X-16568798Y-2422350D01*
X-16568797Y-2422352D01*
X-16543772Y-2441831D01*
X-16502960Y-2498541D01*
X-16499287Y-2568314D01*
X-16533919Y-2628997D01*
X-16543772Y-2637535D01*
X-16721784Y-2776087D01*
X-16878979Y-2946847D01*
X-16878980Y-2946849D01*
X-16878983Y-2946852D01*
X-17005924Y-3141151D01*
X-17099157Y-3353699D01*
X-17156133Y-3578691D01*
X-17156135Y-3578702D01*
X-17175300Y-3809993D01*
X-17175300Y-3810006D01*
X-17169714Y-3877415D01*
X-17156134Y-4041305D01*
X-17099157Y-4266300D01*
X-17005924Y-4478849D01*
X-16878979Y-4673153D01*
X-16721784Y-4843913D01*
X-16544181Y-4982146D01*
X-16503368Y-5038857D01*
X-16499693Y-5108630D01*
X-16534324Y-5169313D01*
X-16544176Y-5177850D01*
X-16721784Y-5316087D01*
X-16878979Y-5486847D01*
X-16878980Y-5486849D01*
X-16878983Y-5486852D01*
X-17005924Y-5681151D01*
X-17099157Y-5893699D01*
X-17156133Y-6118691D01*
X-17156135Y-6118702D01*
X-17175300Y-6349993D01*
X-17175300Y-6350006D01*
X-17157265Y-6567657D01*
X-17156134Y-6581305D01*
X-17099157Y-6806300D01*
X-17005924Y-7018849D01*
X-16878979Y-7213153D01*
X-16721784Y-7383913D01*
X-16555901Y-7513024D01*
X-16544181Y-7522146D01*
X-16503368Y-7578857D01*
X-16499693Y-7648630D01*
X-16534324Y-7709313D01*
X-16544176Y-7717850D01*
X-16721784Y-7856087D01*
X-16878979Y-8026847D01*
X-16878980Y-8026849D01*
X-16878983Y-8026852D01*
X-17005923Y-8221149D01*
X-17065786Y-8357622D01*
X-17110742Y-8411107D01*
X-17177478Y-8431797D01*
X-17244806Y-8413122D01*
X-17291349Y-8361012D01*
X-17301263Y-8330421D01*
X-17356371Y-8033259D01*
X-17462283Y-7657953D01*
X-17462292Y-7657927D01*
X-17602113Y-7293916D01*
X-17774683Y-6944213D01*
X-17774692Y-6944196D01*
X-17978552Y-6611770D01*
X-17978560Y-6611758D01*
X-18211998Y-6299391D01*
X-18293016Y-6209431D01*
X-18293249Y-6209138D01*
X-18340804Y-6156368D01*
X-18344108Y-6152548D01*
X-18558932Y-5893700D01*
X-18573377Y-5876293D01*
X-18579502Y-5868270D01*
X-18579506Y-5868265D01*
X-18588036Y-5856090D01*
X-18784077Y-5576327D01*
X-18789532Y-5567825D01*
X-18969660Y-5260205D01*
X-18974406Y-5251286D01*
X-19128901Y-4930007D01*
X-19132904Y-4920731D01*
X-19260719Y-4587974D01*
X-19263955Y-4578404D01*
X-19364269Y-4236310D01*
X-19366714Y-4226507D01*
X-19438839Y-3877415D01*
X-19440479Y-3867447D01*
X-19483950Y-3513614D01*
X-19484772Y-3503544D01*
X-19499397Y-3144839D01*
X-19499500Y-3139788D01*
X-19499500Y21997293D01*
X-19499382Y22002702D01*
X-19482614Y22386751D01*
X-19481671Y22397527D01*
X-19431850Y22775955D01*
X-19429972Y22786609D01*
X-19347353Y23159275D01*
X-19344553Y23169723D01*
X-19229775Y23533754D01*
X-19226075Y23543920D01*
X-19080002Y23896572D01*
X-19075430Y23906376D01*
X-18899183Y24244942D01*
X-18893775Y24254310D01*
X-18688681Y24576244D01*
X-18682476Y24585105D01*
X-18450110Y24887930D01*
X-18443156Y24896217D01*
X-18185284Y25177635D01*
X-18177635Y25185284D01*
X-17896217Y25443156D01*
X-17887930Y25450110D01*
X-17585098Y25682481D01*
X-17576237Y25688685D01*
X-17254320Y25893770D01*
X-17244952Y25899179D01*
X-16906376Y26075430D01*
X-16896572Y26080002D01*
X-16543921Y26226075D01*
X-16533755Y26229775D01*
X-16169722Y26344554D01*
X-16159273Y26347354D01*
X-15786611Y26429971D01*
X-15775958Y26431849D01*
X-15397527Y26481671D01*
X-15386751Y26482614D01*
X-15002704Y26499382D01*
X-14997295Y26499500D01*
X-14934109Y26499500D01*
X14934108Y26499500D01*
X14997294Y26499500D01*
X15002703Y26499382D01*
G37*
%TD.AperFunction*%
%TA.AperFunction,Conductor*%
G36*
X-14618812Y-19847633D02*
G01*
X-14604107Y-19825125D01*
X-14550960Y-19779769D01*
X-14481729Y-19770345D01*
X-14418393Y-19799847D01*
X-14396492Y-19825122D01*
X-14338979Y-19913153D01*
X-14181784Y-20083913D01*
X-14004586Y-20221831D01*
X-14004181Y-20222146D01*
X-13963368Y-20278857D01*
X-13959693Y-20348630D01*
X-13994324Y-20409313D01*
X-14004176Y-20417850D01*
X-14181784Y-20556087D01*
X-14338979Y-20726847D01*
X-14338980Y-20726849D01*
X-14338983Y-20726852D01*
X-14396191Y-20814416D01*
X-14449338Y-20859773D01*
X-14518569Y-20869197D01*
X-14581905Y-20839695D01*
X-14603809Y-20814416D01*
X-14661016Y-20726852D01*
X-14818218Y-20556085D01*
X-14996226Y-20417535D01*
X-15037039Y-20360825D01*
X-15040712Y-20291051D01*
X-15006081Y-20230368D01*
X-14996226Y-20221829D01*
X-14971201Y-20202351D01*
X-15723553Y-19450000D01*
X-15717339Y-19450000D01*
X-15615606Y-19422741D01*
X-15524394Y-19370080D01*
X-15449920Y-19295606D01*
X-15397259Y-19204394D01*
X-15370000Y-19102661D01*
X-15370000Y-19096445D01*
X-14618812Y-19847633D01*
G37*
%TD.AperFunction*%
%TA.AperFunction,Conductor*%
G36*
X-14418096Y-17260304D02*
G01*
X-14396192Y-17285581D01*
X-14338979Y-17373153D01*
X-14181784Y-17543913D01*
X-14015946Y-17672989D01*
X-14004181Y-17682146D01*
X-13963368Y-17738857D01*
X-13959693Y-17808630D01*
X-13994324Y-17869313D01*
X-14004176Y-17877850D01*
X-14181784Y-18016087D01*
X-14338979Y-18186847D01*
X-14338980Y-18186849D01*
X-14338981Y-18186850D01*
X-14396489Y-18274873D01*
X-14449636Y-18320229D01*
X-14518867Y-18329653D01*
X-14582203Y-18300151D01*
X-14604106Y-18274873D01*
X-14618811Y-18252365D01*
X-15370000Y-19003554D01*
X-15370000Y-18997339D01*
X-15397259Y-18895606D01*
X-15449920Y-18804394D01*
X-15524394Y-18729920D01*
X-15615606Y-18677259D01*
X-15717339Y-18650000D01*
X-15723554Y-18650000D01*
X-14971200Y-17897647D01*
X-14971201Y-17897646D01*
X-14996225Y-17878170D01*
X-15037038Y-17821460D01*
X-15040713Y-17751687D01*
X-15006082Y-17691003D01*
X-14996225Y-17682462D01*
X-14984054Y-17672989D01*
X-14818216Y-17543913D01*
X-14661021Y-17373153D01*
X-14661019Y-17373151D01*
X-14661016Y-17373147D01*
X-14603809Y-17285583D01*
X-14550663Y-17240226D01*
X-14481432Y-17230802D01*
X-14418096Y-17260304D01*
G37*
%TD.AperFunction*%
%TA.AperFunction,Conductor*%
G36*
X-1413611Y11514376D02*
G01*
X-436819Y10537584D01*
X-403334Y10476261D01*
X-400500Y10449903D01*
X-400500Y-4368531D01*
X-420185Y-4435570D01*
X-436819Y-4456212D01*
X-910945Y-4930338D01*
X-972268Y-4963823D01*
X-998626Y-4966657D01*
X-2103830Y-4966657D01*
X-2170869Y-4946972D01*
X-2216624Y-4894168D01*
X-2226568Y-4825010D01*
X-2197543Y-4761454D01*
X-2179992Y-4744804D01*
X-2063222Y-4653918D01*
X-2063219Y-4653915D01*
X-2063216Y-4653913D01*
X-1906021Y-4483153D01*
X-1906019Y-4483151D01*
X-1906016Y-4483147D01*
X-1779075Y-4288848D01*
X-1685842Y-4076300D01*
X-1628866Y-3851308D01*
X-1628864Y-3851297D01*
X-1609700Y-3620006D01*
X-1609700Y-3619993D01*
X-1628864Y-3388702D01*
X-1628866Y-3388691D01*
X-1685842Y-3163699D01*
X-1779075Y-2951151D01*
X-1906016Y-2756852D01*
X-2063219Y-2586084D01*
X-2063222Y-2586081D01*
X-2240818Y-2447853D01*
X-2281631Y-2391143D01*
X-2285306Y-2321370D01*
X-2250674Y-2260687D01*
X-2240818Y-2252147D01*
X-2063222Y-2113918D01*
X-2063219Y-2113915D01*
X-2063216Y-2113913D01*
X-1906021Y-1943153D01*
X-1906019Y-1943151D01*
X-1906016Y-1943147D01*
X-1779075Y-1748848D01*
X-1685842Y-1536300D01*
X-1628866Y-1311308D01*
X-1628864Y-1311297D01*
X-1609700Y-1080006D01*
X-1609700Y-1079993D01*
X-1628864Y-848702D01*
X-1628866Y-848691D01*
X-1685842Y-623699D01*
X-1779075Y-411151D01*
X-1906016Y-216852D01*
X-2063219Y-46084D01*
X-2063222Y-46081D01*
X-2240818Y92147D01*
X-2281631Y148857D01*
X-2285306Y218630D01*
X-2250674Y279313D01*
X-2240818Y287853D01*
X-2063222Y426081D01*
X-2063219Y426084D01*
X-1906016Y596852D01*
X-1779075Y791151D01*
X-1685842Y1003699D01*
X-1628866Y1228691D01*
X-1628864Y1228702D01*
X-1609700Y1459993D01*
X-1609700Y1460006D01*
X-1628864Y1691297D01*
X-1628866Y1691308D01*
X-1685842Y1916300D01*
X-1779075Y2128848D01*
X-1906016Y2323147D01*
X-1906019Y2323151D01*
X-1906021Y2323153D01*
X-2063216Y2493913D01*
X-2069568Y2498857D01*
X-2240818Y2632147D01*
X-2281631Y2688857D01*
X-2285306Y2758630D01*
X-2250674Y2819313D01*
X-2240818Y2827853D01*
X-2063222Y2966081D01*
X-2063219Y2966084D01*
X-1906016Y3136852D01*
X-1779075Y3331151D01*
X-1685842Y3543699D01*
X-1628866Y3768691D01*
X-1628864Y3768702D01*
X-1609700Y3999993D01*
X-1609700Y4000006D01*
X-1628864Y4231297D01*
X-1628866Y4231308D01*
X-1685842Y4456300D01*
X-1779075Y4668848D01*
X-1906016Y4863147D01*
X-1906019Y4863151D01*
X-1906021Y4863153D01*
X-2063216Y5033913D01*
X-2063222Y5033918D01*
X-2240818Y5172147D01*
X-2281631Y5228857D01*
X-2285306Y5298630D01*
X-2250674Y5359313D01*
X-2240818Y5367853D01*
X-2063222Y5506081D01*
X-2063219Y5506084D01*
X-1906016Y5676852D01*
X-1779075Y5871151D01*
X-1685842Y6083699D01*
X-1628866Y6308691D01*
X-1628864Y6308702D01*
X-1609700Y6539993D01*
X-1609700Y6540006D01*
X-1628864Y6771297D01*
X-1628866Y6771308D01*
X-1685842Y6996300D01*
X-1779075Y7208848D01*
X-1906016Y7403147D01*
X-1906019Y7403151D01*
X-1906021Y7403153D01*
X-2063216Y7573913D01*
X-2241225Y7712462D01*
X-2282038Y7769173D01*
X-2285713Y7838946D01*
X-2251082Y7899629D01*
X-2241225Y7908170D01*
X-2216201Y7927646D01*
X-2216200Y7927648D01*
X-2968552Y8680000D01*
X-2962339Y8680000D01*
X-2860606Y8707259D01*
X-2769394Y8759920D01*
X-2694920Y8834394D01*
X-2642259Y8925606D01*
X-2615000Y9027339D01*
X-2615000Y9033554D01*
X-1863811Y8282365D01*
X-1779516Y8411390D01*
X-1686317Y8623864D01*
X-1629361Y8848781D01*
X-1610202Y9079994D01*
X-1610202Y9080005D01*
X-1629361Y9311218D01*
X-1686317Y9536135D01*
X-1779515Y9748606D01*
X-1863812Y9877633D01*
X-2615000Y9126445D01*
X-2615000Y9132661D01*
X-2642259Y9234394D01*
X-2694920Y9325606D01*
X-2769394Y9400080D01*
X-2860606Y9452741D01*
X-2962339Y9480000D01*
X-2968553Y9480000D01*
X-2216201Y10232351D01*
X-2241226Y10251829D01*
X-2282038Y10308539D01*
X-2285713Y10378312D01*
X-2251081Y10438995D01*
X-2241226Y10447535D01*
X-2063218Y10586085D01*
X-1906016Y10756852D01*
X-1779075Y10951151D01*
X-1685842Y11163699D01*
X-1628866Y11388691D01*
X-1628864Y11388703D01*
X-1624868Y11436935D01*
X-1599715Y11502120D01*
X-1543313Y11543358D01*
X-1473569Y11547556D01*
X-1413611Y11514376D01*
G37*
%TD.AperFunction*%
%TA.AperFunction,Conductor*%
G36*
X-9773058Y22169815D02*
G01*
X-9752416Y22153181D01*
X-9536099Y21936864D01*
X-9502614Y21875541D01*
X-9507598Y21805849D01*
X-9549470Y21749916D01*
X-9614934Y21725499D01*
X-9644186Y21726873D01*
X-9875665Y21765500D01*
X-10124335Y21765500D01*
X-10369614Y21724571D01*
X-10604810Y21643828D01*
X-10823509Y21525474D01*
X-11019744Y21372738D01*
X-11188164Y21189785D01*
X-11324173Y20981607D01*
X-11424063Y20753881D01*
X-11485108Y20512821D01*
X-11485108Y20512815D01*
X-11485109Y20512812D01*
X-11505643Y20265005D01*
X-11505643Y20264994D01*
X-11485109Y20017187D01*
X-11485107Y20017175D01*
X-11424063Y19776118D01*
X-11405745Y19734358D01*
X-11324173Y19548393D01*
X-11192980Y19347587D01*
X-11172793Y19280698D01*
X-11191973Y19213512D01*
X-11237366Y19170932D01*
X-11242092Y19168351D01*
X-11357187Y19082190D01*
X-11357190Y19082187D01*
X-11443350Y18967093D01*
X-11443354Y18967086D01*
X-11493596Y18832379D01*
X-11493598Y18832372D01*
X-11499999Y18772844D01*
X-11500000Y18772827D01*
X-11500000Y17975000D01*
X-10375278Y17975000D01*
X-10419333Y17898694D01*
X-10450000Y17784244D01*
X-10450000Y17665756D01*
X-10419333Y17551306D01*
X-10375278Y17475000D01*
X-11500000Y17475000D01*
X-11500000Y16677172D01*
X-11499999Y16677155D01*
X-11493598Y16617627D01*
X-11493596Y16617620D01*
X-11443354Y16482913D01*
X-11443350Y16482906D01*
X-11357190Y16367812D01*
X-11357187Y16367809D01*
X-11242093Y16281649D01*
X-11242086Y16281645D01*
X-11107379Y16231403D01*
X-11107372Y16231401D01*
X-11047844Y16225000D01*
X-10250000Y16225000D01*
X-10250000Y17349722D01*
X-10173694Y17305667D01*
X-10059244Y17275000D01*
X-9940756Y17275000D01*
X-9826306Y17305667D01*
X-9750000Y17349722D01*
X-9750000Y16225000D01*
X-8952155Y16225000D01*
X-8892627Y16231401D01*
X-8892620Y16231403D01*
X-8757913Y16281645D01*
X-8757906Y16281649D01*
X-8642812Y16367809D01*
X-8642809Y16367812D01*
X-8556649Y16482906D01*
X-8556645Y16482913D01*
X-8506403Y16617620D01*
X-8506401Y16617627D01*
X-8500000Y16677155D01*
X-8500000Y17475000D01*
X-9624722Y17475000D01*
X-9580667Y17551306D01*
X-9550000Y17665756D01*
X-9550000Y17784244D01*
X-9580667Y17898694D01*
X-9624722Y17975000D01*
X-8500000Y17975000D01*
X-8500000Y18772844D01*
X-8506401Y18832372D01*
X-8506403Y18832379D01*
X-8556645Y18967086D01*
X-8556649Y18967093D01*
X-8642809Y19082187D01*
X-8642812Y19082190D01*
X-8757908Y19168352D01*
X-8762637Y19170934D01*
X-8812042Y19220339D01*
X-8826894Y19288612D01*
X-8807019Y19347587D01*
X-8675826Y19548393D01*
X-8575936Y19776118D01*
X-8514892Y20017175D01*
X-8514890Y20017187D01*
X-8494357Y20264994D01*
X-8494357Y20265005D01*
X-8514890Y20512812D01*
X-8514892Y20512824D01*
X-8540945Y20615702D01*
X-8538320Y20685522D01*
X-8498364Y20742839D01*
X-8433762Y20769456D01*
X-8365026Y20756922D01*
X-8333058Y20733823D01*
X-7136819Y19537584D01*
X-7103334Y19476261D01*
X-7100500Y19449903D01*
X-7100500Y5034059D01*
X-7100501Y5034046D01*
X-7100501Y5024057D01*
X-7100501Y4865943D01*
X-7059577Y4713215D01*
X-7038029Y4675894D01*
X-6980520Y4576284D01*
X-6883085Y4478849D01*
X-6864385Y4460149D01*
X-6864374Y4460139D01*
X-4389204Y1984969D01*
X-4355719Y1923646D01*
X-4356679Y1866848D01*
X-4401134Y1691305D01*
X-4401134Y1691299D01*
X-4401135Y1691297D01*
X-4420300Y1460006D01*
X-4420300Y1459993D01*
X-4401135Y1228702D01*
X-4401133Y1228691D01*
X-4344157Y1003699D01*
X-4250924Y791151D01*
X-4123983Y596852D01*
X-4123980Y596849D01*
X-4123979Y596847D01*
X-3966784Y426087D01*
X-3942064Y406847D01*
X-3789181Y287854D01*
X-3748368Y231143D01*
X-3744693Y161370D01*
X-3779324Y100687D01*
X-3789176Y92149D01*
X-3966784Y-46087D01*
X-4123979Y-216847D01*
X-4123980Y-216849D01*
X-4123983Y-216852D01*
X-4250924Y-411151D01*
X-4344157Y-623699D01*
X-4401133Y-848691D01*
X-4401135Y-848702D01*
X-4420300Y-1079993D01*
X-4420300Y-1080000D01*
X-4401134Y-1311305D01*
X-4401133Y-1311308D01*
X-4401131Y-1311317D01*
X-4356680Y-1486847D01*
X-4359304Y-1556667D01*
X-4389204Y-1604969D01*
X-7297416Y-4513181D01*
X-7358739Y-4546666D01*
X-7385097Y-4549500D01*
X-11835270Y-4549500D01*
X-11902309Y-4529815D01*
X-11948064Y-4477011D01*
X-11958008Y-4407853D01*
X-11948826Y-4375690D01*
X-11900842Y-4266300D01*
X-11843866Y-4041308D01*
X-11843864Y-4041297D01*
X-11824700Y-3810006D01*
X-11824700Y-3809993D01*
X-11843864Y-3578702D01*
X-11843866Y-3578691D01*
X-11900842Y-3353699D01*
X-11994075Y-3141151D01*
X-12121016Y-2946852D01*
X-12278219Y-2776084D01*
X-12278222Y-2776081D01*
X-12455818Y-2637853D01*
X-12496631Y-2581143D01*
X-12500306Y-2511370D01*
X-12465674Y-2450687D01*
X-12455818Y-2442147D01*
X-12278222Y-2303918D01*
X-12278219Y-2303915D01*
X-12278216Y-2303913D01*
X-12121021Y-2133153D01*
X-12121019Y-2133151D01*
X-12121016Y-2133147D01*
X-11994075Y-1938848D01*
X-11900842Y-1726300D01*
X-11843866Y-1501308D01*
X-11843864Y-1501297D01*
X-11824700Y-1270006D01*
X-11824700Y-1269993D01*
X-11843864Y-1038702D01*
X-11843866Y-1038691D01*
X-11900842Y-813699D01*
X-11994075Y-601151D01*
X-12121016Y-406852D01*
X-12278219Y-236084D01*
X-12278222Y-236081D01*
X-12455818Y-97853D01*
X-12496631Y-41143D01*
X-12500306Y28630D01*
X-12465674Y89313D01*
X-12455818Y97853D01*
X-12278222Y236081D01*
X-12278219Y236084D01*
X-12121016Y406852D01*
X-11994075Y601151D01*
X-11900842Y813699D01*
X-11843866Y1038691D01*
X-11843864Y1038702D01*
X-11824700Y1269993D01*
X-11824700Y1270006D01*
X-11843864Y1501297D01*
X-11843866Y1501308D01*
X-11900842Y1726300D01*
X-11994075Y1938848D01*
X-12121016Y2133147D01*
X-12121019Y2133151D01*
X-12121021Y2133153D01*
X-12278216Y2303913D01*
X-12278222Y2303918D01*
X-12455818Y2442147D01*
X-12496631Y2498857D01*
X-12500306Y2568630D01*
X-12465674Y2629313D01*
X-12455818Y2637853D01*
X-12278222Y2776081D01*
X-12278219Y2776084D01*
X-12121016Y2946852D01*
X-11994075Y3141151D01*
X-11900842Y3353699D01*
X-11843866Y3578691D01*
X-11843864Y3578702D01*
X-11824700Y3809993D01*
X-11824700Y3810006D01*
X-11843864Y4041297D01*
X-11843866Y4041308D01*
X-11900842Y4266300D01*
X-11994075Y4478848D01*
X-12121016Y4673147D01*
X-12121019Y4673151D01*
X-12121021Y4673153D01*
X-12278216Y4843913D01*
X-12278222Y4843918D01*
X-12455818Y4982147D01*
X-12496631Y5038857D01*
X-12500306Y5108630D01*
X-12465674Y5169313D01*
X-12455818Y5177853D01*
X-12278222Y5316081D01*
X-12278219Y5316084D01*
X-12121016Y5486852D01*
X-11994075Y5681151D01*
X-11900842Y5893699D01*
X-11843866Y6118691D01*
X-11843864Y6118702D01*
X-11824700Y6349993D01*
X-11824700Y6350006D01*
X-11843864Y6581297D01*
X-11843866Y6581308D01*
X-11900842Y6806300D01*
X-11994075Y7018848D01*
X-12121016Y7213147D01*
X-12121019Y7213151D01*
X-12121021Y7213153D01*
X-12278216Y7383913D01*
X-12278222Y7383918D01*
X-12455818Y7522147D01*
X-12496631Y7578857D01*
X-12500306Y7648630D01*
X-12465674Y7709313D01*
X-12455818Y7717853D01*
X-12278222Y7856081D01*
X-12278219Y7856084D01*
X-12121016Y8026852D01*
X-11994075Y8221151D01*
X-11900842Y8433699D01*
X-11843866Y8658691D01*
X-11843864Y8658702D01*
X-11824700Y8889993D01*
X-11824700Y8890006D01*
X-11843864Y9121297D01*
X-11843866Y9121308D01*
X-11900842Y9346300D01*
X-11994075Y9558848D01*
X-12121016Y9753147D01*
X-12121019Y9753151D01*
X-12121021Y9753153D01*
X-12278216Y9923913D01*
X-12278222Y9923918D01*
X-12455818Y10062147D01*
X-12496631Y10118857D01*
X-12500306Y10188630D01*
X-12465674Y10249313D01*
X-12455818Y10257853D01*
X-12278222Y10396081D01*
X-12278219Y10396084D01*
X-12121016Y10566852D01*
X-11994075Y10761151D01*
X-11900842Y10973699D01*
X-11843866Y11198691D01*
X-11843864Y11198702D01*
X-11824700Y11429993D01*
X-11824700Y11430006D01*
X-11843864Y11661297D01*
X-11843866Y11661308D01*
X-11900842Y11886300D01*
X-11994075Y12098848D01*
X-12121016Y12293147D01*
X-12121019Y12293151D01*
X-12121021Y12293153D01*
X-12278216Y12463913D01*
X-12278222Y12463918D01*
X-12455818Y12602147D01*
X-12496631Y12658857D01*
X-12500306Y12728630D01*
X-12465674Y12789313D01*
X-12455818Y12797853D01*
X-12278222Y12936081D01*
X-12278219Y12936084D01*
X-12121016Y13106852D01*
X-11994075Y13301151D01*
X-11900842Y13513699D01*
X-11843866Y13738691D01*
X-11843864Y13738702D01*
X-11824700Y13969993D01*
X-11824700Y13970006D01*
X-11843864Y14201297D01*
X-11843866Y14201308D01*
X-11900842Y14426300D01*
X-11994075Y14638848D01*
X-12121016Y14833147D01*
X-12121019Y14833151D01*
X-12121021Y14833153D01*
X-12278216Y15003913D01*
X-12278222Y15003918D01*
X-12455818Y15142147D01*
X-12496631Y15198857D01*
X-12500306Y15268630D01*
X-12465674Y15329313D01*
X-12455818Y15337853D01*
X-12278222Y15476081D01*
X-12278219Y15476084D01*
X-12121016Y15646852D01*
X-11994075Y15841151D01*
X-11900842Y16053699D01*
X-11843866Y16278691D01*
X-11843864Y16278702D01*
X-11824700Y16509993D01*
X-11824700Y16510006D01*
X-11843864Y16741297D01*
X-11843866Y16741308D01*
X-11900842Y16966300D01*
X-11994075Y17178848D01*
X-12121016Y17373147D01*
X-12121019Y17373151D01*
X-12121021Y17373153D01*
X-12278216Y17543913D01*
X-12278222Y17543918D01*
X-12455818Y17682147D01*
X-12496631Y17738857D01*
X-12500306Y17808630D01*
X-12465674Y17869313D01*
X-12455818Y17877853D01*
X-12278222Y18016081D01*
X-12278219Y18016084D01*
X-12121016Y18186852D01*
X-11994075Y18381151D01*
X-11900842Y18593699D01*
X-11843866Y18818691D01*
X-11843864Y18818702D01*
X-11824700Y19049993D01*
X-11824700Y19050006D01*
X-11843864Y19281297D01*
X-11843866Y19281308D01*
X-11900842Y19506300D01*
X-11994075Y19718848D01*
X-12121016Y19913147D01*
X-12121019Y19913151D01*
X-12121021Y19913153D01*
X-12278216Y20083913D01*
X-12278222Y20083918D01*
X-12455818Y20222147D01*
X-12496631Y20278857D01*
X-12500306Y20348630D01*
X-12465674Y20409313D01*
X-12455818Y20417853D01*
X-12278222Y20556081D01*
X-12278219Y20556084D01*
X-12121016Y20726852D01*
X-11994075Y20921151D01*
X-11900842Y21133699D01*
X-11843866Y21358691D01*
X-11843864Y21358702D01*
X-11824700Y21589993D01*
X-11824700Y21590006D01*
X-11843864Y21821297D01*
X-11843868Y21821317D01*
X-11897996Y22035059D01*
X-11895372Y22104880D01*
X-11855416Y22162197D01*
X-11790815Y22188814D01*
X-11777791Y22189500D01*
X-9840097Y22189500D01*
X-9773058Y22169815D01*
G37*
%TD.AperFunction*%
%TA.AperFunction,Conductor*%
G36*
X-14618812Y-2067633D02*
G01*
X-14604107Y-2045125D01*
X-14550960Y-1999769D01*
X-14481729Y-1990345D01*
X-14418393Y-2019847D01*
X-14396492Y-2045122D01*
X-14338979Y-2133153D01*
X-14181784Y-2303913D01*
X-14004586Y-2441831D01*
X-14004181Y-2442146D01*
X-13963368Y-2498857D01*
X-13959693Y-2568630D01*
X-13994324Y-2629313D01*
X-14004176Y-2637850D01*
X-14181784Y-2776087D01*
X-14338979Y-2946847D01*
X-14338980Y-2946849D01*
X-14338983Y-2946852D01*
X-14396191Y-3034416D01*
X-14449338Y-3079773D01*
X-14518569Y-3089197D01*
X-14581905Y-3059695D01*
X-14603809Y-3034416D01*
X-14661016Y-2946852D01*
X-14818218Y-2776085D01*
X-14996226Y-2637535D01*
X-15037039Y-2580825D01*
X-15040712Y-2511051D01*
X-15006081Y-2450368D01*
X-14996226Y-2441829D01*
X-14971201Y-2422351D01*
X-15723553Y-1670000D01*
X-15717339Y-1670000D01*
X-15615606Y-1642741D01*
X-15524394Y-1590080D01*
X-15449920Y-1515606D01*
X-15397259Y-1424394D01*
X-15370000Y-1322661D01*
X-15370000Y-1316445D01*
X-14618812Y-2067633D01*
G37*
%TD.AperFunction*%
%TA.AperFunction,Conductor*%
G36*
X-14418095Y519695D02*
G01*
X-14396191Y494416D01*
X-14338983Y406852D01*
X-14338980Y406849D01*
X-14338979Y406847D01*
X-14181784Y236087D01*
X-14007821Y100687D01*
X-14004181Y97854D01*
X-13963368Y41143D01*
X-13959693Y-28630D01*
X-13994324Y-89313D01*
X-14004176Y-97850D01*
X-14181784Y-236087D01*
X-14338979Y-406847D01*
X-14338980Y-406849D01*
X-14338981Y-406850D01*
X-14396489Y-494873D01*
X-14449636Y-540229D01*
X-14518867Y-549653D01*
X-14582203Y-520151D01*
X-14604106Y-494873D01*
X-14618811Y-472365D01*
X-15370000Y-1223554D01*
X-15370000Y-1217339D01*
X-15397259Y-1115606D01*
X-15449920Y-1024394D01*
X-15524394Y-949920D01*
X-15615606Y-897259D01*
X-15717339Y-870000D01*
X-15723554Y-870000D01*
X-14971200Y-117647D01*
X-14971201Y-117646D01*
X-14996225Y-98170D01*
X-15037038Y-41460D01*
X-15040713Y28313D01*
X-15006082Y88997D01*
X-14996225Y97538D01*
X-14956205Y128686D01*
X-14824568Y231143D01*
X-14818217Y236086D01*
X-14661016Y406852D01*
X-14603809Y494416D01*
X-14550662Y539773D01*
X-14481431Y549197D01*
X-14418095Y519695D01*
G37*
%TD.AperFunction*%
%TA.AperFunction,Conductor*%
G36*
X-3925397Y14018101D02*
G01*
X-3895088Y13995853D01*
X-3120294Y13221059D01*
X-3086809Y13159736D01*
X-3091793Y13090044D01*
X-3133665Y13034111D01*
X-3187564Y13011069D01*
X-3359981Y12982298D01*
X-3579503Y12906936D01*
X-3783626Y12796470D01*
X-3783631Y12796465D01*
X-3783634Y12796464D01*
X-3845129Y12748600D01*
X-3966784Y12653913D01*
X-4123979Y12483153D01*
X-4250924Y12288849D01*
X-4250924Y12288848D01*
X-4344157Y12076300D01*
X-4401133Y11851308D01*
X-4401135Y11851297D01*
X-4420300Y11620006D01*
X-4420300Y11619993D01*
X-4401135Y11388702D01*
X-4401133Y11388691D01*
X-4344157Y11163699D01*
X-4250924Y10951151D01*
X-4123983Y10756852D01*
X-4123980Y10756849D01*
X-4123979Y10756847D01*
X-3966784Y10586087D01*
X-3904467Y10537584D01*
X-3788774Y10447537D01*
X-3747961Y10390826D01*
X-3744286Y10321053D01*
X-3778917Y10260370D01*
X-3788772Y10251831D01*
X-3813797Y10232352D01*
X-3813798Y10232350D01*
X-3061448Y9480000D01*
X-3067661Y9480000D01*
X-3169394Y9452741D01*
X-3260606Y9400080D01*
X-3335080Y9325606D01*
X-3387741Y9234394D01*
X-3415000Y9132661D01*
X-3415000Y9126447D01*
X-4166186Y9877633D01*
X-4250482Y9748611D01*
X-4343682Y9536135D01*
X-4400638Y9311218D01*
X-4419798Y9080005D01*
X-4419798Y9079994D01*
X-4400638Y8848781D01*
X-4343682Y8623864D01*
X-4250484Y8411393D01*
X-4166186Y8282365D01*
X-3415000Y9033551D01*
X-3415000Y9027339D01*
X-3387741Y8925606D01*
X-3335080Y8834394D01*
X-3260606Y8759920D01*
X-3169394Y8707259D01*
X-3067661Y8680000D01*
X-3061448Y8680000D01*
X-3813797Y7927647D01*
X-3813797Y7927646D01*
X-3788773Y7908169D01*
X-3747961Y7851459D01*
X-3744286Y7781686D01*
X-3778918Y7721003D01*
X-3788760Y7712473D01*
X-3966784Y7573913D01*
X-4123979Y7403153D01*
X-4250924Y7208849D01*
X-4287448Y7125583D01*
X-4344157Y6996300D01*
X-4401133Y6771308D01*
X-4401135Y6771297D01*
X-4420300Y6540006D01*
X-4420300Y6539993D01*
X-4401135Y6308702D01*
X-4401133Y6308691D01*
X-4344157Y6083699D01*
X-4250924Y5871151D01*
X-4123983Y5676852D01*
X-4123980Y5676849D01*
X-4123979Y5676847D01*
X-3966784Y5506087D01*
X-3814610Y5387646D01*
X-3789181Y5367854D01*
X-3748368Y5311143D01*
X-3744693Y5241370D01*
X-3779324Y5180687D01*
X-3789176Y5172149D01*
X-3966784Y5033913D01*
X-4123979Y4863153D01*
X-4250924Y4668849D01*
X-4344157Y4456300D01*
X-4401134Y4231305D01*
X-4420052Y4002984D01*
X-4445206Y3937801D01*
X-4501608Y3896563D01*
X-4571351Y3892365D01*
X-4631310Y3925545D01*
X-5863181Y5157416D01*
X-5896666Y5218739D01*
X-5899500Y5245097D01*
X-5899500Y13747551D01*
X-5879815Y13814590D01*
X-5827011Y13860345D01*
X-5757853Y13870289D01*
X-5716483Y13856606D01*
X-5604816Y13796175D01*
X-5604810Y13796172D01*
X-5604804Y13796170D01*
X-5604802Y13796169D01*
X-5369616Y13715429D01*
X-5124335Y13674500D01*
X-4875665Y13674500D01*
X-4630383Y13715429D01*
X-4395197Y13796169D01*
X-4395188Y13796172D01*
X-4176493Y13914525D01*
X-4176491Y13914526D01*
X-4100500Y13973672D01*
X-4058931Y14006026D01*
X-3993936Y14031668D01*
X-3925397Y14018101D01*
G37*
%TD.AperFunction*%
%TD*%
%TA.AperFunction,NonConductor*%
G36*
X-14418095Y20839695D02*
G01*
X-14396191Y20814416D01*
X-14338983Y20726852D01*
X-14338980Y20726849D01*
X-14338979Y20726847D01*
X-14181784Y20556087D01*
X-14004181Y20417854D01*
X-13963368Y20361143D01*
X-13959693Y20291370D01*
X-13994324Y20230687D01*
X-14004176Y20222149D01*
X-14181784Y20083913D01*
X-14338979Y19913153D01*
X-14393921Y19829057D01*
X-14396191Y19825583D01*
X-14449337Y19780226D01*
X-14518568Y19770802D01*
X-14581904Y19800304D01*
X-14603809Y19825583D01*
X-14606079Y19829057D01*
X-14615379Y19843292D01*
X-14661016Y19913147D01*
X-14661019Y19913151D01*
X-14661021Y19913153D01*
X-14818216Y20083913D01*
X-14818222Y20083918D01*
X-14995818Y20222147D01*
X-15036631Y20278857D01*
X-15040306Y20348630D01*
X-15005674Y20409313D01*
X-14995818Y20417853D01*
X-14818222Y20556081D01*
X-14818219Y20556084D01*
X-14661016Y20726852D01*
X-14603809Y20814416D01*
X-14550662Y20859773D01*
X-14481431Y20869197D01*
X-14418095Y20839695D01*
G37*
%TD.AperFunction*%
%TA.AperFunction,NonConductor*%
G36*
X-14418095Y18299695D02*
G01*
X-14396191Y18274416D01*
X-14338983Y18186852D01*
X-14338980Y18186849D01*
X-14338979Y18186847D01*
X-14181784Y18016087D01*
X-14004181Y17877854D01*
X-13963368Y17821143D01*
X-13959693Y17751370D01*
X-13994324Y17690687D01*
X-14004176Y17682149D01*
X-14181784Y17543913D01*
X-14338979Y17373153D01*
X-14338982Y17373147D01*
X-14338983Y17373147D01*
X-14396191Y17285583D01*
X-14449337Y17240226D01*
X-14518568Y17230802D01*
X-14581904Y17260304D01*
X-14603809Y17285583D01*
X-14661016Y17373147D01*
X-14661019Y17373151D01*
X-14661021Y17373153D01*
X-14818216Y17543913D01*
X-14818222Y17543918D01*
X-14995818Y17682147D01*
X-15036631Y17738857D01*
X-15040306Y17808630D01*
X-15005674Y17869313D01*
X-14995818Y17877853D01*
X-14818222Y18016081D01*
X-14818219Y18016084D01*
X-14661016Y18186852D01*
X-14603809Y18274416D01*
X-14550662Y18319773D01*
X-14481431Y18329197D01*
X-14418095Y18299695D01*
G37*
%TD.AperFunction*%
%TA.AperFunction,NonConductor*%
G36*
X-14418095Y15759695D02*
G01*
X-14396191Y15734416D01*
X-14338983Y15646852D01*
X-14338980Y15646849D01*
X-14338979Y15646847D01*
X-14181784Y15476087D01*
X-14004181Y15337854D01*
X-13963368Y15281143D01*
X-13959693Y15211370D01*
X-13994324Y15150687D01*
X-14004176Y15142149D01*
X-14181784Y15003913D01*
X-14338979Y14833153D01*
X-14338982Y14833147D01*
X-14338983Y14833147D01*
X-14396191Y14745583D01*
X-14449337Y14700226D01*
X-14518568Y14690802D01*
X-14581904Y14720304D01*
X-14603809Y14745583D01*
X-14661016Y14833147D01*
X-14661019Y14833151D01*
X-14661021Y14833153D01*
X-14818216Y15003913D01*
X-14818222Y15003918D01*
X-14995818Y15142147D01*
X-15036631Y15198857D01*
X-15040306Y15268630D01*
X-15005674Y15329313D01*
X-14995818Y15337853D01*
X-14818222Y15476081D01*
X-14818219Y15476084D01*
X-14661016Y15646852D01*
X-14603809Y15734416D01*
X-14550662Y15779773D01*
X-14481431Y15789197D01*
X-14418095Y15759695D01*
G37*
%TD.AperFunction*%
%TA.AperFunction,NonConductor*%
G36*
X-14418095Y13219695D02*
G01*
X-14396191Y13194416D01*
X-14338983Y13106852D01*
X-14338980Y13106849D01*
X-14338979Y13106847D01*
X-14181784Y12936087D01*
X-14144329Y12906935D01*
X-14004181Y12797854D01*
X-13963368Y12741143D01*
X-13959693Y12671370D01*
X-13994324Y12610687D01*
X-14004176Y12602149D01*
X-14181784Y12463913D01*
X-14338979Y12293153D01*
X-14338982Y12293147D01*
X-14338983Y12293147D01*
X-14396191Y12205583D01*
X-14449337Y12160226D01*
X-14518568Y12150802D01*
X-14581904Y12180304D01*
X-14603809Y12205583D01*
X-14661016Y12293147D01*
X-14661019Y12293151D01*
X-14661021Y12293153D01*
X-14818216Y12463913D01*
X-14818222Y12463918D01*
X-14995818Y12602147D01*
X-15036631Y12658857D01*
X-15040306Y12728630D01*
X-15005674Y12789313D01*
X-14995818Y12797853D01*
X-14818222Y12936081D01*
X-14818219Y12936084D01*
X-14661016Y13106852D01*
X-14603809Y13194416D01*
X-14550662Y13239773D01*
X-14481431Y13249197D01*
X-14418095Y13219695D01*
G37*
%TD.AperFunction*%
%TA.AperFunction,NonConductor*%
G36*
X-14418095Y10679695D02*
G01*
X-14396191Y10654416D01*
X-14338983Y10566852D01*
X-14338980Y10566849D01*
X-14338979Y10566847D01*
X-14181784Y10396087D01*
X-14007414Y10260370D01*
X-14004181Y10257854D01*
X-13963368Y10201143D01*
X-13959693Y10131370D01*
X-13994324Y10070687D01*
X-14004176Y10062149D01*
X-14181784Y9923913D01*
X-14338979Y9753153D01*
X-14338982Y9753147D01*
X-14338983Y9753147D01*
X-14396191Y9665583D01*
X-14449337Y9620226D01*
X-14518568Y9610802D01*
X-14581904Y9640304D01*
X-14603809Y9665583D01*
X-14661016Y9753147D01*
X-14661019Y9753151D01*
X-14661021Y9753153D01*
X-14818216Y9923913D01*
X-14818222Y9923918D01*
X-14995818Y10062147D01*
X-15036631Y10118857D01*
X-15040306Y10188630D01*
X-15005674Y10249313D01*
X-14995818Y10257853D01*
X-14818222Y10396081D01*
X-14818219Y10396084D01*
X-14661016Y10566852D01*
X-14603809Y10654416D01*
X-14550662Y10699773D01*
X-14481431Y10709197D01*
X-14418095Y10679695D01*
G37*
%TD.AperFunction*%
%TA.AperFunction,NonConductor*%
G36*
X-14418095Y8139695D02*
G01*
X-14396191Y8114416D01*
X-14338983Y8026852D01*
X-14338980Y8026849D01*
X-14338979Y8026847D01*
X-14181784Y7856087D01*
X-14086193Y7781686D01*
X-14004181Y7717854D01*
X-13963368Y7661143D01*
X-13959693Y7591370D01*
X-13994324Y7530687D01*
X-14004176Y7522149D01*
X-14181784Y7383913D01*
X-14338979Y7213153D01*
X-14338982Y7213147D01*
X-14338983Y7213147D01*
X-14396191Y7125583D01*
X-14449337Y7080226D01*
X-14518568Y7070802D01*
X-14581904Y7100304D01*
X-14603809Y7125583D01*
X-14661016Y7213147D01*
X-14661019Y7213151D01*
X-14661021Y7213153D01*
X-14818216Y7383913D01*
X-14818222Y7383918D01*
X-14995818Y7522147D01*
X-15036631Y7578857D01*
X-15040306Y7648630D01*
X-15005674Y7709313D01*
X-14995818Y7717853D01*
X-14818222Y7856081D01*
X-14818219Y7856084D01*
X-14661016Y8026852D01*
X-14603809Y8114416D01*
X-14550662Y8159773D01*
X-14481431Y8169197D01*
X-14418095Y8139695D01*
G37*
%TD.AperFunction*%
%TA.AperFunction,NonConductor*%
G36*
X-14418095Y5599695D02*
G01*
X-14396191Y5574416D01*
X-14338983Y5486852D01*
X-14338980Y5486849D01*
X-14338979Y5486847D01*
X-14181784Y5316087D01*
X-14024585Y5193735D01*
X-14004181Y5177854D01*
X-13963368Y5121143D01*
X-13959693Y5051370D01*
X-13994324Y4990687D01*
X-14004176Y4982149D01*
X-14181784Y4843913D01*
X-14338979Y4673153D01*
X-14338982Y4673147D01*
X-14338983Y4673147D01*
X-14396191Y4585583D01*
X-14449337Y4540226D01*
X-14518568Y4530802D01*
X-14581904Y4560304D01*
X-14603809Y4585583D01*
X-14661016Y4673147D01*
X-14661019Y4673151D01*
X-14661021Y4673153D01*
X-14818216Y4843913D01*
X-14818222Y4843918D01*
X-14995818Y4982147D01*
X-15036631Y5038857D01*
X-15040306Y5108630D01*
X-15005674Y5169313D01*
X-14995818Y5177853D01*
X-14818222Y5316081D01*
X-14818219Y5316084D01*
X-14661016Y5486852D01*
X-14603809Y5574416D01*
X-14550662Y5619773D01*
X-14481431Y5629197D01*
X-14418095Y5599695D01*
G37*
%TD.AperFunction*%
%TA.AperFunction,NonConductor*%
G36*
X-14418095Y3059695D02*
G01*
X-14396191Y3034416D01*
X-14338983Y2946852D01*
X-14338980Y2946849D01*
X-14338979Y2946847D01*
X-14181784Y2776087D01*
X-14122571Y2730000D01*
X-14004181Y2637854D01*
X-13963368Y2581143D01*
X-13959693Y2511370D01*
X-13994324Y2450687D01*
X-14004176Y2442149D01*
X-14181784Y2303913D01*
X-14338979Y2133153D01*
X-14338982Y2133147D01*
X-14338983Y2133147D01*
X-14396191Y2045583D01*
X-14449337Y2000226D01*
X-14518568Y1990802D01*
X-14581904Y2020304D01*
X-14603809Y2045583D01*
X-14661016Y2133147D01*
X-14661019Y2133151D01*
X-14661021Y2133153D01*
X-14818216Y2303913D01*
X-14818222Y2303918D01*
X-14995818Y2442147D01*
X-15036631Y2498857D01*
X-15040306Y2568630D01*
X-15005674Y2629313D01*
X-14995818Y2637853D01*
X-14818222Y2776081D01*
X-14818219Y2776084D01*
X-14661016Y2946852D01*
X-14603809Y3034416D01*
X-14550662Y3079773D01*
X-14481431Y3089197D01*
X-14418095Y3059695D01*
G37*
%TD.AperFunction*%
%TA.AperFunction,NonConductor*%
G36*
X-4500295Y-3517044D02*
G01*
X-4444362Y-3558916D01*
X-4420052Y-3622984D01*
X-4401134Y-3851305D01*
X-4344157Y-4076300D01*
X-4250924Y-4288849D01*
X-4123979Y-4483153D01*
X-3966784Y-4653913D01*
X-3942072Y-4673147D01*
X-3850008Y-4744804D01*
X-3809195Y-4801514D01*
X-3805520Y-4871287D01*
X-3840152Y-4931970D01*
X-3902093Y-4964297D01*
X-3926170Y-4966657D01*
X-5753060Y-4966657D01*
X-5820099Y-4946972D01*
X-5865854Y-4894168D01*
X-5875798Y-4825010D01*
X-5846773Y-4761454D01*
X-5840741Y-4754976D01*
X-4631310Y-3545545D01*
X-4569987Y-3512060D01*
X-4500295Y-3517044D01*
G37*
%TD.AperFunction*%
%TA.AperFunction,NonConductor*%
G36*
X-14418094Y-4560304D02*
G01*
X-14396195Y-4585577D01*
X-14338979Y-4673153D01*
X-14304745Y-4710340D01*
X-14273824Y-4772989D01*
X-14281682Y-4842415D01*
X-14308294Y-4882002D01*
X-14698140Y-5271848D01*
X-14759463Y-5305333D01*
X-14829155Y-5300349D01*
X-14861983Y-5282020D01*
X-14995818Y-5177852D01*
X-15036631Y-5121142D01*
X-15040306Y-5051369D01*
X-15005674Y-4990686D01*
X-14995819Y-4982146D01*
X-14818216Y-4843913D01*
X-14661021Y-4673153D01*
X-14603808Y-4585582D01*
X-14550661Y-4540226D01*
X-14481430Y-4530802D01*
X-14418094Y-4560304D01*
G37*
%TD.AperFunction*%
%TA.AperFunction,NonConductor*%
G36*
X-9449215Y-6587342D02*
G01*
X-9403460Y-6640146D01*
X-9393516Y-6709304D01*
X-9422541Y-6772860D01*
X-9428573Y-6779338D01*
X-11613689Y-8964454D01*
X-11675012Y-8997939D01*
X-11744704Y-8992955D01*
X-11800637Y-8951083D01*
X-11824946Y-8887013D01*
X-11843864Y-8658703D01*
X-11843866Y-8658691D01*
X-11888320Y-8483151D01*
X-11885695Y-8413331D01*
X-11855795Y-8365030D01*
X-10094741Y-6603976D01*
X-10033418Y-6570491D01*
X-10007060Y-6567657D01*
X-9516254Y-6567657D01*
X-9449215Y-6587342D01*
G37*
%TD.AperFunction*%
%TA.AperFunction,NonConductor*%
G36*
X-14418096Y-12180304D02*
G01*
X-14396192Y-12205581D01*
X-14338979Y-12293153D01*
X-14181784Y-12463913D01*
X-14004181Y-12602146D01*
X-13963368Y-12658857D01*
X-13959693Y-12728630D01*
X-13994324Y-12789313D01*
X-14004176Y-12797850D01*
X-14181784Y-12936087D01*
X-14338979Y-13106847D01*
X-14338980Y-13106849D01*
X-14338983Y-13106852D01*
X-14396191Y-13194416D01*
X-14449338Y-13239773D01*
X-14518569Y-13249197D01*
X-14581905Y-13219695D01*
X-14603809Y-13194416D01*
X-14661016Y-13106852D01*
X-14818219Y-12936084D01*
X-14818222Y-12936081D01*
X-14995818Y-12797853D01*
X-15036631Y-12741143D01*
X-15040306Y-12671370D01*
X-15005674Y-12610687D01*
X-14995818Y-12602147D01*
X-14818222Y-12463918D01*
X-14818219Y-12463915D01*
X-14818216Y-12463913D01*
X-14661021Y-12293153D01*
X-14661019Y-12293151D01*
X-14661016Y-12293147D01*
X-14603809Y-12205583D01*
X-14550663Y-12160226D01*
X-14481432Y-12150802D01*
X-14418096Y-12180304D01*
G37*
%TD.AperFunction*%
%TA.AperFunction,NonConductor*%
G36*
X7373576Y-13520185D02*
G01*
X7419331Y-13572989D01*
X7429275Y-13642147D01*
X7400250Y-13705703D01*
X7394218Y-13712181D01*
X6876037Y-14230361D01*
X6814714Y-14263846D01*
X6745022Y-14258862D01*
X6689089Y-14216990D01*
X6677872Y-14198976D01*
X6662286Y-14168388D01*
X6541971Y-14002786D01*
X6397213Y-13858028D01*
X6231611Y-13737713D01*
X6226255Y-13734984D01*
X6175459Y-13687009D01*
X6158665Y-13619188D01*
X6181203Y-13553053D01*
X6235919Y-13509602D01*
X6282551Y-13500500D01*
X7306537Y-13500500D01*
X7373576Y-13520185D01*
G37*
%TD.AperFunction*%
%TA.AperFunction,NonConductor*%
G36*
X-14418096Y-14720304D02*
G01*
X-14396192Y-14745581D01*
X-14338979Y-14833153D01*
X-14181784Y-15003913D01*
X-14004181Y-15142146D01*
X-13963368Y-15198857D01*
X-13959693Y-15268630D01*
X-13994324Y-15329313D01*
X-14004176Y-15337850D01*
X-14181784Y-15476087D01*
X-14338979Y-15646847D01*
X-14338980Y-15646849D01*
X-14338983Y-15646852D01*
X-14396191Y-15734416D01*
X-14449338Y-15779773D01*
X-14518569Y-15789197D01*
X-14581905Y-15759695D01*
X-14603809Y-15734416D01*
X-14661016Y-15646852D01*
X-14818219Y-15476084D01*
X-14818222Y-15476081D01*
X-14995818Y-15337853D01*
X-15036631Y-15281143D01*
X-15040306Y-15211370D01*
X-15005674Y-15150687D01*
X-14995818Y-15142147D01*
X-14818222Y-15003918D01*
X-14818219Y-15003915D01*
X-14818216Y-15003913D01*
X-14661021Y-14833153D01*
X-14661019Y-14833151D01*
X-14661016Y-14833147D01*
X-14603809Y-14745583D01*
X-14550663Y-14700226D01*
X-14481432Y-14690802D01*
X-14418096Y-14720304D01*
G37*
%TD.AperFunction*%
%TA.AperFunction,NonConductor*%
G36*
X-4294562Y-7009609D02*
G01*
X-4248807Y-7062413D01*
X-4238863Y-7131571D01*
X-4257286Y-7180964D01*
X-4320319Y-7279045D01*
X-4320328Y-7279061D01*
X-4409483Y-7474284D01*
X-4409484Y-7474288D01*
X-4409485Y-7474290D01*
X-4469955Y-7680232D01*
X-4500500Y-7892683D01*
X-4500500Y-7892686D01*
X-4500500Y-7992703D01*
X-4501355Y-8007237D01*
X-4512535Y-8101861D01*
X-4519311Y-8130139D01*
X-4549690Y-8212646D01*
X-4549691Y-8212649D01*
X-4562880Y-8238586D01*
X-4611644Y-8311732D01*
X-4630509Y-8333877D01*
X-4694983Y-8393652D01*
X-4718491Y-8410792D01*
X-4801516Y-8457495D01*
X-4814618Y-8463882D01*
X-4876060Y-8489482D01*
X-4876135Y-8489520D01*
X-5105990Y-8585316D01*
X-5106028Y-8585332D01*
X-5262297Y-8660137D01*
X-5564952Y-8805016D01*
X-5688708Y-8864257D01*
X-6256205Y-9172901D01*
X-6347085Y-9228594D01*
X-6807010Y-9510443D01*
X-7339639Y-9875975D01*
X-7339661Y-9875991D01*
X-7852653Y-10268505D01*
X-7852661Y-10268511D01*
X-7852685Y-10268530D01*
X-8141944Y-10514548D01*
X-8344760Y-10687044D01*
X-8344770Y-10687053D01*
X-8344773Y-10687056D01*
X-8364954Y-10706099D01*
X-8526024Y-10858080D01*
X-8526095Y-10858139D01*
X-8531776Y-10863500D01*
X-8531779Y-10863502D01*
X-8579701Y-10908727D01*
X-8661202Y-10985603D01*
X-8661203Y-10985604D01*
X-8661211Y-10985612D01*
X-8799542Y-11161923D01*
X-8910153Y-11356824D01*
X-8910153Y-11356825D01*
X-8910156Y-11356831D01*
X-8938296Y-11430006D01*
X-8990590Y-11565991D01*
X-8990592Y-11566002D01*
X-9039070Y-11784777D01*
X-9039070Y-11784778D01*
X-9039070Y-11784781D01*
X-9039071Y-11784785D01*
X-9054518Y-12008352D01*
X-9036590Y-12231734D01*
X-8985684Y-12449977D01*
X-8902929Y-12658238D01*
X-8790161Y-12851899D01*
X-8649882Y-13026663D01*
X-8485202Y-13178656D01*
X-8299775Y-13304504D01*
X-8097714Y-13401418D01*
X-7883499Y-13467246D01*
X-7661884Y-13500529D01*
X-7549834Y-13500500D01*
X-7483942Y-13500500D01*
X4017449Y-13500500D01*
X4084488Y-13520185D01*
X4130243Y-13572989D01*
X4140187Y-13642147D01*
X4111162Y-13705703D01*
X4073745Y-13734984D01*
X4068388Y-13737713D01*
X3902786Y-13858028D01*
X3758028Y-14002786D01*
X3637715Y-14168386D01*
X3544781Y-14350776D01*
X3481522Y-14545465D01*
X3449500Y-14747648D01*
X3449500Y-14952351D01*
X3481522Y-15154534D01*
X3544781Y-15349223D01*
X3637715Y-15531613D01*
X3758028Y-15697213D01*
X3902786Y-15841971D01*
X4008584Y-15918836D01*
X4068390Y-15962287D01*
X4184607Y-16021503D01*
X4250776Y-16055218D01*
X4250778Y-16055218D01*
X4250781Y-16055220D01*
X4355137Y-16089127D01*
X4445465Y-16118477D01*
X4546557Y-16134488D01*
X4647648Y-16150500D01*
X4656538Y-16150500D01*
X4723577Y-16170185D01*
X4769332Y-16222989D01*
X4779276Y-16292147D01*
X4750251Y-16355703D01*
X4744219Y-16362181D01*
X4743219Y-16363181D01*
X4681896Y-16396666D01*
X4655538Y-16399500D01*
X-8213940Y-16399500D01*
X-8213956Y-16399499D01*
X-8221552Y-16399499D01*
X-8379667Y-16399499D01*
X-8481485Y-16426781D01*
X-8532395Y-16440423D01*
X-8532400Y-16440426D01*
X-8669319Y-16519475D01*
X-8669324Y-16519479D01*
X-8669326Y-16519480D01*
X-10479498Y-18329653D01*
X-11665382Y-19515537D01*
X-11726705Y-19549022D01*
X-11796397Y-19544038D01*
X-11852330Y-19502166D01*
X-11876747Y-19436702D01*
X-11873269Y-19397416D01*
X-11843866Y-19281308D01*
X-11843864Y-19281297D01*
X-11824700Y-19050006D01*
X-11824700Y-19049993D01*
X-11843864Y-18818702D01*
X-11843866Y-18818691D01*
X-11900842Y-18593699D01*
X-11994075Y-18381151D01*
X-12121016Y-18186852D01*
X-12278219Y-18016084D01*
X-12278222Y-18016081D01*
X-12455818Y-17877853D01*
X-12496631Y-17821143D01*
X-12500306Y-17751370D01*
X-12465674Y-17690687D01*
X-12455818Y-17682147D01*
X-12278222Y-17543918D01*
X-12278219Y-17543915D01*
X-12278216Y-17543913D01*
X-12121021Y-17373153D01*
X-12121019Y-17373151D01*
X-12121016Y-17373147D01*
X-11994075Y-17178848D01*
X-11900842Y-16966300D01*
X-11843866Y-16741308D01*
X-11843864Y-16741297D01*
X-11824700Y-16510006D01*
X-11824700Y-16509993D01*
X-11843864Y-16278702D01*
X-11843866Y-16278691D01*
X-11900842Y-16053699D01*
X-11994075Y-15841151D01*
X-12121016Y-15646852D01*
X-12278219Y-15476084D01*
X-12278222Y-15476081D01*
X-12455818Y-15337853D01*
X-12496631Y-15281143D01*
X-12500306Y-15211370D01*
X-12465674Y-15150687D01*
X-12455818Y-15142147D01*
X-12278222Y-15003918D01*
X-12278219Y-15003915D01*
X-12278216Y-15003913D01*
X-12121021Y-14833153D01*
X-12121019Y-14833151D01*
X-12121016Y-14833147D01*
X-11994075Y-14638848D01*
X-11900842Y-14426300D01*
X-11843866Y-14201308D01*
X-11843864Y-14201297D01*
X-11824700Y-13970006D01*
X-11824700Y-13969993D01*
X-11843864Y-13738702D01*
X-11843866Y-13738691D01*
X-11900842Y-13513699D01*
X-11994075Y-13301151D01*
X-12121016Y-13106852D01*
X-12278219Y-12936084D01*
X-12278222Y-12936081D01*
X-12455818Y-12797853D01*
X-12496631Y-12741143D01*
X-12500306Y-12671370D01*
X-12465674Y-12610687D01*
X-12455818Y-12602147D01*
X-12278222Y-12463918D01*
X-12278219Y-12463915D01*
X-12278216Y-12463913D01*
X-12121021Y-12293153D01*
X-12121019Y-12293151D01*
X-12121016Y-12293147D01*
X-11994075Y-12098848D01*
X-11900842Y-11886300D01*
X-11843866Y-11661308D01*
X-11843864Y-11661297D01*
X-11824700Y-11430006D01*
X-11824700Y-11429993D01*
X-11843864Y-11198702D01*
X-11843866Y-11198691D01*
X-11888320Y-11023151D01*
X-11885695Y-10953331D01*
X-11855795Y-10905030D01*
X-7977008Y-7026243D01*
X-7915685Y-6992758D01*
X-7889327Y-6989924D01*
X-4361601Y-6989924D01*
X-4294562Y-7009609D01*
G37*
%TD.AperFunction*%
%TA.AperFunction,NonConductor*%
G36*
X-14418096Y-22340304D02*
G01*
X-14396192Y-22365581D01*
X-14338979Y-22453153D01*
X-14181784Y-22623913D01*
X-14004181Y-22762146D01*
X-13963368Y-22818857D01*
X-13959693Y-22888630D01*
X-13994324Y-22949313D01*
X-14004176Y-22957850D01*
X-14181784Y-23096087D01*
X-14338979Y-23266847D01*
X-14338980Y-23266849D01*
X-14338983Y-23266852D01*
X-14396191Y-23354416D01*
X-14449338Y-23399773D01*
X-14518569Y-23409197D01*
X-14581905Y-23379695D01*
X-14603809Y-23354416D01*
X-14661016Y-23266852D01*
X-14818219Y-23096084D01*
X-14818222Y-23096081D01*
X-14995818Y-22957853D01*
X-15036631Y-22901143D01*
X-15040306Y-22831370D01*
X-15005674Y-22770687D01*
X-14995818Y-22762147D01*
X-14818222Y-22623918D01*
X-14818219Y-22623915D01*
X-14818216Y-22623913D01*
X-14661021Y-22453153D01*
X-14661019Y-22453151D01*
X-14661016Y-22453147D01*
X-14603809Y-22365583D01*
X-14550663Y-22320226D01*
X-14481432Y-22310802D01*
X-14418096Y-22340304D01*
G37*
%TD.AperFunction*%
M02*
