%TF.GenerationSoftware,KiCad,Pcbnew,8.0.3*%
%TF.CreationDate,2024-09-22T18:07:19+10:00*%
%TF.ProjectId,ChatterBox,43686174-7465-4724-926f-782e6b696361,rev?*%
%TF.SameCoordinates,Original*%
%TF.FileFunction,Legend,Top*%
%TF.FilePolarity,Positive*%
%FSLAX46Y46*%
G04 Gerber Fmt 4.6, Leading zero omitted, Abs format (unit mm)*
G04 Created by KiCad (PCBNEW 8.0.3) date 2024-09-22 18:07:19*
%MOMM*%
%LPD*%
G01*
G04 APERTURE LIST*
%ADD10C,0.100000*%
%ADD11C,0.300000*%
%ADD12C,0.150000*%
%ADD13C,0.120000*%
%ADD14C,0.500000*%
G04 APERTURE END LIST*
D10*
X-3895238Y-36296895D02*
X-3895238Y-36868323D01*
X-3895238Y-36868323D02*
X-3933333Y-36982609D01*
X-3933333Y-36982609D02*
X-4009524Y-37058800D01*
X-4009524Y-37058800D02*
X-4123809Y-37096895D01*
X-4123809Y-37096895D02*
X-4200000Y-37096895D01*
X-3133333Y-37096895D02*
X-3514285Y-37096895D01*
X-3514285Y-37096895D02*
X-3514285Y-36296895D01*
X-2409523Y-37020704D02*
X-2447619Y-37058800D01*
X-2447619Y-37058800D02*
X-2561904Y-37096895D01*
X-2561904Y-37096895D02*
X-2638095Y-37096895D01*
X-2638095Y-37096895D02*
X-2752381Y-37058800D01*
X-2752381Y-37058800D02*
X-2828571Y-36982609D01*
X-2828571Y-36982609D02*
X-2866666Y-36906419D01*
X-2866666Y-36906419D02*
X-2904762Y-36754038D01*
X-2904762Y-36754038D02*
X-2904762Y-36639752D01*
X-2904762Y-36639752D02*
X-2866666Y-36487371D01*
X-2866666Y-36487371D02*
X-2828571Y-36411180D01*
X-2828571Y-36411180D02*
X-2752381Y-36334990D01*
X-2752381Y-36334990D02*
X-2638095Y-36296895D01*
X-2638095Y-36296895D02*
X-2561904Y-36296895D01*
X-2561904Y-36296895D02*
X-2447619Y-36334990D01*
X-2447619Y-36334990D02*
X-2409523Y-36373085D01*
X-1838095Y-36296895D02*
X-1838095Y-36868323D01*
X-1838095Y-36868323D02*
X-1876190Y-36982609D01*
X-1876190Y-36982609D02*
X-1952381Y-37058800D01*
X-1952381Y-37058800D02*
X-2066666Y-37096895D01*
X-2066666Y-37096895D02*
X-2142857Y-37096895D01*
X-1076190Y-37096895D02*
X-1457142Y-37096895D01*
X-1457142Y-37096895D02*
X-1457142Y-36296895D01*
X-352380Y-37020704D02*
X-390476Y-37058800D01*
X-390476Y-37058800D02*
X-504761Y-37096895D01*
X-504761Y-37096895D02*
X-580952Y-37096895D01*
X-580952Y-37096895D02*
X-695238Y-37058800D01*
X-695238Y-37058800D02*
X-771428Y-36982609D01*
X-771428Y-36982609D02*
X-809523Y-36906419D01*
X-809523Y-36906419D02*
X-847619Y-36754038D01*
X-847619Y-36754038D02*
X-847619Y-36639752D01*
X-847619Y-36639752D02*
X-809523Y-36487371D01*
X-809523Y-36487371D02*
X-771428Y-36411180D01*
X-771428Y-36411180D02*
X-695238Y-36334990D01*
X-695238Y-36334990D02*
X-580952Y-36296895D01*
X-580952Y-36296895D02*
X-504761Y-36296895D01*
X-504761Y-36296895D02*
X-390476Y-36334990D01*
X-390476Y-36334990D02*
X-352380Y-36373085D01*
X219047Y-36296895D02*
X219047Y-36868323D01*
X219047Y-36868323D02*
X180952Y-36982609D01*
X180952Y-36982609D02*
X104761Y-37058800D01*
X104761Y-37058800D02*
X-9523Y-37096895D01*
X-9523Y-37096895D02*
X-85714Y-37096895D01*
X980952Y-37096895D02*
X600000Y-37096895D01*
X600000Y-37096895D02*
X600000Y-36296895D01*
X1704762Y-37020704D02*
X1666666Y-37058800D01*
X1666666Y-37058800D02*
X1552381Y-37096895D01*
X1552381Y-37096895D02*
X1476190Y-37096895D01*
X1476190Y-37096895D02*
X1361904Y-37058800D01*
X1361904Y-37058800D02*
X1285714Y-36982609D01*
X1285714Y-36982609D02*
X1247619Y-36906419D01*
X1247619Y-36906419D02*
X1209523Y-36754038D01*
X1209523Y-36754038D02*
X1209523Y-36639752D01*
X1209523Y-36639752D02*
X1247619Y-36487371D01*
X1247619Y-36487371D02*
X1285714Y-36411180D01*
X1285714Y-36411180D02*
X1361904Y-36334990D01*
X1361904Y-36334990D02*
X1476190Y-36296895D01*
X1476190Y-36296895D02*
X1552381Y-36296895D01*
X1552381Y-36296895D02*
X1666666Y-36334990D01*
X1666666Y-36334990D02*
X1704762Y-36373085D01*
X2276190Y-36296895D02*
X2276190Y-36868323D01*
X2276190Y-36868323D02*
X2238095Y-36982609D01*
X2238095Y-36982609D02*
X2161904Y-37058800D01*
X2161904Y-37058800D02*
X2047619Y-37096895D01*
X2047619Y-37096895D02*
X1971428Y-37096895D01*
X3038095Y-37096895D02*
X2657143Y-37096895D01*
X2657143Y-37096895D02*
X2657143Y-36296895D01*
X3761905Y-37020704D02*
X3723809Y-37058800D01*
X3723809Y-37058800D02*
X3609524Y-37096895D01*
X3609524Y-37096895D02*
X3533333Y-37096895D01*
X3533333Y-37096895D02*
X3419047Y-37058800D01*
X3419047Y-37058800D02*
X3342857Y-36982609D01*
X3342857Y-36982609D02*
X3304762Y-36906419D01*
X3304762Y-36906419D02*
X3266666Y-36754038D01*
X3266666Y-36754038D02*
X3266666Y-36639752D01*
X3266666Y-36639752D02*
X3304762Y-36487371D01*
X3304762Y-36487371D02*
X3342857Y-36411180D01*
X3342857Y-36411180D02*
X3419047Y-36334990D01*
X3419047Y-36334990D02*
X3533333Y-36296895D01*
X3533333Y-36296895D02*
X3609524Y-36296895D01*
X3609524Y-36296895D02*
X3723809Y-36334990D01*
X3723809Y-36334990D02*
X3761905Y-36373085D01*
D11*
X-8666666Y-35279733D02*
X-8733333Y-35346400D01*
X-8733333Y-35346400D02*
X-8933333Y-35413066D01*
X-8933333Y-35413066D02*
X-9066666Y-35413066D01*
X-9066666Y-35413066D02*
X-9266666Y-35346400D01*
X-9266666Y-35346400D02*
X-9400000Y-35213066D01*
X-9400000Y-35213066D02*
X-9466666Y-35079733D01*
X-9466666Y-35079733D02*
X-9533333Y-34813066D01*
X-9533333Y-34813066D02*
X-9533333Y-34613066D01*
X-9533333Y-34613066D02*
X-9466666Y-34346400D01*
X-9466666Y-34346400D02*
X-9400000Y-34213066D01*
X-9400000Y-34213066D02*
X-9266666Y-34079733D01*
X-9266666Y-34079733D02*
X-9066666Y-34013066D01*
X-9066666Y-34013066D02*
X-8933333Y-34013066D01*
X-8933333Y-34013066D02*
X-8733333Y-34079733D01*
X-8733333Y-34079733D02*
X-8666666Y-34146400D01*
X-8066666Y-35413066D02*
X-8066666Y-34013066D01*
X-8066666Y-34679733D02*
X-7266666Y-34679733D01*
X-7266666Y-35413066D02*
X-7266666Y-34013066D01*
X-6666666Y-35013066D02*
X-5999999Y-35013066D01*
X-6799999Y-35413066D02*
X-6333333Y-34013066D01*
X-6333333Y-34013066D02*
X-5866666Y-35413066D01*
X-5599999Y-34013066D02*
X-4799999Y-34013066D01*
X-5199999Y-35413066D02*
X-5199999Y-34013066D01*
X-4533332Y-34013066D02*
X-3733332Y-34013066D01*
X-4133332Y-35413066D02*
X-4133332Y-34013066D01*
X-3266665Y-34679733D02*
X-2799999Y-34679733D01*
X-2599999Y-35413066D02*
X-3266665Y-35413066D01*
X-3266665Y-35413066D02*
X-3266665Y-34013066D01*
X-3266665Y-34013066D02*
X-2599999Y-34013066D01*
X-1199998Y-35413066D02*
X-1666665Y-34746400D01*
X-1999998Y-35413066D02*
X-1999998Y-34013066D01*
X-1999998Y-34013066D02*
X-1466665Y-34013066D01*
X-1466665Y-34013066D02*
X-1333332Y-34079733D01*
X-1333332Y-34079733D02*
X-1266665Y-34146400D01*
X-1266665Y-34146400D02*
X-1199998Y-34279733D01*
X-1199998Y-34279733D02*
X-1199998Y-34479733D01*
X-1199998Y-34479733D02*
X-1266665Y-34613066D01*
X-1266665Y-34613066D02*
X-1333332Y-34679733D01*
X-1333332Y-34679733D02*
X-1466665Y-34746400D01*
X-1466665Y-34746400D02*
X-1999998Y-34746400D01*
X-133332Y-34679733D02*
X66667Y-34746400D01*
X66667Y-34746400D02*
X133334Y-34813066D01*
X133334Y-34813066D02*
X200001Y-34946400D01*
X200001Y-34946400D02*
X200001Y-35146400D01*
X200001Y-35146400D02*
X133334Y-35279733D01*
X133334Y-35279733D02*
X66667Y-35346400D01*
X66667Y-35346400D02*
X-66665Y-35413066D01*
X-66665Y-35413066D02*
X-599998Y-35413066D01*
X-599998Y-35413066D02*
X-599998Y-34013066D01*
X-599998Y-34013066D02*
X-133332Y-34013066D01*
X-133332Y-34013066D02*
X1Y-34079733D01*
X1Y-34079733D02*
X66667Y-34146400D01*
X66667Y-34146400D02*
X133334Y-34279733D01*
X133334Y-34279733D02*
X133334Y-34413066D01*
X133334Y-34413066D02*
X66667Y-34546400D01*
X66667Y-34546400D02*
X1Y-34613066D01*
X1Y-34613066D02*
X-133332Y-34679733D01*
X-133332Y-34679733D02*
X-599998Y-34679733D01*
X1066668Y-34013066D02*
X1333334Y-34013066D01*
X1333334Y-34013066D02*
X1466668Y-34079733D01*
X1466668Y-34079733D02*
X1600001Y-34213066D01*
X1600001Y-34213066D02*
X1666667Y-34479733D01*
X1666667Y-34479733D02*
X1666667Y-34946400D01*
X1666667Y-34946400D02*
X1600001Y-35213066D01*
X1600001Y-35213066D02*
X1466668Y-35346400D01*
X1466668Y-35346400D02*
X1333334Y-35413066D01*
X1333334Y-35413066D02*
X1066668Y-35413066D01*
X1066668Y-35413066D02*
X933334Y-35346400D01*
X933334Y-35346400D02*
X800001Y-35213066D01*
X800001Y-35213066D02*
X733334Y-34946400D01*
X733334Y-34946400D02*
X733334Y-34479733D01*
X733334Y-34479733D02*
X800001Y-34213066D01*
X800001Y-34213066D02*
X933334Y-34079733D01*
X933334Y-34079733D02*
X1066668Y-34013066D01*
X2133335Y-34013066D02*
X3066668Y-35413066D01*
X3066668Y-34013066D02*
X2133335Y-35413066D01*
X4533335Y-34479733D02*
X4866668Y-35413066D01*
X4866668Y-35413066D02*
X5200001Y-34479733D01*
X6466668Y-35413066D02*
X5666668Y-35413066D01*
X6066668Y-35413066D02*
X6066668Y-34013066D01*
X6066668Y-34013066D02*
X5933335Y-34213066D01*
X5933335Y-34213066D02*
X5800002Y-34346400D01*
X5800002Y-34346400D02*
X5666668Y-34413066D01*
X7066668Y-34879733D02*
X8133335Y-34879733D01*
X9066668Y-34013066D02*
X9200001Y-34013066D01*
X9200001Y-34013066D02*
X9333334Y-34079733D01*
X9333334Y-34079733D02*
X9400001Y-34146400D01*
X9400001Y-34146400D02*
X9466668Y-34279733D01*
X9466668Y-34279733D02*
X9533334Y-34546400D01*
X9533334Y-34546400D02*
X9533334Y-34879733D01*
X9533334Y-34879733D02*
X9466668Y-35146400D01*
X9466668Y-35146400D02*
X9400001Y-35279733D01*
X9400001Y-35279733D02*
X9333334Y-35346400D01*
X9333334Y-35346400D02*
X9200001Y-35413066D01*
X9200001Y-35413066D02*
X9066668Y-35413066D01*
X9066668Y-35413066D02*
X8933334Y-35346400D01*
X8933334Y-35346400D02*
X8866668Y-35279733D01*
X8866668Y-35279733D02*
X8800001Y-35146400D01*
X8800001Y-35146400D02*
X8733334Y-34879733D01*
X8733334Y-34879733D02*
X8733334Y-34546400D01*
X8733334Y-34546400D02*
X8800001Y-34279733D01*
X8800001Y-34279733D02*
X8866668Y-34146400D01*
X8866668Y-34146400D02*
X8933334Y-34079733D01*
X8933334Y-34079733D02*
X9066668Y-34013066D01*
D12*
X5454819Y18818333D02*
X4978628Y18485000D01*
X5454819Y18246905D02*
X4454819Y18246905D01*
X4454819Y18246905D02*
X4454819Y18627857D01*
X4454819Y18627857D02*
X4502438Y18723095D01*
X4502438Y18723095D02*
X4550057Y18770714D01*
X4550057Y18770714D02*
X4645295Y18818333D01*
X4645295Y18818333D02*
X4788152Y18818333D01*
X4788152Y18818333D02*
X4883390Y18770714D01*
X4883390Y18770714D02*
X4931009Y18723095D01*
X4931009Y18723095D02*
X4978628Y18627857D01*
X4978628Y18627857D02*
X4978628Y18246905D01*
X4550057Y19199286D02*
X4502438Y19246905D01*
X4502438Y19246905D02*
X4454819Y19342143D01*
X4454819Y19342143D02*
X4454819Y19580238D01*
X4454819Y19580238D02*
X4502438Y19675476D01*
X4502438Y19675476D02*
X4550057Y19723095D01*
X4550057Y19723095D02*
X4645295Y19770714D01*
X4645295Y19770714D02*
X4740533Y19770714D01*
X4740533Y19770714D02*
X4883390Y19723095D01*
X4883390Y19723095D02*
X5454819Y19151667D01*
X5454819Y19151667D02*
X5454819Y19770714D01*
X15454819Y18818333D02*
X14978628Y18485000D01*
X15454819Y18246905D02*
X14454819Y18246905D01*
X14454819Y18246905D02*
X14454819Y18627857D01*
X14454819Y18627857D02*
X14502438Y18723095D01*
X14502438Y18723095D02*
X14550057Y18770714D01*
X14550057Y18770714D02*
X14645295Y18818333D01*
X14645295Y18818333D02*
X14788152Y18818333D01*
X14788152Y18818333D02*
X14883390Y18770714D01*
X14883390Y18770714D02*
X14931009Y18723095D01*
X14931009Y18723095D02*
X14978628Y18627857D01*
X14978628Y18627857D02*
X14978628Y18246905D01*
X14454819Y19151667D02*
X14454819Y19770714D01*
X14454819Y19770714D02*
X14835771Y19437381D01*
X14835771Y19437381D02*
X14835771Y19580238D01*
X14835771Y19580238D02*
X14883390Y19675476D01*
X14883390Y19675476D02*
X14931009Y19723095D01*
X14931009Y19723095D02*
X15026247Y19770714D01*
X15026247Y19770714D02*
X15264342Y19770714D01*
X15264342Y19770714D02*
X15359580Y19723095D01*
X15359580Y19723095D02*
X15407200Y19675476D01*
X15407200Y19675476D02*
X15454819Y19580238D01*
X15454819Y19580238D02*
X15454819Y19294524D01*
X15454819Y19294524D02*
X15407200Y19199286D01*
X15407200Y19199286D02*
X15359580Y19151667D01*
X-9545180Y22761905D02*
X-10545180Y22761905D01*
X-10545180Y22761905D02*
X-10545180Y23000000D01*
X-10545180Y23000000D02*
X-10497561Y23142857D01*
X-10497561Y23142857D02*
X-10402323Y23238095D01*
X-10402323Y23238095D02*
X-10307085Y23285714D01*
X-10307085Y23285714D02*
X-10116609Y23333333D01*
X-10116609Y23333333D02*
X-9973752Y23333333D01*
X-9973752Y23333333D02*
X-9783276Y23285714D01*
X-9783276Y23285714D02*
X-9688038Y23238095D01*
X-9688038Y23238095D02*
X-9592800Y23142857D01*
X-9592800Y23142857D02*
X-9545180Y23000000D01*
X-9545180Y23000000D02*
X-9545180Y22761905D01*
X-9545180Y24285714D02*
X-9545180Y23714286D01*
X-9545180Y24000000D02*
X-10545180Y24000000D01*
X-10545180Y24000000D02*
X-10402323Y23904762D01*
X-10402323Y23904762D02*
X-10307085Y23809524D01*
X-10307085Y23809524D02*
X-10259466Y23714286D01*
X-4545180Y18818333D02*
X-5021371Y18485000D01*
X-4545180Y18246905D02*
X-5545180Y18246905D01*
X-5545180Y18246905D02*
X-5545180Y18627857D01*
X-5545180Y18627857D02*
X-5497561Y18723095D01*
X-5497561Y18723095D02*
X-5449942Y18770714D01*
X-5449942Y18770714D02*
X-5354704Y18818333D01*
X-5354704Y18818333D02*
X-5211847Y18818333D01*
X-5211847Y18818333D02*
X-5116609Y18770714D01*
X-5116609Y18770714D02*
X-5068990Y18723095D01*
X-5068990Y18723095D02*
X-5021371Y18627857D01*
X-5021371Y18627857D02*
X-5021371Y18246905D01*
X-4545180Y19770714D02*
X-4545180Y19199286D01*
X-4545180Y19485000D02*
X-5545180Y19485000D01*
X-5545180Y19485000D02*
X-5402323Y19389762D01*
X-5402323Y19389762D02*
X-5307085Y19294524D01*
X-5307085Y19294524D02*
X-5259466Y19199286D01*
X10454819Y22761905D02*
X9454819Y22761905D01*
X9454819Y22761905D02*
X9454819Y23000000D01*
X9454819Y23000000D02*
X9502438Y23142857D01*
X9502438Y23142857D02*
X9597676Y23238095D01*
X9597676Y23238095D02*
X9692914Y23285714D01*
X9692914Y23285714D02*
X9883390Y23333333D01*
X9883390Y23333333D02*
X10026247Y23333333D01*
X10026247Y23333333D02*
X10216723Y23285714D01*
X10216723Y23285714D02*
X10311961Y23238095D01*
X10311961Y23238095D02*
X10407200Y23142857D01*
X10407200Y23142857D02*
X10454819Y23000000D01*
X10454819Y23000000D02*
X10454819Y22761905D01*
X9454819Y23666667D02*
X9454819Y24285714D01*
X9454819Y24285714D02*
X9835771Y23952381D01*
X9835771Y23952381D02*
X9835771Y24095238D01*
X9835771Y24095238D02*
X9883390Y24190476D01*
X9883390Y24190476D02*
X9931009Y24238095D01*
X9931009Y24238095D02*
X10026247Y24285714D01*
X10026247Y24285714D02*
X10264342Y24285714D01*
X10264342Y24285714D02*
X10359580Y24238095D01*
X10359580Y24238095D02*
X10407200Y24190476D01*
X10407200Y24190476D02*
X10454819Y24095238D01*
X10454819Y24095238D02*
X10454819Y23809524D01*
X10454819Y23809524D02*
X10407200Y23714286D01*
X10407200Y23714286D02*
X10359580Y23666667D01*
X16860588Y8997561D02*
X16765350Y9045180D01*
X16765350Y9045180D02*
X16622493Y9045180D01*
X16622493Y9045180D02*
X16479636Y8997561D01*
X16479636Y8997561D02*
X16384398Y8902323D01*
X16384398Y8902323D02*
X16336779Y8807085D01*
X16336779Y8807085D02*
X16289160Y8616609D01*
X16289160Y8616609D02*
X16289160Y8473752D01*
X16289160Y8473752D02*
X16336779Y8283276D01*
X16336779Y8283276D02*
X16384398Y8188038D01*
X16384398Y8188038D02*
X16479636Y8092800D01*
X16479636Y8092800D02*
X16622493Y8045180D01*
X16622493Y8045180D02*
X16717731Y8045180D01*
X16717731Y8045180D02*
X16860588Y8092800D01*
X16860588Y8092800D02*
X16908207Y8140419D01*
X16908207Y8140419D02*
X16908207Y8473752D01*
X16908207Y8473752D02*
X16717731Y8473752D01*
X17336779Y8045180D02*
X17336779Y9045180D01*
X17336779Y9045180D02*
X17908207Y8045180D01*
X17908207Y8045180D02*
X17908207Y9045180D01*
X18384398Y8045180D02*
X18384398Y9045180D01*
X18384398Y9045180D02*
X18622493Y9045180D01*
X18622493Y9045180D02*
X18765350Y8997561D01*
X18765350Y8997561D02*
X18860588Y8902323D01*
X18860588Y8902323D02*
X18908207Y8807085D01*
X18908207Y8807085D02*
X18955826Y8616609D01*
X18955826Y8616609D02*
X18955826Y8473752D01*
X18955826Y8473752D02*
X18908207Y8283276D01*
X18908207Y8283276D02*
X18860588Y8188038D01*
X18860588Y8188038D02*
X18765350Y8092800D01*
X18765350Y8092800D02*
X18622493Y8045180D01*
X18622493Y8045180D02*
X18384398Y8045180D01*
X454819Y22761905D02*
X-545180Y22761905D01*
X-545180Y22761905D02*
X-545180Y23000000D01*
X-545180Y23000000D02*
X-497561Y23142857D01*
X-497561Y23142857D02*
X-402323Y23238095D01*
X-402323Y23238095D02*
X-307085Y23285714D01*
X-307085Y23285714D02*
X-116609Y23333333D01*
X-116609Y23333333D02*
X26247Y23333333D01*
X26247Y23333333D02*
X216723Y23285714D01*
X216723Y23285714D02*
X311961Y23238095D01*
X311961Y23238095D02*
X407200Y23142857D01*
X407200Y23142857D02*
X454819Y23000000D01*
X454819Y23000000D02*
X454819Y22761905D01*
X-449942Y23714286D02*
X-497561Y23761905D01*
X-497561Y23761905D02*
X-545180Y23857143D01*
X-545180Y23857143D02*
X-545180Y24095238D01*
X-545180Y24095238D02*
X-497561Y24190476D01*
X-497561Y24190476D02*
X-449942Y24238095D01*
X-449942Y24238095D02*
X-354704Y24285714D01*
X-354704Y24285714D02*
X-259466Y24285714D01*
X-259466Y24285714D02*
X-116609Y24238095D01*
X-116609Y24238095D02*
X454819Y23666667D01*
X454819Y23666667D02*
X454819Y24285714D01*
D13*
%TO.C,R2*%
X3690000Y22195000D02*
X4020000Y22195000D01*
X3690000Y15775000D02*
X3690000Y22195000D01*
X4020000Y15775000D02*
X3690000Y15775000D01*
X5980000Y15775000D02*
X6310000Y15775000D01*
X6310000Y22195000D02*
X5980000Y22195000D01*
X6310000Y15775000D02*
X6310000Y22195000D01*
%TO.C,R3*%
X13690000Y22195000D02*
X14020000Y22195000D01*
X13690000Y15775000D02*
X13690000Y22195000D01*
X14020000Y15775000D02*
X13690000Y15775000D01*
X15980000Y15775000D02*
X16310000Y15775000D01*
X16310000Y22195000D02*
X15980000Y22195000D01*
X16310000Y15775000D02*
X16310000Y22195000D01*
D11*
%TO.C,J2*%
X-19525000Y-2349999D02*
X-19525000Y10350000D01*
X-16985000Y12890000D02*
X-3015000Y12890000D01*
X-3015001Y-4890000D02*
X-16984999Y-4890000D01*
X-475000Y10350000D02*
X-475000Y-2349999D01*
X-19525000Y10350000D02*
G75*
G02*
X-16985000Y12890000I2540000J0D01*
G01*
X-16984999Y-4890000D02*
G75*
G02*
X-19525000Y-2349999I0J2540001D01*
G01*
X-3015000Y12890000D02*
G75*
G02*
X-475000Y10350000I0J-2540000D01*
G01*
X-475000Y-2349999D02*
G75*
G02*
X-3015001Y-4890000I-2540001J0D01*
G01*
D13*
%TO.C,D1*%
X-11545000Y16435000D02*
X-8455000Y16435000D01*
X-11544830Y16435000D02*
G75*
G02*
X-9999538Y21985000I1544830J2560000D01*
G01*
X-10000462Y21985000D02*
G75*
G02*
X-8455170Y16435000I462J-2990000D01*
G01*
X-7500000Y18995000D02*
G75*
G02*
X-12500000Y18995000I-2500000J0D01*
G01*
X-12500000Y18995000D02*
G75*
G02*
X-7500000Y18995000I2500000J0D01*
G01*
%TO.C,R1*%
X-6310000Y22195000D02*
X-5980000Y22195000D01*
X-6310000Y15775000D02*
X-6310000Y22195000D01*
X-5980000Y15775000D02*
X-6310000Y15775000D01*
X-4020000Y15775000D02*
X-3690000Y15775000D01*
X-3690000Y22195000D02*
X-4020000Y22195000D01*
X-3690000Y15775000D02*
X-3690000Y22195000D01*
%TO.C,D3*%
X8455000Y16435000D02*
X11545000Y16435000D01*
X8455170Y16435000D02*
G75*
G02*
X10000462Y21985000I1544830J2560000D01*
G01*
X9999538Y21985000D02*
G75*
G02*
X11544830Y16435000I462J-2990000D01*
G01*
X12500000Y18995000D02*
G75*
G02*
X7500000Y18995000I-2500000J0D01*
G01*
X7500000Y18995000D02*
G75*
G02*
X12500000Y18995000I2500000J0D01*
G01*
D11*
%TO.C,J3*%
X3071429Y4997446D02*
G75*
G02*
X3071429Y3002554I-71429J-997446D01*
G01*
X3071429Y4997446D02*
G75*
G02*
X16928571Y4997446I6928571J-997446D01*
G01*
X16928571Y3002554D02*
G75*
G02*
X3071429Y3002554I-6928571J997446D01*
G01*
X16928571Y3002554D02*
G75*
G02*
X16928571Y4997446I71429J997446D01*
G01*
D14*
X15711000Y6540000D02*
G75*
G02*
X15211000Y6540000I-250000J0D01*
G01*
X15211000Y6540000D02*
G75*
G02*
X15711000Y6540000I250000J0D01*
G01*
D13*
%TO.C,D2*%
X-1545000Y16435000D02*
X1545000Y16435000D01*
X-1544830Y16435000D02*
G75*
G02*
X462Y21985000I1544830J2560000D01*
G01*
X-462Y21985000D02*
G75*
G02*
X1544830Y16435000I462J-2990000D01*
G01*
X2500000Y18995000D02*
G75*
G02*
X-2500000Y18995000I-2500000J0D01*
G01*
X-2500000Y18995000D02*
G75*
G02*
X2500000Y18995000I2500000J0D01*
G01*
D11*
%TO.C,SW1*%
X-9746794Y-27000000D02*
G75*
G02*
X-9746794Y-13000000I9746793J7000000D01*
G01*
X9746794Y-13000000D02*
G75*
G02*
X9746794Y-27000000I-9746794J-7000000D01*
G01*
%TD*%
M02*
