%TF.GenerationSoftware,KiCad,Pcbnew,8.0.3*%
%TF.CreationDate,2024-09-22T18:07:20+10:00*%
%TF.ProjectId,ChatterBox,43686174-7465-4724-926f-782e6b696361,rev?*%
%TF.SameCoordinates,Original*%
%TF.FileFunction,Soldermask,Top*%
%TF.FilePolarity,Negative*%
%FSLAX46Y46*%
G04 Gerber Fmt 4.6, Leading zero omitted, Abs format (unit mm)*
G04 Created by KiCad (PCBNEW 8.0.3) date 2024-09-22 18:07:20*
%MOMM*%
%LPD*%
G01*
G04 APERTURE LIST*
G04 Aperture macros list*
%AMHorizOval*
0 Thick line with rounded ends*
0 $1 width*
0 $2 $3 position (X,Y) of the first rounded end (center of the circle)*
0 $4 $5 position (X,Y) of the second rounded end (center of the circle)*
0 Add line between two ends*
20,1,$1,$2,$3,$4,$5,0*
0 Add two circle primitives to create the rounded ends*
1,1,$1,$2,$3*
1,1,$1,$4,$5*%
G04 Aperture macros list end*
%ADD10C,1.800000*%
%ADD11C,2.000000*%
%ADD12R,2.000000X2.000000*%
%ADD13C,2.200000*%
%ADD14O,2.170000X1.750000*%
%ADD15C,5.000000*%
%ADD16O,2.400000X1.600000*%
%ADD17HorizOval,2.000000X0.299385X-0.450610X-0.299385X0.450610X0*%
%ADD18HorizOval,2.300000X0.893481X-0.239408X-0.893481X0.239408X0*%
%ADD19C,2.300000*%
G04 APERTURE END LIST*
D10*
%TO.C,J1*%
X-13230000Y-24130000D03*
X-15770000Y-24130000D03*
X-13230000Y-21590000D03*
X-15770000Y-21590000D03*
X-13230000Y-19050000D03*
X-15770000Y-19050000D03*
X-13230000Y-16510000D03*
X-15770000Y-16510000D03*
X-13230000Y-13970000D03*
X-15770000Y-13970000D03*
X-13230000Y-11430000D03*
X-15770000Y-11430000D03*
X-13230000Y-8890000D03*
X-15770000Y-8890000D03*
X-13230000Y-6350000D03*
X-15770000Y-6350000D03*
X-13230000Y-3810000D03*
X-15770000Y-3810000D03*
X-13230000Y-1270000D03*
X-15770000Y-1270000D03*
X-13230000Y1270000D03*
X-15770000Y1270000D03*
X-13230000Y3810000D03*
X-15770000Y3810000D03*
X-13230000Y6350000D03*
X-15770000Y6350000D03*
X-13230000Y8890000D03*
X-15770000Y8890000D03*
X-13230000Y11430000D03*
X-15770000Y11430000D03*
X-13230000Y13970000D03*
X-15770000Y13970000D03*
X-13230000Y16510000D03*
X-15770000Y16510000D03*
X-13230000Y19050000D03*
X-15770000Y19050000D03*
X-13230000Y21590000D03*
X-15770000Y21590000D03*
X-13230000Y24130000D03*
X-15770000Y24130000D03*
%TD*%
D11*
%TO.C,R2*%
X5000000Y15175000D03*
X5000000Y22795000D03*
%TD*%
%TO.C,R3*%
X15000000Y15175000D03*
X15000000Y22795000D03*
%TD*%
D10*
%TO.C,J2*%
X-3015000Y-3620000D03*
X-3015000Y-1080000D03*
X-3015000Y1460000D03*
X-3015000Y4000000D03*
X-3015000Y6540000D03*
X-3015000Y9080000D03*
X-3015000Y11620000D03*
%TD*%
D12*
%TO.C,D1*%
X-10000000Y17725000D03*
D11*
X-10000000Y20265000D03*
%TD*%
%TO.C,R1*%
X-5000000Y15175000D03*
X-5000000Y22795000D03*
%TD*%
D12*
%TO.C,D3*%
X10000000Y17725000D03*
D11*
X10000000Y20265000D03*
%TD*%
D10*
%TO.C,J3*%
X13810000Y6540000D03*
X6190000Y6540000D03*
X13810000Y4000000D03*
X6190000Y4000000D03*
X13810000Y1460000D03*
X6190000Y1460000D03*
%TD*%
D12*
%TO.C,D2*%
X0Y17725000D03*
D11*
X0Y20265000D03*
%TD*%
D13*
%TO.C,SW1*%
X-9250000Y-20000000D03*
D14*
X-5290000Y-20000000D03*
D15*
X0Y-20000000D03*
D16*
X5150000Y-14850000D03*
D14*
X5290000Y-20000000D03*
D13*
X9250000Y-20000000D03*
D17*
X-4700000Y-24250000D03*
D18*
X-3361037Y-24860004D03*
D11*
X0Y-25900000D03*
X2600000Y-25750000D03*
D19*
X3810000Y-22540000D03*
%TD*%
M02*
