M48
; DRILL file {KiCad 8.0.3} date 2024-09-22T17:39:38+1000
; FORMAT={-:-/ absolute / metric / decimal}
; #@! TF.CreationDate,2024-09-22T17:39:38+10:00
; #@! TF.GenerationSoftware,Kicad,Pcbnew,8.0.3
; #@! TF.FileFunction,Plated,1,2,PTH
FMAT,2
METRIC
; #@! TA.AperFunction,Plated,PTH,ViaDrill
T1C0.400
; #@! TA.AperFunction,Plated,PTH,ComponentDrill
T2C0.800
; #@! TA.AperFunction,Plated,PTH,ComponentDrill
T3C0.900
; #@! TA.AperFunction,Plated,PTH,ComponentDrill
T4C1.200
; #@! TA.AperFunction,Plated,PTH,ComponentDrill
T5C1.500
%
G90
G05
T1
X-6.625Y3.875
X-5.375Y5.125
X-1.0Y10.75
X0.25Y13.5
X0.25Y12.0
X1.75Y15.0
T2
X-15.77Y24.13
X-15.77Y21.59
X-15.77Y19.05
X-15.77Y16.51
X-15.77Y13.97
X-15.77Y11.43
X-15.77Y8.89
X-15.77Y6.35
X-15.77Y3.81
X-15.77Y1.27
X-15.77Y-1.27
X-15.77Y-3.81
X-15.77Y-6.35
X-15.77Y-8.89
X-15.77Y-11.43
X-15.77Y-13.97
X-15.77Y-16.51
X-15.77Y-19.05
X-15.77Y-21.59
X-15.77Y-24.13
X-13.23Y24.13
X-13.23Y21.59
X-13.23Y19.05
X-13.23Y16.51
X-13.23Y13.97
X-13.23Y11.43
X-13.23Y8.89
X-13.23Y6.35
X-13.23Y3.81
X-13.23Y1.27
X-13.23Y-1.27
X-13.23Y-3.81
X-13.23Y-6.35
X-13.23Y-8.89
X-13.23Y-11.43
X-13.23Y-13.97
X-13.23Y-16.51
X-13.23Y-19.05
X-13.23Y-21.59
X-13.23Y-24.13
X-5.0Y22.795
X-5.0Y15.175
X-3.015Y11.62
X-3.015Y9.08
X-3.015Y6.54
X-3.015Y4.0
X-3.015Y1.46
X-3.015Y-1.08
X-3.015Y-3.62
X5.0Y22.795
X5.0Y15.175
X6.19Y6.54
X6.19Y4.0
X6.19Y1.46
X13.81Y6.54
X13.81Y4.0
X13.81Y1.46
X15.0Y22.795
X15.0Y15.175
T3
X-10.0Y20.265
X-10.0Y17.725
X0.0Y20.265
X0.0Y17.725
X10.0Y20.265
X10.0Y17.725
T4
X0.0Y-25.9
X2.6Y-25.75
T5
X-2.54Y-25.08
X3.81Y-22.54
T2
G00X4.75Y-14.85
M15
G01X5.55Y-14.85
M16
G05
T4
G00X-4.999Y-23.799
M15
G01X-4.401Y-24.701
M16
G05
M30
